<svg width="750" height="495" viewBox="0 0 750 495" fill="none" xmlns="http://www.w3.org/2000/svg">
<rect width="750" height="414" rx="25" fill="#F9975E"/>
<rect x="1" width="749" height="414" rx="25" fill="#C3C3C3"/>
<path d="M0 25C0 11.1929 11.1929 0 25 0H225C238.807 0 250 11.1929 250 25V86C250 99.8071 238.807 111 225 111H25C11.1929 111 0 99.8071 0 86V25Z" fill="#0061AE"/>
<path d="M228 0H508V69H228V0Z" fill="#0061AE"/>
<path d="M489 25C489 11.1929 500.193 0 514 0H725C738.807 0 750 11.1929 750 25V81C750 94.8071 738.807 106 725 106H514C500.193 106 489 94.8071 489 81V25Z" fill="#0061AE"/>
<rect y="69" width="333" height="426" rx="25" fill="#F9975E"/>
<rect x="250" y="69" width="250" height="426" fill="#F9975E"/>
<path d="M476 94C476 80.1929 487.193 69 501 69H724C737.807 69 749 80.1929 749 94V470C749 483.807 737.807 495 724 495H501C487.193 495 476 483.807 476 470V94Z" fill="#F9975E"/>
<line x1="251.5" x2="251.5" y2="495" stroke="#C3C3C3" stroke-width="3"/>
<path d="M526.5 0V489.5" stroke="#C3C3C3" stroke-width="3"/>
<line y1="67.5" x2="750" y2="67.5" stroke="#C3C3C3" stroke-width="3"/>
<line y1="136.5" x2="749" y2="136.5" stroke="#C3C3C3" stroke-width="3"/>
<line x1="1" y1="205.5" x2="750" y2="205.5" stroke="#C3C3C3" stroke-width="3"/>
<line y1="275.5" x2="749" y2="275.5" stroke="#C3C3C3" stroke-width="3"/>
<path d="M0 347.5H749" stroke="#C3C3C3" stroke-width="3"/>
<rect y="69" width="250" height="55" fill="#F9975E"/>
<path d="M539 69H750V106H539V69Z" fill="#F9975E"/>
<path d="M551.732 109.35C555.412 106.59 558.252 104.12 560.252 101.94C562.272 99.74 563.282 97.59 563.282 95.49C563.282 94.11 562.932 93.01 562.232 92.19C561.552 91.35 560.432 90.93 558.872 90.93C557.352 90.93 556.172 91.41 555.332 92.37C554.512 93.31 554.052 94.57 553.952 96.15H551.912C552.032 93.93 552.712 92.21 553.952 90.99C555.212 89.75 556.852 89.13 558.872 89.13C560.812 89.13 562.382 89.68 563.582 90.78C564.782 91.86 565.382 93.4 565.382 95.4C565.382 97.82 564.372 100.17 562.352 102.45C560.352 104.71 557.882 106.92 554.942 109.08H566.042V110.85H551.732V109.35ZM593.093 100.8H586.403V107.55H584.453V100.8H577.793V99H584.453V92.25H586.403V99H593.093V100.8ZM605.023 109.35C608.703 106.59 611.543 104.12 613.543 101.94C615.563 99.74 616.573 97.59 616.573 95.49C616.573 94.11 616.223 93.01 615.523 92.19C614.843 91.35 613.723 90.93 612.163 90.93C610.643 90.93 609.463 91.41 608.623 92.37C607.803 93.31 607.343 94.57 607.243 96.15H605.203C605.323 93.93 606.003 92.21 607.243 90.99C608.503 89.75 610.143 89.13 612.163 89.13C614.103 89.13 615.673 89.68 616.873 90.78C618.073 91.86 618.673 93.4 618.673 95.4C618.673 97.82 617.663 100.17 615.643 102.45C613.643 104.71 611.173 106.92 608.233 109.08H619.333V110.85H605.023V109.35ZM646.684 95.94V97.74H631.384V95.94H646.684ZM646.684 102.06V103.83H631.384V102.06H646.684ZM658.419 105.9V104.31L669.339 89.61H671.829V104.07H675.039V105.9H671.829V111H669.759V105.9H658.419ZM669.849 91.92L660.849 104.07H669.849V91.92Z" fill="white"/>
<path d="M40.0666 45.21C38.1266 45.21 36.3366 44.76 34.6966 43.86C33.0766 42.94 31.7866 41.67 30.8266 40.05C29.8866 38.41 29.4166 36.57 29.4166 34.53C29.4166 32.49 29.8866 30.66 30.8266 29.04C31.7866 27.42 33.0766 26.16 34.6966 25.26C36.3366 24.34 38.1266 23.88 40.0666 23.88C42.0266 23.88 43.8166 24.34 45.4366 25.26C47.0766 26.16 48.3666 27.42 49.3066 29.04C50.2466 30.66 50.7166 32.49 50.7166 34.53C50.7166 36.57 50.2466 38.41 49.3066 40.05C48.3666 41.67 47.0766 42.94 45.4366 43.86C43.8166 44.76 42.0266 45.21 40.0666 45.21ZM40.0666 42.24C41.4466 42.24 42.6766 41.93 43.7566 41.31C44.8366 40.67 45.6766 39.77 46.2766 38.61C46.8966 37.43 47.2066 36.07 47.2066 34.53C47.2066 32.99 46.8966 31.64 46.2766 30.48C45.6766 29.32 44.8366 28.43 43.7566 27.81C42.6766 27.19 41.4466 26.88 40.0666 26.88C38.6866 26.88 37.4566 27.19 36.3766 27.81C35.2966 28.43 34.4466 29.32 33.8266 30.48C33.2266 31.64 32.9266 32.99 32.9266 34.53C32.9266 36.07 33.2266 37.43 33.8266 38.61C34.4466 39.77 35.2966 40.67 36.3766 41.31C37.4566 41.93 38.6866 42.24 40.0666 42.24ZM68.662 30.36C68.662 31.42 68.412 32.42 67.912 33.36C67.412 34.3 66.612 35.07 65.512 35.67C64.412 36.25 63.002 36.54 61.282 36.54H57.502V45H54.082V24.15H61.282C62.882 24.15 64.232 24.43 65.332 24.99C66.452 25.53 67.282 26.27 67.822 27.21C68.382 28.15 68.662 29.2 68.662 30.36ZM61.282 33.75C62.582 33.75 63.552 33.46 64.192 32.88C64.832 32.28 65.152 31.44 65.152 30.36C65.152 28.08 63.862 26.94 61.282 26.94H57.502V33.75H61.282ZM75.3438 26.91V33.03H82.5438V35.82H75.3438V42.21H83.4438V45H71.9238V24.12H83.4438V26.91H75.3438ZM98.4863 45L93.6863 36.66H91.0763V45H87.6563V24.15H94.8563C96.4563 24.15 97.8063 24.43 98.9063 24.99C100.026 25.55 100.856 26.3 101.396 27.24C101.956 28.18 102.236 29.23 102.236 30.39C102.236 31.75 101.836 32.99 101.036 34.11C100.256 35.21 99.0463 35.96 97.4063 36.36L102.566 45H98.4863ZM91.0763 33.93H94.8563C96.1363 33.93 97.0963 33.61 97.7363 32.97C98.3963 32.33 98.7263 31.47 98.7263 30.39C98.7263 29.31 98.4063 28.47 97.7663 27.87C97.1263 27.25 96.1563 26.94 94.8563 26.94H91.0763V33.93ZM119.181 40.74H110.451L108.951 45H105.381L112.851 24.12H116.811L124.281 45H120.681L119.181 40.74ZM118.221 37.95L114.831 28.26L111.411 37.95H118.221ZM140.999 24.15V26.94H135.449V45H132.029V26.94H126.449V24.15H140.999ZM153.973 45.21C152.033 45.21 150.243 44.76 148.603 43.86C146.983 42.94 145.693 41.67 144.733 40.05C143.793 38.41 143.323 36.57 143.323 34.53C143.323 32.49 143.793 30.66 144.733 29.04C145.693 27.42 146.983 26.16 148.603 25.26C150.243 24.34 152.033 23.88 153.973 23.88C155.933 23.88 157.723 24.34 159.343 25.26C160.983 26.16 162.273 27.42 163.213 29.04C164.153 30.66 164.623 32.49 164.623 34.53C164.623 36.57 164.153 38.41 163.213 40.05C162.273 41.67 160.983 42.94 159.343 43.86C157.723 44.76 155.933 45.21 153.973 45.21ZM153.973 42.24C155.353 42.24 156.583 41.93 157.663 41.31C158.743 40.67 159.583 39.77 160.183 38.61C160.803 37.43 161.113 36.07 161.113 34.53C161.113 32.99 160.803 31.64 160.183 30.48C159.583 29.32 158.743 28.43 157.663 27.81C156.583 27.19 155.353 26.88 153.973 26.88C152.593 26.88 151.363 27.19 150.283 27.81C149.203 28.43 148.353 29.32 147.733 30.48C147.133 31.64 146.833 32.99 146.833 34.53C146.833 36.07 147.133 37.43 147.733 38.61C148.353 39.77 149.203 40.67 150.283 41.31C151.363 41.93 152.593 42.24 153.973 42.24ZM178.818 45L174.018 36.66H171.408V45H167.988V24.15H175.188C176.788 24.15 178.138 24.43 179.238 24.99C180.358 25.55 181.188 26.3 181.728 27.24C182.288 28.18 182.568 29.23 182.568 30.39C182.568 31.75 182.168 32.99 181.368 34.11C180.588 35.21 179.378 35.96 177.738 36.36L182.898 45H178.818ZM171.408 33.93H175.188C176.468 33.93 177.428 33.61 178.068 32.97C178.728 32.33 179.058 31.47 179.058 30.39C179.058 29.31 178.738 28.47 178.098 27.87C177.458 27.25 176.488 26.94 175.188 26.94H171.408V33.93Z" fill="white"/>
<path d="M46.1511 104.81H40.9311V110.15H36.0711V104.81H30.8511V100.22H36.0711V94.85H40.9311V100.22H46.1511V104.81Z" fill="white"/>
<path d="M305.48 23.15V44H302.06V29.72L295.7 44H293.33L286.94 29.72V44H283.52V23.15H287.21L294.53 39.5L301.82 23.15H305.48ZM313.395 25.91V32.03H320.595V34.82H313.395V41.21H321.495V44H309.975V23.12H321.495V25.91H313.395ZM338.277 39.74H329.547L328.047 44H324.477L331.947 23.12H335.907L343.377 44H339.777L338.277 39.74ZM337.317 36.95L333.927 27.26L330.507 36.95H337.317ZM363.755 44H360.335L350.045 28.43V44H346.625V23.12H350.045L360.335 38.66V23.12H363.755V44ZM371.666 23.15V44H368.246V23.15H371.666ZM393.286 44H389.866L379.576 28.43V44H376.156V23.12H379.576L389.866 38.66V23.12H393.286V44ZM412.867 29.15C412.327 28.11 411.577 27.33 410.617 26.81C409.657 26.27 408.547 26 407.287 26C405.907 26 404.677 26.31 403.597 26.93C402.517 27.55 401.667 28.43 401.047 29.57C400.447 30.71 400.147 32.03 400.147 33.53C400.147 35.03 400.447 36.36 401.047 37.52C401.667 38.66 402.517 39.54 403.597 40.16C404.677 40.78 405.907 41.09 407.287 41.09C409.147 41.09 410.657 40.57 411.817 39.53C412.977 38.49 413.687 37.08 413.947 35.3H406.117V32.57H417.607V35.24C417.387 36.86 416.807 38.35 415.867 39.71C414.947 41.07 413.737 42.16 412.237 42.98C410.757 43.78 409.107 44.18 407.287 44.18C405.327 44.18 403.537 43.73 401.917 42.83C400.297 41.91 399.007 40.64 398.047 39.02C397.107 37.4 396.637 35.57 396.637 33.53C396.637 31.49 397.107 29.66 398.047 28.04C399.007 26.42 400.297 25.16 401.917 24.26C403.557 23.34 405.347 22.88 407.287 22.88C409.507 22.88 411.477 23.43 413.197 24.53C414.937 25.61 416.197 27.15 416.977 29.15H412.867Z" fill="white"/>
<path d="M290.132 116.21C288.752 116.21 287.532 115.97 286.472 115.49C285.432 115.01 284.612 114.34 284.012 113.48C283.412 112.62 283.092 111.66 283.052 110.6H285.272C285.372 111.62 285.822 112.52 286.622 113.3C287.422 114.06 288.592 114.44 290.132 114.44C291.552 114.44 292.672 114.08 293.492 113.36C294.332 112.62 294.752 111.69 294.752 110.57C294.752 109.67 294.522 108.95 294.062 108.41C293.602 107.85 293.032 107.44 292.352 107.18C291.672 106.9 290.732 106.6 289.532 106.28C288.132 105.9 287.022 105.53 286.202 105.17C285.382 104.81 284.682 104.25 284.102 103.49C283.522 102.73 283.232 101.7 283.232 100.4C283.232 99.32 283.512 98.36 284.072 97.52C284.632 96.66 285.422 95.99 286.442 95.51C287.462 95.03 288.632 94.79 289.952 94.79C291.892 94.79 293.452 95.27 294.632 96.23C295.832 97.17 296.522 98.39 296.702 99.89H294.422C294.282 99.03 293.812 98.27 293.012 97.61C292.212 96.93 291.132 96.59 289.772 96.59C288.512 96.59 287.462 96.93 286.622 97.61C285.782 98.27 285.362 99.18 285.362 100.34C285.362 101.22 285.592 101.93 286.052 102.47C286.512 103.01 287.082 103.42 287.762 103.7C288.462 103.98 289.402 104.28 290.582 104.6C291.942 104.98 293.042 105.36 293.882 105.74C294.722 106.1 295.432 106.66 296.012 107.42C296.592 108.18 296.882 109.2 296.882 110.48C296.882 111.46 296.622 112.39 296.102 113.27C295.582 114.15 294.812 114.86 293.792 115.4C292.772 115.94 291.552 116.21 290.132 116.21ZM302.95 95.03V108.23C302.95 110.31 303.44 111.85 304.42 112.85C305.42 113.85 306.78 114.35 308.5 114.35C310.22 114.35 311.56 113.86 312.52 112.88C313.5 111.88 313.99 110.33 313.99 108.23V95.03H316.09V108.2C316.09 110.86 315.38 112.86 313.96 114.2C312.56 115.54 310.73 116.21 308.47 116.21C306.21 116.21 304.37 115.54 302.95 114.2C301.55 112.86 300.85 110.86 300.85 108.2V95.03H302.95ZM341.264 95.3V116H339.164V99.47L331.784 116H330.254L322.874 99.53V116H320.774V95.3H322.994L331.004 113.24L339.014 95.3H341.264Z" fill="white"/>
<path d="M555.856 26.91V33.03H563.056V35.82H555.856V42.21H563.956V45H552.436V24.12H563.956V26.91H555.856ZM577.738 34.59L584.218 45H580.378L575.668 37.44L571.258 45H567.448L573.928 34.59L567.418 24.15H571.258L575.998 31.77L580.438 24.15H584.248L577.738 34.59ZM591.393 26.91V33.03H598.593V35.82H591.393V42.21H599.493V45H587.973V24.12H599.493V26.91H591.393ZM625.665 24.15V45H622.245V30.72L615.885 45H613.515L607.125 30.72V45H603.705V24.15H607.395L614.715 40.5L622.005 24.15H625.665ZM644.74 30.36C644.74 31.42 644.49 32.42 643.99 33.36C643.49 34.3 642.69 35.07 641.59 35.67C640.49 36.25 639.08 36.54 637.36 36.54H633.58V45H630.16V24.15H637.36C638.96 24.15 640.31 24.43 641.41 24.99C642.53 25.53 643.36 26.27 643.9 27.21C644.46 28.15 644.74 29.2 644.74 30.36ZM637.36 33.75C638.66 33.75 639.63 33.46 640.27 32.88C640.91 32.28 641.23 31.44 641.23 30.36C641.23 28.08 639.94 26.94 637.36 26.94H633.58V33.75H637.36ZM651.422 42.24H658.472V45H648.002V24.15H651.422V42.24ZM664.752 26.91V33.03H671.952V35.82H664.752V42.21H672.852V45H661.332V24.12H672.852V26.91H664.752Z" fill="white"/>
<path d="M50.0588 166.34V170.6H36.8588V166.34H50.0588Z" fill="white"/>
<path d="M45.21 231.15L46.89 234.21L43.2 235.5L46.89 236.76L45.09 239.94L42.09 237.3L42.84 241.2H39.33L40.05 237.3L37.08 239.97L35.22 236.73L38.91 235.44L35.25 234.24L36.96 231.15L40.08 233.76L39.3 229.8H42.87L42.09 233.76L45.21 231.15Z" fill="white"/>
<path d="M46.4931 296.5L38.4531 330.61H33.5031L41.5431 296.5H46.4931Z" fill="white"/>
<path d="M34.3782 381.62C34.3782 380 34.8382 378.75 35.7582 377.87C36.6982 376.99 37.9082 376.55 39.3882 376.55C40.8682 376.55 42.0682 376.99 42.9882 377.87C43.9082 378.75 44.3682 380 44.3682 381.62C44.3682 383.24 43.9082 384.49 42.9882 385.37C42.0682 386.25 40.8682 386.69 39.3882 386.69C37.9082 386.69 36.6982 386.25 35.7582 385.37C34.8382 384.49 34.3782 383.24 34.3782 381.62ZM54.7482 376.88L43.1982 398H38.2482L49.7982 376.88H54.7482ZM39.3582 379.55C38.3982 379.55 37.9182 380.24 37.9182 381.62C37.9182 382.98 38.3982 383.66 39.3582 383.66C39.8182 383.66 40.1782 383.49 40.4382 383.15C40.6982 382.81 40.8282 382.3 40.8282 381.62C40.8282 380.24 40.3382 379.55 39.3582 379.55ZM48.6582 393.26C48.6582 391.64 49.1182 390.39 50.0382 389.51C50.9582 388.63 52.1582 388.19 53.6382 388.19C55.1182 388.19 56.3182 388.63 57.2382 389.51C58.1582 390.39 58.6182 391.64 58.6182 393.26C58.6182 394.88 58.1582 396.13 57.2382 397.01C56.3182 397.89 55.1182 398.33 53.6382 398.33C52.1582 398.33 50.9582 397.89 50.0382 397.01C49.1182 396.13 48.6582 394.88 48.6582 393.26ZM53.6082 391.19C53.1482 391.19 52.7882 391.36 52.5282 391.7C52.2882 392.04 52.1682 392.56 52.1682 393.26C52.1682 394.62 52.6482 395.3 53.6082 395.3C54.0682 395.3 54.4282 395.13 54.6882 394.79C54.9482 394.45 55.0782 393.94 55.0782 393.26C55.0782 392.58 54.9482 392.07 54.6882 391.73C54.4282 391.37 54.0682 391.19 53.6082 391.19Z" fill="white"/>
<path d="M290.03 179.21C288.65 179.21 287.43 178.97 286.37 178.49C285.33 178.01 284.51 177.34 283.91 176.48C283.31 175.62 282.99 174.66 282.95 173.6H285.17C285.27 174.62 285.72 175.52 286.52 176.3C287.32 177.06 288.49 177.44 290.03 177.44C291.45 177.44 292.57 177.08 293.39 176.36C294.23 175.62 294.65 174.69 294.65 173.57C294.65 172.67 294.42 171.95 293.96 171.41C293.5 170.85 292.93 170.44 292.25 170.18C291.57 169.9 290.63 169.6 289.43 169.28C288.03 168.9 286.92 168.53 286.1 168.17C285.28 167.81 284.58 167.25 284 166.49C283.42 165.73 283.13 164.7 283.13 163.4C283.13 162.32 283.41 161.36 283.97 160.52C284.53 159.66 285.32 158.99 286.34 158.51C287.36 158.03 288.53 157.79 289.85 157.79C291.79 157.79 293.35 158.27 294.53 159.23C295.73 160.17 296.42 161.39 296.6 162.89H294.32C294.18 162.03 293.71 161.27 292.91 160.61C292.11 159.93 291.03 159.59 289.67 159.59C288.41 159.59 287.36 159.93 286.52 160.61C285.68 161.27 285.26 162.18 285.26 163.34C285.26 164.22 285.49 164.93 285.95 165.47C286.41 166.01 286.98 166.42 287.66 166.7C288.36 166.98 289.3 167.28 290.48 167.6C291.84 167.98 292.94 168.36 293.78 168.74C294.62 169.1 295.33 169.66 295.91 170.42C296.49 171.18 296.78 172.2 296.78 173.48C296.78 174.46 296.52 175.39 296 176.27C295.48 177.15 294.71 177.86 293.69 178.4C292.67 178.94 291.45 179.21 290.03 179.21ZM302.847 158.03V171.23C302.847 173.31 303.338 174.85 304.318 175.85C305.318 176.85 306.678 177.35 308.398 177.35C310.118 177.35 311.458 176.86 312.418 175.88C313.398 174.88 313.888 173.33 313.888 171.23V158.03H315.988V171.2C315.988 173.86 315.278 175.86 313.857 177.2C312.458 178.54 310.628 179.21 308.368 179.21C306.108 179.21 304.268 178.54 302.847 177.2C301.448 175.86 300.748 173.86 300.748 171.2V158.03H302.847ZM330.481 168.17C331.661 168.39 332.661 168.99 333.481 169.97C334.301 170.95 334.711 172.09 334.711 173.39C334.711 174.45 334.441 175.41 333.901 176.27C333.381 177.11 332.611 177.78 331.591 178.28C330.571 178.76 329.351 179 327.931 179H320.671V158.03H327.721C329.841 158.03 331.451 158.52 332.551 159.5C333.671 160.48 334.231 161.75 334.231 163.31C334.231 164.61 333.881 165.67 333.181 166.49C332.481 167.29 331.581 167.85 330.481 168.17ZM322.771 167.3H327.661C329.081 167.3 330.171 166.97 330.931 166.31C331.711 165.63 332.101 164.7 332.101 163.52C332.101 162.36 331.711 161.45 330.931 160.79C330.171 160.13 329.051 159.8 327.571 159.8H322.771V167.3ZM327.781 177.23C329.301 177.23 330.481 176.87 331.321 176.15C332.181 175.43 332.611 174.44 332.611 173.18C332.611 171.92 332.161 170.92 331.261 170.18C330.381 169.42 329.191 169.04 327.691 169.04H322.771V177.23H327.781ZM350.842 158.03V159.77H345.022V179H342.922V159.77H337.072V158.03H350.842ZM365.318 179L360.128 170.24H356.258V179H354.158V158.03H360.458C362.798 158.03 364.568 158.59 365.768 159.71C366.988 160.83 367.598 162.3 367.598 164.12C367.598 165.64 367.158 166.94 366.278 168.02C365.418 169.08 364.138 169.77 362.438 170.09L367.838 179H365.318ZM356.258 168.53H360.488C362.128 168.53 363.358 168.13 364.178 167.33C365.018 166.53 365.438 165.46 365.438 164.12C365.438 162.74 365.038 161.68 364.238 160.94C363.438 160.18 362.178 159.8 360.458 159.8H356.258V168.53ZM383.915 174.02H374.375L372.545 179H370.325L377.975 158.3H380.345L387.965 179H385.745L383.915 174.02ZM383.285 172.28L379.145 160.94L375.005 172.28H383.285ZM390.376 168.5C390.376 166.44 390.826 164.6 391.726 162.98C392.626 161.34 393.856 160.07 395.416 159.17C396.976 158.25 398.716 157.79 400.636 157.79C402.976 157.79 404.976 158.35 406.636 159.47C408.316 160.57 409.536 162.13 410.296 164.15H407.836C407.236 162.73 406.316 161.62 405.076 160.82C403.856 160.02 402.376 159.62 400.636 159.62C399.096 159.62 397.706 159.98 396.466 160.7C395.246 161.42 394.286 162.46 393.586 163.82C392.886 165.16 392.536 166.72 392.536 168.5C392.536 170.28 392.886 171.84 393.586 173.18C394.286 174.52 395.246 175.55 396.466 176.27C397.706 176.99 399.096 177.35 400.636 177.35C402.376 177.35 403.856 176.96 405.076 176.18C406.316 175.38 407.236 174.28 407.836 172.88H410.296C409.536 174.88 408.316 176.43 406.636 177.53C404.956 178.63 402.956 179.18 400.636 179.18C398.716 179.18 396.976 178.73 395.416 177.83C393.856 176.91 392.626 175.64 391.726 174.02C390.826 172.4 390.376 170.56 390.376 168.5ZM426.75 158.03V159.77H420.93V179H418.83V159.77H412.98V158.03H426.75ZM432.166 158.03V179H430.066V158.03H432.166ZM446.341 179.21C444.401 179.21 442.641 178.76 441.061 177.86C439.481 176.94 438.231 175.67 437.311 174.05C436.411 172.41 435.961 170.56 435.961 168.5C435.961 166.44 436.411 164.6 437.311 162.98C438.231 161.34 439.481 160.07 441.061 159.17C442.641 158.25 444.401 157.79 446.341 157.79C448.301 157.79 450.071 158.25 451.651 159.17C453.231 160.07 454.471 161.34 455.371 162.98C456.271 164.6 456.721 166.44 456.721 168.5C456.721 170.56 456.271 172.41 455.371 174.05C454.471 175.67 453.231 176.94 451.651 177.86C450.071 178.76 448.301 179.21 446.341 179.21ZM446.341 177.38C447.901 177.38 449.301 177.02 450.541 176.3C451.781 175.58 452.761 174.55 453.481 173.21C454.201 171.85 454.561 170.28 454.561 168.5C454.561 166.72 454.201 165.16 453.481 163.82C452.761 162.48 451.781 161.45 450.541 160.73C449.301 160.01 447.901 159.65 446.341 159.65C444.781 159.65 443.381 160.01 442.141 160.73C440.901 161.45 439.921 162.48 439.201 163.82C438.481 165.16 438.121 166.72 438.121 168.5C438.121 170.28 438.481 171.85 439.201 173.21C439.921 174.55 440.901 175.58 442.141 176.3C443.381 177.02 444.781 177.38 446.341 177.38ZM476.374 179H474.274L462.664 161.36V179H460.564V158.03H462.664L474.274 175.64V158.03H476.374V179Z" fill="white"/>
<path d="M303.921 231.3V252H301.821V235.47L294.441 252H292.911L285.531 235.53V252H283.431V231.3H285.651L293.661 249.24L301.671 231.3H303.921ZM310.695 231.03V244.23C310.695 246.31 311.185 247.85 312.165 248.85C313.165 249.85 314.525 250.35 316.245 250.35C317.965 250.35 319.305 249.86 320.265 248.88C321.245 247.88 321.735 246.33 321.735 244.23V231.03H323.835V244.2C323.835 246.86 323.125 248.86 321.705 250.2C320.305 251.54 318.475 252.21 316.215 252.21C313.955 252.21 312.115 251.54 310.695 250.2C309.295 248.86 308.595 246.86 308.595 244.2V231.03H310.695ZM330.619 250.29H338.149V252H328.519V231.03H330.619V250.29ZM353.416 231.03V232.77H347.596V252H345.496V232.77H339.646V231.03H353.416ZM358.832 231.03V252H356.732V231.03H358.832ZM376.998 237.06C376.998 238.86 376.408 240.31 375.228 241.41C374.048 242.51 372.278 243.06 369.918 243.06H365.688V252H363.588V231.03H369.918C372.258 231.03 374.018 231.58 375.198 232.68C376.398 233.78 376.998 235.24 376.998 237.06ZM369.918 241.26C373.198 241.26 374.838 239.86 374.838 237.06C374.838 235.66 374.448 234.6 373.668 233.88C372.888 233.16 371.638 232.8 369.918 232.8H365.688V241.26H369.918ZM382.621 250.29H390.151V252H380.521V231.03H382.621V250.29ZM395.248 231.03V252H393.148V231.03H395.248ZM399.044 241.5C399.044 239.44 399.494 237.6 400.394 235.98C401.294 234.34 402.524 233.07 404.084 232.17C405.644 231.25 407.384 230.79 409.304 230.79C411.644 230.79 413.644 231.35 415.304 232.47C416.984 233.57 418.204 235.13 418.964 237.15H416.504C415.904 235.73 414.984 234.62 413.744 233.82C412.524 233.02 411.044 232.62 409.304 232.62C407.764 232.62 406.374 232.98 405.134 233.7C403.914 234.42 402.954 235.46 402.254 236.82C401.554 238.16 401.204 239.72 401.204 241.5C401.204 243.28 401.554 244.84 402.254 246.18C402.954 247.52 403.914 248.55 405.134 249.27C406.374 249.99 407.764 250.35 409.304 250.35C411.044 250.35 412.524 249.96 413.744 249.18C414.984 248.38 415.904 247.28 416.504 245.88H418.964C418.204 247.88 416.984 249.43 415.304 250.53C413.624 251.63 411.624 252.18 409.304 252.18C407.384 252.18 405.644 251.73 404.084 250.83C402.524 249.91 401.294 248.64 400.394 247.02C399.494 245.4 399.044 243.56 399.044 241.5ZM435.298 247.02H425.758L423.928 252H421.708L429.358 231.3H431.728L439.348 252H437.128L435.298 247.02ZM434.668 245.28L430.528 233.94L426.388 245.28H434.668ZM454.988 231.03V232.77H449.168V252H447.068V232.77H441.218V231.03H454.988ZM460.404 231.03V252H458.304V231.03H460.404ZM474.58 252.21C472.64 252.21 470.88 251.76 469.3 250.86C467.72 249.94 466.47 248.67 465.55 247.05C464.65 245.41 464.2 243.56 464.2 241.5C464.2 239.44 464.65 237.6 465.55 235.98C466.47 234.34 467.72 233.07 469.3 232.17C470.88 231.25 472.64 230.79 474.58 230.79C476.54 230.79 478.31 231.25 479.89 232.17C481.47 233.07 482.71 234.34 483.61 235.98C484.51 237.6 484.96 239.44 484.96 241.5C484.96 243.56 484.51 245.41 483.61 247.05C482.71 248.67 481.47 249.94 479.89 250.86C478.31 251.76 476.54 252.21 474.58 252.21ZM474.58 250.38C476.14 250.38 477.54 250.02 478.78 249.3C480.02 248.58 481 247.55 481.72 246.21C482.44 244.85 482.8 243.28 482.8 241.5C482.8 239.72 482.44 238.16 481.72 236.82C481 235.48 480.02 234.45 478.78 233.73C477.54 233.01 476.14 232.65 474.58 232.65C473.02 232.65 471.62 233.01 470.38 233.73C469.14 234.45 468.16 235.48 467.44 236.82C466.72 238.16 466.36 239.72 466.36 241.5C466.36 243.28 466.72 244.85 467.44 246.21C468.16 247.55 469.14 248.58 470.38 249.3C471.62 250.02 473.02 250.38 474.58 250.38ZM504.612 252H502.512L490.902 234.36V252H488.802V231.03H490.902L502.512 248.64V231.03H504.612V252Z" fill="white"/>
<path d="M304.077 371.3V392H301.977V375.47L294.597 392H293.067L285.687 375.53V392H283.587V371.3H285.807L293.817 389.24L301.827 371.3H304.077ZM318.26 392.21C316.32 392.21 314.56 391.76 312.98 390.86C311.4 389.94 310.15 388.67 309.23 387.05C308.33 385.41 307.88 383.56 307.88 381.5C307.88 379.44 308.33 377.6 309.23 375.98C310.15 374.34 311.4 373.07 312.98 372.17C314.56 371.25 316.32 370.79 318.26 370.79C320.22 370.79 321.99 371.25 323.57 372.17C325.15 373.07 326.39 374.34 327.29 375.98C328.19 377.6 328.64 379.44 328.64 381.5C328.64 383.56 328.19 385.41 327.29 387.05C326.39 388.67 325.15 389.94 323.57 390.86C321.99 391.76 320.22 392.21 318.26 392.21ZM318.26 390.38C319.82 390.38 321.22 390.02 322.46 389.3C323.7 388.58 324.68 387.55 325.4 386.21C326.12 384.85 326.48 383.28 326.48 381.5C326.48 379.72 326.12 378.16 325.4 376.82C324.68 375.48 323.7 374.45 322.46 373.73C321.22 373.01 319.82 372.65 318.26 372.65C316.7 372.65 315.3 373.01 314.06 373.73C312.82 374.45 311.84 375.48 311.12 376.82C310.4 378.16 310.04 379.72 310.04 381.5C310.04 383.28 310.4 384.85 311.12 386.21C311.84 387.55 312.82 388.58 314.06 389.3C315.3 390.02 316.7 390.38 318.26 390.38ZM338.693 371.03C341.013 371.03 343.003 371.45 344.663 372.29C346.323 373.13 347.593 374.34 348.473 375.92C349.353 377.5 349.793 379.38 349.793 381.56C349.793 383.72 349.353 385.59 348.473 387.17C347.593 388.73 346.323 389.93 344.663 390.77C343.003 391.59 341.013 392 338.693 392H332.483V371.03H338.693ZM338.693 390.26C341.613 390.26 343.833 389.5 345.353 387.98C346.893 386.44 347.663 384.3 347.663 381.56C347.663 378.8 346.893 376.65 345.353 375.11C343.833 373.55 341.613 372.77 338.693 372.77H334.583V390.26H338.693ZM355.675 371.03V384.23C355.675 386.31 356.165 387.85 357.145 388.85C358.145 389.85 359.505 390.35 361.225 390.35C362.945 390.35 364.285 389.86 365.245 388.88C366.225 387.88 366.715 386.33 366.715 384.23V371.03H368.815V384.2C368.815 386.86 368.105 388.86 366.685 390.2C365.285 391.54 363.455 392.21 361.195 392.21C358.935 392.21 357.095 391.54 355.675 390.2C354.275 388.86 353.575 386.86 353.575 384.2V371.03H355.675ZM375.599 390.29H383.129V392H373.499V371.03H375.599V390.29ZM388.226 372.74V380.57H396.176V382.31H388.226V390.26H397.076V392H386.126V371H397.076V372.74H388.226Z" fill="white"/>
<path d="M289.66 301.03C291.98 301.03 293.97 301.45 295.63 302.29C297.29 303.13 298.56 304.34 299.44 305.92C300.32 307.5 300.76 309.38 300.76 311.56C300.76 313.72 300.32 315.59 299.44 317.17C298.56 318.73 297.29 319.93 295.63 320.77C293.97 321.59 291.98 322 289.66 322H283.45V301.03H289.66ZM289.66 320.26C292.58 320.26 294.8 319.5 296.32 317.98C297.86 316.44 298.63 314.3 298.63 311.56C298.63 308.8 297.86 306.65 296.32 305.11C294.8 303.55 292.58 302.77 289.66 302.77H285.55V320.26H289.66ZM306.731 301.03V322H304.631V301.03H306.731ZM328.107 301.03L320.157 322H317.757L309.807 301.03H312.087L318.957 319.72L325.887 301.03H328.107ZM333.362 301.03V322H331.262V301.03H333.362ZM344.478 322.21C343.098 322.21 341.878 321.97 340.818 321.49C339.778 321.01 338.958 320.34 338.358 319.48C337.758 318.62 337.438 317.66 337.398 316.6H339.618C339.718 317.62 340.168 318.52 340.968 319.3C341.768 320.06 342.938 320.44 344.478 320.44C345.898 320.44 347.018 320.08 347.838 319.36C348.678 318.62 349.098 317.69 349.098 316.57C349.098 315.67 348.868 314.95 348.408 314.41C347.948 313.85 347.378 313.44 346.698 313.18C346.018 312.9 345.078 312.6 343.878 312.28C342.478 311.9 341.368 311.53 340.548 311.17C339.728 310.81 339.028 310.25 338.448 309.49C337.868 308.73 337.578 307.7 337.578 306.4C337.578 305.32 337.858 304.36 338.418 303.52C338.978 302.66 339.768 301.99 340.788 301.51C341.808 301.03 342.978 300.79 344.298 300.79C346.238 300.79 347.798 301.27 348.978 302.23C350.178 303.17 350.868 304.39 351.048 305.89H348.768C348.628 305.03 348.158 304.27 347.358 303.61C346.558 302.93 345.478 302.59 344.118 302.59C342.858 302.59 341.808 302.93 340.968 303.61C340.128 304.27 339.708 305.18 339.708 306.34C339.708 307.22 339.938 307.93 340.398 308.47C340.858 309.01 341.428 309.42 342.108 309.7C342.808 309.98 343.748 310.28 344.928 310.6C346.288 310.98 347.388 311.36 348.228 311.74C349.068 312.1 349.778 312.66 350.358 313.42C350.938 314.18 351.228 315.2 351.228 316.48C351.228 317.46 350.968 318.39 350.448 319.27C349.928 320.15 349.158 320.86 348.138 321.4C347.118 321.94 345.898 322.21 344.478 322.21ZM357.386 301.03V322H355.286V301.03H357.386ZM371.561 322.21C369.621 322.21 367.861 321.76 366.281 320.86C364.701 319.94 363.451 318.67 362.531 317.05C361.631 315.41 361.181 313.56 361.181 311.5C361.181 309.44 361.631 307.6 362.531 305.98C363.451 304.34 364.701 303.07 366.281 302.17C367.861 301.25 369.621 300.79 371.561 300.79C373.521 300.79 375.291 301.25 376.871 302.17C378.451 303.07 379.691 304.34 380.591 305.98C381.491 307.6 381.941 309.44 381.941 311.5C381.941 313.56 381.491 315.41 380.591 317.05C379.691 318.67 378.451 319.94 376.871 320.86C375.291 321.76 373.521 322.21 371.561 322.21ZM371.561 320.38C373.121 320.38 374.521 320.02 375.761 319.3C377.001 318.58 377.981 317.55 378.701 316.21C379.421 314.85 379.781 313.28 379.781 311.5C379.781 309.72 379.421 308.16 378.701 306.82C377.981 305.48 377.001 304.45 375.761 303.73C374.521 303.01 373.121 302.65 371.561 302.65C370.001 302.65 368.601 303.01 367.361 303.73C366.121 304.45 365.141 305.48 364.421 306.82C363.701 308.16 363.341 309.72 363.341 311.5C363.341 313.28 363.701 314.85 364.421 316.21C365.141 317.55 366.121 318.58 367.361 319.3C368.601 320.02 370.001 320.38 371.561 320.38ZM401.594 322H399.494L387.884 304.36V322H385.784V301.03H387.884L399.494 318.64V301.03H401.594V322Z" fill="white"/>
<path d="M552.242 165.98C552.382 164.16 553.082 162.73 554.342 161.69C555.622 160.63 557.272 160.1 559.292 160.1C560.632 160.1 561.782 160.34 562.742 160.82C563.702 161.3 564.422 161.96 564.902 162.8C565.402 163.62 565.652 164.55 565.652 165.59C565.652 166.85 565.282 167.94 564.542 168.86C563.802 169.78 562.752 170.35 561.392 170.57V170.72C562.812 171 563.942 171.62 564.782 172.58C565.622 173.52 566.042 174.76 566.042 176.3C566.042 178.02 565.462 179.43 564.302 180.53C563.162 181.61 561.502 182.15 559.322 182.15C557.242 182.15 555.532 181.61 554.192 180.53C552.852 179.43 552.082 177.88 551.882 175.88H553.922C554.102 177.22 554.662 178.31 555.602 179.15C556.542 179.97 557.782 180.38 559.322 180.38C560.842 180.38 562.002 179.98 562.802 179.18C563.622 178.38 564.032 177.36 564.032 176.12C564.032 173.08 561.842 171.56 557.462 171.56H556.802V169.79H557.492C561.572 169.79 563.612 168.46 563.612 165.8C563.612 164.64 563.232 163.71 562.472 163.01C561.712 162.29 560.632 161.93 559.232 161.93C557.872 161.93 556.742 162.29 555.842 163.01C554.962 163.71 554.442 164.7 554.282 165.98H552.242ZM588.733 170V171.77H577.063V170H588.733ZM601.482 180.35C605.162 177.59 608.002 175.12 610.002 172.94C612.022 170.74 613.032 168.59 613.032 166.49C613.032 165.11 612.682 164.01 611.982 163.19C611.302 162.35 610.182 161.93 608.622 161.93C607.102 161.93 605.922 162.41 605.082 163.37C604.262 164.31 603.802 165.57 603.702 167.15H601.662C601.782 164.93 602.462 163.21 603.702 161.99C604.962 160.75 606.602 160.13 608.622 160.13C610.562 160.13 612.132 160.68 613.332 161.78C614.532 162.86 615.132 164.4 615.132 166.4C615.132 168.82 614.122 171.17 612.102 173.45C610.102 175.71 607.632 177.92 604.692 180.08H615.792V181.85H601.482V180.35ZM643.143 166.94V168.74H627.843V166.94H643.143ZM643.143 173.06V174.83H627.843V173.06H643.143ZM654.788 162.38V160.49H659.888V182H657.758V162.38H654.788Z" fill="white"/>
<path d="M551.605 250.35C555.285 247.59 558.125 245.12 560.125 242.94C562.145 240.74 563.155 238.59 563.155 236.49C563.155 235.11 562.805 234.01 562.105 233.19C561.425 232.35 560.305 231.93 558.745 231.93C557.225 231.93 556.045 232.41 555.205 233.37C554.385 234.31 553.925 235.57 553.825 237.15H551.785C551.905 234.93 552.585 233.21 553.825 231.99C555.085 230.75 556.725 230.13 558.745 230.13C560.685 230.13 562.255 230.68 563.455 231.78C564.655 232.86 565.255 234.4 565.255 236.4C565.255 238.82 564.245 241.17 562.225 243.45C560.225 245.71 557.755 247.92 554.815 250.08H565.915V251.85H551.605V250.35ZM586.936 232.14L587.776 233.67L583.546 235.59L587.806 237.51L586.936 239.07L583.066 236.49L583.426 241.2H581.686L582.016 236.49L578.146 239.1L577.246 237.51L581.506 235.59L577.276 233.7L578.146 232.14L582.046 234.75L581.686 230.04H583.456L583.066 234.75L586.936 232.14ZM599.631 235.98C599.771 234.16 600.471 232.73 601.731 231.69C603.011 230.63 604.661 230.1 606.681 230.1C608.021 230.1 609.171 230.34 610.131 230.82C611.091 231.3 611.811 231.96 612.291 232.8C612.791 233.62 613.041 234.55 613.041 235.59C613.041 236.85 612.671 237.94 611.931 238.86C611.191 239.78 610.141 240.35 608.781 240.57V240.72C610.201 241 611.331 241.62 612.171 242.58C613.011 243.52 613.431 244.76 613.431 246.3C613.431 248.02 612.851 249.43 611.691 250.53C610.551 251.61 608.891 252.15 606.711 252.15C604.631 252.15 602.921 251.61 601.581 250.53C600.241 249.43 599.471 247.88 599.271 245.88H601.311C601.491 247.22 602.051 248.31 602.991 249.15C603.931 249.97 605.171 250.38 606.711 250.38C608.231 250.38 609.391 249.98 610.191 249.18C611.011 248.38 611.421 247.36 611.421 246.12C611.421 243.08 609.231 241.56 604.851 241.56H604.191V239.79H604.881C608.961 239.79 611.001 238.46 611.001 235.8C611.001 234.64 610.621 233.71 609.861 233.01C609.101 232.29 608.021 231.93 606.621 231.93C605.261 231.93 604.131 232.29 603.231 233.01C602.351 233.71 601.831 234.7 601.671 235.98H599.631ZM641.342 236.94V238.74H626.042V236.94H641.342ZM641.342 243.06V244.83H626.042V243.06H641.342ZM666.368 235.74C665.928 233.14 664.418 231.84 661.838 231.84C659.878 231.84 658.408 232.6 657.428 234.12C656.448 235.64 655.998 238.13 656.078 241.59C656.478 240.39 657.238 239.45 658.358 238.77C659.498 238.07 660.798 237.72 662.258 237.72C664.358 237.72 666.018 238.37 667.238 239.67C668.478 240.95 669.098 242.72 669.098 244.98C669.098 246.3 668.838 247.5 668.318 248.58C667.818 249.64 667.038 250.49 665.978 251.13C664.938 251.77 663.638 252.09 662.078 252.09C659.098 252.09 657.038 251.14 655.898 249.24C654.778 247.34 654.218 244.65 654.218 241.17C654.218 233.77 656.758 230.07 661.838 230.07C663.758 230.07 665.268 230.6 666.368 231.66C667.468 232.7 668.118 234.06 668.318 235.74H666.368ZM661.868 239.52C660.928 239.52 660.038 239.71 659.198 240.09C658.358 240.47 657.668 241.05 657.128 241.83C656.608 242.59 656.348 243.53 656.348 244.65C656.348 246.27 656.828 247.62 657.788 248.7C658.748 249.78 660.148 250.32 661.988 250.32C663.528 250.32 664.758 249.85 665.678 248.91C666.598 247.97 667.058 246.69 667.058 245.07C667.058 243.33 666.608 241.97 665.708 240.99C664.808 240.01 663.528 239.52 661.868 239.52Z" fill="white"/>
<path d="M551.243 302.38V300.49H556.343V322H554.213V302.38H551.243ZM561.022 311.05C561.022 307.61 561.552 304.94 562.612 303.04C563.672 301.14 565.572 300.19 568.312 300.19C571.052 300.19 572.952 301.14 574.012 303.04C575.072 304.94 575.602 307.61 575.602 311.05C575.602 314.55 575.072 317.26 574.012 319.18C572.952 321.1 571.052 322.06 568.312 322.06C565.552 322.06 563.642 321.1 562.582 319.18C561.542 317.26 561.022 314.55 561.022 311.05ZM573.532 311.05C573.532 309.19 573.402 307.62 573.142 306.34C572.882 305.06 572.372 304.03 571.612 303.25C570.852 302.47 569.752 302.08 568.312 302.08C566.872 302.08 565.772 302.47 565.012 303.25C564.252 304.03 563.742 305.06 563.482 306.34C563.222 307.62 563.092 309.19 563.092 311.05C563.092 312.97 563.222 314.58 563.482 315.88C563.742 317.16 564.252 318.19 565.012 318.97C565.772 319.75 566.872 320.14 568.312 320.14C569.752 320.14 570.852 319.75 571.612 318.97C572.372 318.19 572.882 317.16 573.142 315.88C573.402 314.58 573.532 312.97 573.532 311.05ZM597.521 293.8L589.241 326.98H587.171L595.391 293.8H597.521ZM608.796 320.35C612.476 317.59 615.316 315.12 617.316 312.94C619.336 310.74 620.346 308.59 620.346 306.49C620.346 305.11 619.996 304.01 619.296 303.19C618.616 302.35 617.496 301.93 615.936 301.93C614.416 301.93 613.236 302.41 612.396 303.37C611.576 304.31 611.116 305.57 611.016 307.15H608.976C609.096 304.93 609.776 303.21 611.016 301.99C612.276 300.75 613.916 300.13 615.936 300.13C617.876 300.13 619.446 300.68 620.646 301.78C621.846 302.86 622.446 304.4 622.446 306.4C622.446 308.82 621.436 311.17 619.416 313.45C617.416 315.71 614.946 317.92 612.006 320.08H623.106V321.85H608.796V320.35ZM650.456 306.94V308.74H635.156V306.94H650.456ZM650.456 313.06V314.83H635.156V313.06H650.456ZM676.682 302.29H665.702V309.97C666.202 309.27 666.932 308.7 667.892 308.26C668.852 307.8 669.892 307.57 671.012 307.57C672.652 307.57 673.992 307.91 675.032 308.59C676.072 309.25 676.822 310.12 677.282 311.2C677.742 312.26 677.972 313.4 677.972 314.62C677.972 316.02 677.702 317.29 677.162 318.43C676.642 319.55 675.832 320.44 674.732 321.1C673.652 321.76 672.302 322.09 670.682 322.09C668.622 322.09 666.952 321.56 665.672 320.5C664.392 319.42 663.612 317.97 663.332 316.15H665.402C665.662 317.47 666.262 318.49 667.202 319.21C668.142 319.93 669.302 320.29 670.682 320.29C672.422 320.29 673.732 319.78 674.612 318.76C675.512 317.72 675.962 316.35 675.962 314.65C675.962 312.99 675.512 311.7 674.612 310.78C673.712 309.84 672.422 309.37 670.742 309.37C669.582 309.37 668.562 309.64 667.682 310.18C666.802 310.72 666.152 311.45 665.732 312.37H663.752V300.46H676.682V302.29Z" fill="white"/>
<path d="M565.803 372.29H554.823V379.97C555.323 379.27 556.053 378.7 557.013 378.26C557.973 377.8 559.013 377.57 560.133 377.57C561.773 377.57 563.113 377.91 564.153 378.59C565.193 379.25 565.943 380.12 566.403 381.2C566.863 382.26 567.093 383.4 567.093 384.62C567.093 386.02 566.823 387.29 566.283 388.43C565.763 389.55 564.953 390.44 563.853 391.1C562.773 391.76 561.423 392.09 559.803 392.09C557.743 392.09 556.073 391.56 554.793 390.5C553.513 389.42 552.733 387.97 552.453 386.15H554.523C554.783 387.47 555.383 388.49 556.323 389.21C557.263 389.93 558.423 390.29 559.803 390.29C561.543 390.29 562.853 389.78 563.733 388.76C564.633 387.72 565.083 386.35 565.083 384.65C565.083 382.99 564.633 381.7 563.733 380.78C562.833 379.84 561.543 379.37 559.863 379.37C558.703 379.37 557.683 379.64 556.803 380.18C555.923 380.72 555.273 381.45 554.853 382.37H552.873V370.46H565.803V372.29ZM578.331 374.99C578.331 373.71 578.721 372.68 579.501 371.9C580.301 371.1 581.311 370.7 582.531 370.7C583.771 370.7 584.781 371.1 585.561 371.9C586.361 372.68 586.761 373.71 586.761 374.99C586.761 376.29 586.361 377.34 585.561 378.14C584.781 378.92 583.771 379.31 582.531 379.31C581.311 379.31 580.301 378.92 579.501 378.14C578.721 377.34 578.331 376.29 578.331 374.99ZM595.131 371L582.831 392H580.701L593.031 371H595.131ZM582.531 372.05C581.771 372.05 581.161 372.31 580.701 372.83C580.261 373.33 580.041 374.05 580.041 374.99C580.041 375.93 580.261 376.66 580.701 377.18C581.161 377.7 581.771 377.96 582.531 377.96C583.291 377.96 583.901 377.7 584.361 377.18C584.821 376.66 585.051 375.93 585.051 374.99C585.051 374.07 584.821 373.35 584.361 372.83C583.901 372.31 583.291 372.05 582.531 372.05ZM589.131 388.01C589.131 386.71 589.521 385.67 590.301 384.89C591.101 384.09 592.111 383.69 593.331 383.69C594.551 383.69 595.551 384.09 596.331 384.89C597.131 385.67 597.531 386.71 597.531 388.01C597.531 389.31 597.131 390.36 596.331 391.16C595.551 391.94 594.551 392.33 593.331 392.33C592.111 392.33 591.101 391.94 590.301 391.16C589.521 390.36 589.131 389.31 589.131 388.01ZM593.331 385.07C592.571 385.07 591.961 385.33 591.501 385.85C591.041 386.37 590.811 387.09 590.811 388.01C590.811 388.93 591.041 389.65 591.501 390.17C591.961 390.69 592.571 390.95 593.331 390.95C594.091 390.95 594.691 390.7 595.131 390.2C595.591 389.68 595.821 388.95 595.821 388.01C595.821 387.07 595.591 386.35 595.131 385.85C594.691 385.33 594.091 385.07 593.331 385.07ZM608.571 390.35C612.251 387.59 615.091 385.12 617.091 382.94C619.111 380.74 620.121 378.59 620.121 376.49C620.121 375.11 619.771 374.01 619.071 373.19C618.391 372.35 617.271 371.93 615.711 371.93C614.191 371.93 613.011 372.41 612.171 373.37C611.351 374.31 610.891 375.57 610.791 377.15H608.751C608.871 374.93 609.551 373.21 610.791 371.99C612.051 370.75 613.691 370.13 615.711 370.13C617.651 370.13 619.221 370.68 620.421 371.78C621.621 372.86 622.221 374.4 622.221 376.4C622.221 378.82 621.211 381.17 619.191 383.45C617.191 385.71 614.721 387.92 611.781 390.08H622.881V391.85H608.571V390.35ZM650.231 376.94V378.74H634.931V376.94H650.231ZM650.231 383.06V384.83H634.931V383.06H650.231ZM661.877 372.38V370.49H666.977V392H664.847V372.38H661.877Z" fill="white"/>
<path d="M551.259 459.9V458.31L562.179 443.61H564.669V458.07H567.879V459.9H564.669V465H562.599V459.9H551.259ZM562.689 445.92L553.689 458.07H562.689V445.92ZM588.33 445.14L589.17 446.67L584.94 448.59L589.2 450.51L588.33 452.07L584.46 449.49L584.82 454.2H583.08L583.41 449.49L579.54 452.1L578.64 450.51L582.9 448.59L578.67 446.7L579.54 445.14L583.44 447.75L583.08 443.04H584.85L584.46 447.75L588.33 445.14ZM602.393 445.14L603.233 446.67L599.003 448.59L603.263 450.51L602.393 452.07L598.523 449.49L598.883 454.2H597.143L597.473 449.49L593.603 452.1L592.703 450.51L596.963 448.59L592.733 446.7L593.603 445.14L597.503 447.75L597.143 443.04H598.913L598.523 447.75L602.393 445.14ZM614.758 463.35C618.438 460.59 621.278 458.12 623.278 455.94C625.298 453.74 626.308 451.59 626.308 449.49C626.308 448.11 625.958 447.01 625.258 446.19C624.578 445.35 623.458 444.93 621.898 444.93C620.378 444.93 619.198 445.41 618.358 446.37C617.538 447.31 617.078 448.57 616.978 450.15H614.938C615.058 447.93 615.738 446.21 616.978 444.99C618.238 443.75 619.878 443.13 621.898 443.13C623.838 443.13 625.408 443.68 626.608 444.78C627.808 445.86 628.408 447.4 628.408 449.4C628.408 451.82 627.398 454.17 625.378 456.45C623.378 458.71 620.908 460.92 617.968 463.08H629.068V464.85H614.758V463.35ZM656.418 449.94V451.74H641.118V449.94H656.418ZM656.418 456.06V457.83H641.118V456.06H656.418ZM668.064 445.38V443.49H673.164V465H671.034V445.38H668.064ZM690.204 448.74C689.764 446.14 688.254 444.84 685.674 444.84C683.714 444.84 682.244 445.6 681.264 447.12C680.284 448.64 679.834 451.13 679.914 454.59C680.314 453.39 681.074 452.45 682.194 451.77C683.334 451.07 684.634 450.72 686.094 450.72C688.194 450.72 689.854 451.37 691.074 452.67C692.314 453.95 692.934 455.72 692.934 457.98C692.934 459.3 692.674 460.5 692.154 461.58C691.654 462.64 690.874 463.49 689.814 464.13C688.774 464.77 687.474 465.09 685.914 465.09C682.934 465.09 680.874 464.14 679.734 462.24C678.614 460.34 678.054 457.65 678.054 454.17C678.054 446.77 680.594 443.07 685.674 443.07C687.594 443.07 689.104 443.6 690.204 444.66C691.304 445.7 691.954 447.06 692.154 448.74H690.204ZM685.704 452.52C684.764 452.52 683.874 452.71 683.034 453.09C682.194 453.47 681.504 454.05 680.964 454.83C680.444 455.59 680.184 456.53 680.184 457.65C680.184 459.27 680.664 460.62 681.624 461.7C682.584 462.78 683.984 463.32 685.824 463.32C687.364 463.32 688.594 462.85 689.514 461.91C690.434 460.97 690.894 459.69 690.894 458.07C690.894 456.33 690.444 454.97 689.544 453.99C688.644 453.01 687.364 452.52 685.704 452.52Z" fill="white"/>
<path d="M42.6846 447.15L44.3646 450.21L40.6746 451.5L44.3646 452.76L42.5646 455.94L39.5646 453.3L40.3146 457.2H36.8046L37.5246 453.3L34.5546 455.97L32.6946 452.73L36.3846 451.44L32.7246 450.24L34.4346 447.15L37.5546 449.76L36.7746 445.8H40.3446L39.5646 449.76L42.6846 447.15ZM58.71 447.15L60.39 450.21L56.7 451.5L60.39 452.76L58.59 455.94L55.59 453.3L56.34 457.2H52.83L53.55 453.3L50.58 455.97L48.72 452.73L52.41 451.44L48.75 450.24L50.46 447.15L53.58 449.76L52.8 445.8H56.37L55.59 449.76L58.71 447.15Z" fill="white"/>
<line x1="1" y1="415.5" x2="750" y2="415.5" stroke="#C3C3C3" stroke-width="3"/>
<path d="M296.848 450.06C296.848 451.86 296.258 453.31 295.078 454.41C293.898 455.51 292.128 456.06 289.768 456.06H285.538V465H283.438V444.03H289.768C292.108 444.03 293.868 444.58 295.048 445.68C296.248 446.78 296.848 448.24 296.848 450.06ZM289.768 454.26C293.048 454.26 294.688 452.86 294.688 450.06C294.688 448.66 294.298 447.6 293.518 446.88C292.738 446.16 291.488 445.8 289.768 445.8H285.538V454.26H289.768ZM309.792 465.21C307.852 465.21 306.092 464.76 304.512 463.86C302.932 462.94 301.682 461.67 300.762 460.05C299.862 458.41 299.412 456.56 299.412 454.5C299.412 452.44 299.862 450.6 300.762 448.98C301.682 447.34 302.932 446.07 304.512 445.17C306.092 444.25 307.852 443.79 309.792 443.79C311.752 443.79 313.522 444.25 315.102 445.17C316.682 446.07 317.922 447.34 318.822 448.98C319.722 450.6 320.172 452.44 320.172 454.5C320.172 456.56 319.722 458.41 318.822 460.05C317.922 461.67 316.682 462.94 315.102 463.86C313.522 464.76 311.752 465.21 309.792 465.21ZM309.792 463.38C311.352 463.38 312.752 463.02 313.992 462.3C315.232 461.58 316.212 460.55 316.932 459.21C317.652 457.85 318.012 456.28 318.012 454.5C318.012 452.72 317.652 451.16 316.932 449.82C316.212 448.48 315.232 447.45 313.992 446.73C312.752 446.01 311.352 445.65 309.792 445.65C308.232 445.65 306.832 446.01 305.592 446.73C304.352 447.45 303.372 448.48 302.652 449.82C301.932 451.16 301.572 452.72 301.572 454.5C301.572 456.28 301.932 457.85 302.652 459.21C303.372 460.55 304.352 461.58 305.592 462.3C306.832 463.02 308.232 463.38 309.792 463.38ZM349.454 444.03L343.514 465H341.174L335.894 447.12L330.494 465L328.214 465.03L322.394 444.03H324.644L329.444 462.42L334.814 444.03H337.154L342.374 462.42L347.204 444.03H349.454ZM354.767 445.74V453.57H362.717V455.31H354.767V463.26H363.617V465H352.667V444H363.617V445.74H354.767ZM378.914 465L373.724 456.24H369.854V465H367.754V444.03H374.054C376.394 444.03 378.164 444.59 379.364 445.71C380.584 446.83 381.194 448.3 381.194 450.12C381.194 451.64 380.754 452.94 379.874 454.02C379.014 455.08 377.734 455.77 376.034 456.09L381.434 465H378.914ZM369.854 454.53H374.084C375.724 454.53 376.954 454.13 377.774 453.33C378.614 452.53 379.034 451.46 379.034 450.12C379.034 448.74 378.634 447.68 377.834 446.94C377.034 446.18 375.774 445.8 374.054 445.8H369.854V454.53Z" fill="white"/>
</svg>
