<svg width="750" height="417" viewBox="0 0 750 417" fill="none" xmlns="http://www.w3.org/2000/svg">
<rect width="750" height="414" rx="25" fill="#F9975E"/>
<rect x="1" width="749" height="414" rx="25" fill="#C3C3C3"/>
<path d="M0 25C0 11.1929 11.1929 0 25 0H225C238.807 0 250 11.1929 250 25V86C250 99.8071 238.807 111 225 111H25C11.1929 111 0 99.8071 0 86V25Z" fill="#0061AE"/>
<path d="M228 0H508V69H228V0Z" fill="#0061AE"/>
<path d="M489 25C489 11.1929 500.193 0 514 0H725C738.807 0 750 11.1929 750 25V81C750 94.8071 738.807 106 725 106H514C500.193 106 489 94.8071 489 81V25Z" fill="#0061AE"/>
<rect y="69" width="333" height="345" rx="25" fill="#F9975E"/>
<rect x="250" y="69" width="249.667" height="345" fill="#F9975E"/>
<path d="M476 94C476 80.1929 487.193 69 501 69H724C737.807 69 749 80.1929 749 94V389C749 402.807 737.807 414 724 414H501C487.193 414 476 402.807 476 389V94Z" fill="#F9975E"/>
<line x1="251.5" x2="251.5" y2="414" stroke="#C3C3C3" stroke-width="3"/>
<line x1="501.5" x2="501.5" y2="414" stroke="#C3C3C3" stroke-width="3"/>
<line y1="67.5" x2="750" y2="67.5" stroke="#C3C3C3" stroke-width="3"/>
<line y1="136.5" x2="749" y2="136.5" stroke="#C3C3C3" stroke-width="3"/>
<line x1="1" y1="205.5" x2="750" y2="205.5" stroke="#C3C3C3" stroke-width="3"/>
<line y1="275.5" x2="749" y2="275.5" stroke="#C3C3C3" stroke-width="3"/>
<path d="M0 347.5H749" stroke="#C3C3C3" stroke-width="3"/>
<rect y="69" width="250" height="55" fill="#F9975E"/>
<path d="M508 69H750V106H508V69Z" fill="#F9975E"/>
<path d="M543.313 116H541.213L529.603 98.36V116H527.503V95.03H529.603L541.213 112.64V95.03H543.313V116ZM557.489 116.21C555.549 116.21 553.789 115.76 552.209 114.86C550.629 113.94 549.379 112.67 548.459 111.05C547.559 109.41 547.109 107.56 547.109 105.5C547.109 103.44 547.559 101.6 548.459 99.98C549.379 98.34 550.629 97.07 552.209 96.17C553.789 95.25 555.549 94.79 557.489 94.79C559.449 94.79 561.219 95.25 562.799 96.17C564.379 97.07 565.619 98.34 566.519 99.98C567.419 101.6 567.869 103.44 567.869 105.5C567.869 107.56 567.419 109.41 566.519 111.05C565.619 112.67 564.379 113.94 562.799 114.86C561.219 115.76 559.449 116.21 557.489 116.21ZM557.489 114.38C559.049 114.38 560.449 114.02 561.689 113.3C562.929 112.58 563.909 111.55 564.629 110.21C565.349 108.85 565.709 107.28 565.709 105.5C565.709 103.72 565.349 102.16 564.629 100.82C563.909 99.48 562.929 98.45 561.689 97.73C560.449 97.01 559.049 96.65 557.489 96.65C555.929 96.65 554.529 97.01 553.289 97.73C552.049 98.45 551.069 99.48 550.349 100.82C549.629 102.16 549.269 103.72 549.269 105.5C549.269 107.28 549.629 108.85 550.349 110.21C551.069 111.55 552.049 112.58 553.289 113.3C554.529 114.02 555.929 114.38 557.489 114.38ZM583.982 95.03V96.77H578.162V116H576.062V96.77H570.212V95.03H583.982Z" fill="white"/>
<path d="M41.8841 23.15V25.94H36.3341V44H32.9141V25.94H27.3341V23.15H41.8841ZM60.7977 23.15L53.8977 36.44V44H50.4777V36.44L43.5477 23.15H47.3577L52.1877 33.38L57.0177 23.15H60.7977ZM78.0917 29.36C78.0917 30.42 77.8417 31.42 77.3417 32.36C76.8417 33.3 76.0417 34.07 74.9417 34.67C73.8417 35.25 72.4317 35.54 70.7117 35.54H66.9317V44H63.5117V23.15H70.7117C72.3117 23.15 73.6617 23.43 74.7617 23.99C75.8817 24.53 76.7117 25.27 77.2517 26.21C77.8117 27.15 78.0917 28.2 78.0917 29.36ZM70.7117 32.75C72.0117 32.75 72.9817 32.46 73.6217 31.88C74.2617 31.28 74.5817 30.44 74.5817 29.36C74.5817 27.08 73.2917 25.94 70.7117 25.94H66.9317V32.75H70.7117ZM84.7735 25.91V32.03H91.9735V34.82H84.7735V41.21H92.8735V44H81.3535V23.12H92.8735V25.91H84.7735Z" fill="white"/>
<path d="M46.501 116H44.401L32.791 98.36V116H30.691V95.03H32.791L44.401 112.64V95.03H46.501V116ZM53.2674 95.03V108.23C53.2674 110.31 53.7574 111.85 54.7374 112.85C55.7374 113.85 57.0974 114.35 58.8174 114.35C60.5374 114.35 61.8774 113.86 62.8374 112.88C63.8174 111.88 64.3074 110.33 64.3074 108.23V95.03H66.4074V108.2C66.4074 110.86 65.6974 112.86 64.2774 114.2C62.8774 115.54 61.0474 116.21 58.7874 116.21C56.5274 116.21 54.6874 115.54 53.2674 114.2C51.8674 112.86 51.1674 110.86 51.1674 108.2V95.03H53.2674ZM91.5814 95.3V116H89.4814V99.47L82.1014 116H80.5714L73.1914 99.53V116H71.0914V95.3H73.3114L81.3214 113.24L89.3314 95.3H91.5814ZM106.155 105.17C107.335 105.39 108.335 105.99 109.155 106.97C109.975 107.95 110.385 109.09 110.385 110.39C110.385 111.45 110.115 112.41 109.575 113.27C109.055 114.11 108.285 114.78 107.265 115.28C106.245 115.76 105.025 116 103.605 116H96.3453V95.03H103.395C105.515 95.03 107.125 95.52 108.225 96.5C109.345 97.48 109.905 98.75 109.905 100.31C109.905 101.61 109.555 102.67 108.855 103.49C108.155 104.29 107.255 104.85 106.155 105.17ZM98.4453 104.3H103.335C104.755 104.3 105.845 103.97 106.605 103.31C107.385 102.63 107.775 101.7 107.775 100.52C107.775 99.36 107.385 98.45 106.605 97.79C105.845 97.13 104.725 96.8 103.245 96.8H98.4453V104.3ZM103.455 114.23C104.975 114.23 106.155 113.87 106.995 113.15C107.855 112.43 108.285 111.44 108.285 110.18C108.285 108.92 107.835 107.92 106.935 107.18C106.055 106.42 104.865 106.04 103.365 106.04H98.4453V114.23H103.455ZM116.346 96.74V104.57H124.296V106.31H116.346V114.26H125.196V116H114.246V95H125.196V96.74H116.346ZM140.494 116L135.304 107.24H131.434V116H129.334V95.03H135.634C137.974 95.03 139.744 95.59 140.944 96.71C142.164 97.83 142.774 99.3 142.774 101.12C142.774 102.64 142.334 103.94 141.454 105.02C140.594 106.08 139.314 106.77 137.614 107.09L143.014 116H140.494ZM131.434 105.53H135.664C137.304 105.53 138.534 105.13 139.354 104.33C140.194 103.53 140.614 102.46 140.614 101.12C140.614 99.74 140.214 98.68 139.414 97.94C138.614 97.18 137.354 96.8 135.634 96.8H131.434V105.53ZM153.301 116.21C151.921 116.21 150.701 115.97 149.641 115.49C148.601 115.01 147.781 114.34 147.181 113.48C146.581 112.62 146.261 111.66 146.221 110.6H148.441C148.541 111.62 148.991 112.52 149.791 113.3C150.591 114.06 151.761 114.44 153.301 114.44C154.721 114.44 155.841 114.08 156.661 113.36C157.501 112.62 157.921 111.69 157.921 110.57C157.921 109.67 157.691 108.95 157.231 108.41C156.771 107.85 156.201 107.44 155.521 107.18C154.841 106.9 153.901 106.6 152.701 106.28C151.301 105.9 150.191 105.53 149.371 105.17C148.551 104.81 147.851 104.25 147.271 103.49C146.691 102.73 146.401 101.7 146.401 100.4C146.401 99.32 146.681 98.36 147.241 97.52C147.801 96.66 148.591 95.99 149.611 95.51C150.631 95.03 151.801 94.79 153.121 94.79C155.061 94.79 156.621 95.27 157.801 96.23C159.001 97.17 159.691 98.39 159.871 99.89H157.591C157.451 99.03 156.981 98.27 156.181 97.61C155.381 96.93 154.301 96.59 152.941 96.59C151.681 96.59 150.631 96.93 149.791 97.61C148.951 98.27 148.531 99.18 148.531 100.34C148.531 101.22 148.761 101.93 149.221 102.47C149.681 103.01 150.251 103.42 150.931 103.7C151.631 103.98 152.571 104.28 153.751 104.6C155.111 104.98 156.211 105.36 157.051 105.74C157.891 106.1 158.601 106.66 159.181 107.42C159.761 108.18 160.051 109.2 160.051 110.48C160.051 111.46 159.791 112.39 159.271 113.27C158.751 114.15 157.981 114.86 156.961 115.4C155.941 115.94 154.721 116.21 153.301 116.21Z" fill="white"/>
<path d="M271.293 33.53C271.293 31.49 271.763 29.66 272.703 28.04C273.663 26.42 274.953 25.16 276.573 24.26C278.213 23.34 280.003 22.88 281.943 22.88C284.163 22.88 286.133 23.43 287.853 24.53C289.593 25.61 290.853 27.15 291.633 29.15H287.523C286.983 28.05 286.233 27.23 285.273 26.69C284.313 26.15 283.203 25.88 281.943 25.88C280.563 25.88 279.333 26.19 278.253 26.81C277.173 27.43 276.323 28.32 275.703 29.48C275.103 30.64 274.803 31.99 274.803 33.53C274.803 35.07 275.103 36.42 275.703 37.58C276.323 38.74 277.173 39.64 278.253 40.28C279.333 40.9 280.563 41.21 281.943 41.21C283.203 41.21 284.313 40.94 285.273 40.4C286.233 39.86 286.983 39.04 287.523 37.94H291.633C290.853 39.94 289.593 41.48 287.853 42.56C286.133 43.64 284.163 44.18 281.943 44.18C279.983 44.18 278.193 43.73 276.573 42.83C274.953 41.91 273.663 40.64 272.703 39.02C271.763 37.4 271.293 35.57 271.293 33.53ZM308.206 39.74H299.476L297.976 44H294.406L301.876 23.12H305.836L313.306 44H309.706L308.206 39.74ZM307.246 36.95L303.856 27.26L300.436 36.95H307.246ZM330.024 23.15V25.94H324.474V44H321.054V25.94H315.474V23.15H330.024ZM336.907 25.91V32.03H344.107V34.82H336.907V41.21H345.007V44H333.487V23.12H345.007V25.91H336.907ZM364.31 29.15C363.77 28.11 363.02 27.33 362.06 26.81C361.1 26.27 359.99 26 358.73 26C357.35 26 356.12 26.31 355.04 26.93C353.96 27.55 353.11 28.43 352.49 29.57C351.89 30.71 351.59 32.03 351.59 33.53C351.59 35.03 351.89 36.36 352.49 37.52C353.11 38.66 353.96 39.54 355.04 40.16C356.12 40.78 357.35 41.09 358.73 41.09C360.59 41.09 362.1 40.57 363.26 39.53C364.42 38.49 365.13 37.08 365.39 35.3H357.56V32.57H369.05V35.24C368.83 36.86 368.25 38.35 367.31 39.71C366.39 41.07 365.18 42.16 363.68 42.98C362.2 43.78 360.55 44.18 358.73 44.18C356.77 44.18 354.98 43.73 353.36 42.83C351.74 41.91 350.45 40.64 349.49 39.02C348.55 37.4 348.08 35.57 348.08 33.53C348.08 31.49 348.55 29.66 349.49 28.04C350.45 26.42 351.74 25.16 353.36 24.26C355 23.34 356.79 22.88 358.73 22.88C360.95 22.88 362.92 23.43 364.64 24.53C366.38 25.61 367.64 27.15 368.42 29.15H364.31ZM381.933 44.21C379.993 44.21 378.203 43.76 376.563 42.86C374.943 41.94 373.653 40.67 372.693 39.05C371.753 37.41 371.283 35.57 371.283 33.53C371.283 31.49 371.753 29.66 372.693 28.04C373.653 26.42 374.943 25.16 376.563 24.26C378.203 23.34 379.993 22.88 381.933 22.88C383.893 22.88 385.683 23.34 387.303 24.26C388.943 25.16 390.233 26.42 391.173 28.04C392.113 29.66 392.583 31.49 392.583 33.53C392.583 35.57 392.113 37.41 391.173 39.05C390.233 40.67 388.943 41.94 387.303 42.86C385.683 43.76 383.893 44.21 381.933 44.21ZM381.933 41.24C383.313 41.24 384.543 40.93 385.623 40.31C386.703 39.67 387.543 38.77 388.143 37.61C388.763 36.43 389.073 35.07 389.073 33.53C389.073 31.99 388.763 30.64 388.143 29.48C387.543 28.32 386.703 27.43 385.623 26.81C384.543 26.19 383.313 25.88 381.933 25.88C380.553 25.88 379.323 26.19 378.243 26.81C377.163 27.43 376.313 28.32 375.693 29.48C375.093 30.64 374.793 31.99 374.793 33.53C374.793 35.07 375.093 36.43 375.693 37.61C376.313 38.77 377.163 39.67 378.243 40.31C379.323 40.93 380.553 41.24 381.933 41.24ZM406.778 44L401.978 35.66H399.368V44H395.948V23.15H403.148C404.748 23.15 406.098 23.43 407.198 23.99C408.318 24.55 409.148 25.3 409.688 26.24C410.248 27.18 410.528 28.23 410.528 29.39C410.528 30.75 410.128 31.99 409.328 33.11C408.548 34.21 407.338 34.96 405.698 35.36L410.858 44H406.778ZM399.368 32.93H403.148C404.428 32.93 405.388 32.61 406.028 31.97C406.688 31.33 407.018 30.47 407.018 29.39C407.018 28.31 406.698 27.47 406.058 26.87C405.418 26.25 404.448 25.94 403.148 25.94H399.368V32.93ZM430.353 23.15L423.453 36.44V44H420.033V36.44L413.103 23.15H416.913L421.743 33.38L426.573 23.15H430.353Z" fill="white"/>
<path d="M290.535 116H288.435L276.825 98.36V116H274.725V95.03H276.825L288.435 112.64V95.03H290.535V116ZM297.302 95.03V108.23C297.302 110.31 297.792 111.85 298.772 112.85C299.772 113.85 301.132 114.35 302.852 114.35C304.572 114.35 305.912 113.86 306.872 112.88C307.852 111.88 308.342 110.33 308.342 108.23V95.03H310.442V108.2C310.442 110.86 309.732 112.86 308.312 114.2C306.912 115.54 305.082 116.21 302.822 116.21C300.562 116.21 298.722 115.54 297.302 114.2C295.902 112.86 295.202 110.86 295.202 108.2V95.03H297.302ZM335.616 95.3V116H333.516V99.47L326.136 116H324.606L317.226 99.53V116H315.126V95.3H317.346L325.356 113.24L333.366 95.3H335.616ZM342.479 96.74V104.57H350.429V106.31H342.479V114.26H351.329V116H340.379V95H351.329V96.74H342.479ZM366.627 116L361.437 107.24H357.567V116H355.467V95.03H361.767C364.107 95.03 365.877 95.59 367.077 96.71C368.297 97.83 368.907 99.3 368.907 101.12C368.907 102.64 368.467 103.94 367.587 105.02C366.727 106.08 365.447 106.77 363.747 107.09L369.147 116H366.627ZM357.567 105.53H361.797C363.437 105.53 364.667 105.13 365.487 104.33C366.327 103.53 366.747 102.46 366.747 101.12C366.747 99.74 366.347 98.68 365.547 97.94C364.747 97.18 363.487 96.8 361.767 96.8H357.567V105.53ZM375.175 95.03V116H373.075V95.03H375.175ZM378.97 105.5C378.97 103.44 379.42 101.6 380.32 99.98C381.22 98.34 382.45 97.07 384.01 96.17C385.57 95.25 387.31 94.79 389.23 94.79C391.57 94.79 393.57 95.35 395.23 96.47C396.91 97.57 398.13 99.13 398.89 101.15H396.43C395.83 99.73 394.91 98.62 393.67 97.82C392.45 97.02 390.97 96.62 389.23 96.62C387.69 96.62 386.3 96.98 385.06 97.7C383.84 98.42 382.88 99.46 382.18 100.82C381.48 102.16 381.13 103.72 381.13 105.5C381.13 107.28 381.48 108.84 382.18 110.18C382.88 111.52 383.84 112.55 385.06 113.27C386.3 113.99 387.69 114.35 389.23 114.35C390.97 114.35 392.45 113.96 393.67 113.18C394.91 112.38 395.83 111.28 396.43 109.88H398.89C398.13 111.88 396.91 113.43 395.23 114.53C393.55 115.63 391.55 116.18 389.23 116.18C387.31 116.18 385.57 115.73 384.01 114.83C382.45 113.91 381.22 112.64 380.32 111.02C379.42 109.4 378.97 107.56 378.97 105.5Z" fill="white"/>
<path d="M546.221 24.15V45H542.801V30.72L536.441 45H534.071L527.681 30.72V45H524.261V24.15H527.951L535.271 40.5L542.561 24.15H546.221ZM554.106 24.15V37.44C554.106 39.02 554.516 40.21 555.336 41.01C556.176 41.81 557.336 42.21 558.816 42.21C560.316 42.21 561.476 41.81 562.296 41.01C563.136 40.21 563.556 39.02 563.556 37.44V24.15H566.976V37.38C566.976 39.08 566.606 40.52 565.866 41.7C565.126 42.88 564.136 43.76 562.896 44.34C561.656 44.92 560.286 45.21 558.786 45.21C557.286 45.21 555.916 44.92 554.676 44.34C553.456 43.76 552.486 42.88 551.766 41.7C551.046 40.52 550.686 39.08 550.686 37.38V24.15H554.106ZM584.899 24.15V26.94H579.349V45H575.929V26.94H570.349V24.15H584.899ZM600.932 40.74H592.202L590.702 45H587.132L594.602 24.12H598.562L606.032 45H602.432L600.932 40.74ZM599.972 37.95L596.582 28.26L593.162 37.95H599.972ZM620.44 34.29C621.56 34.49 622.51 35.08 623.29 36.06C624.07 37.04 624.46 38.15 624.46 39.39C624.46 40.45 624.18 41.41 623.62 42.27C623.08 43.11 622.29 43.78 621.25 44.28C620.21 44.76 619 45 617.62 45H609.28V24.15H617.23C618.65 24.15 619.87 24.39 620.89 24.87C621.91 25.35 622.68 26 623.2 26.82C623.72 27.62 623.98 28.52 623.98 29.52C623.98 30.72 623.66 31.72 623.02 32.52C622.38 33.32 621.52 33.91 620.44 34.29ZM612.7 32.91H616.93C618.05 32.91 618.92 32.66 619.54 32.16C620.18 31.64 620.5 30.9 620.5 29.94C620.5 29 620.18 28.27 619.54 27.75C618.92 27.21 618.05 26.94 616.93 26.94H612.7V32.91ZM617.32 42.21C618.48 42.21 619.39 41.93 620.05 41.37C620.71 40.81 621.04 40.03 621.04 39.03C621.04 38.01 620.69 37.2 619.99 36.6C619.29 36 618.36 35.7 617.2 35.7H612.7V42.21H617.32ZM631.597 42.24H638.647V45H628.177V24.15H631.597V42.24ZM644.927 26.91V33.03H652.127V35.82H644.927V42.21H653.027V45H641.507V24.12H653.027V26.91H644.927Z" fill="white"/>
<path d="M37.051 182.21C35.671 182.21 34.451 181.97 33.391 181.49C32.351 181.01 31.531 180.34 30.931 179.48C30.331 178.62 30.011 177.66 29.971 176.6H32.191C32.291 177.62 32.741 178.52 33.541 179.3C34.341 180.06 35.511 180.44 37.051 180.44C38.471 180.44 39.591 180.08 40.411 179.36C41.251 178.62 41.671 177.69 41.671 176.57C41.671 175.67 41.441 174.95 40.981 174.41C40.521 173.85 39.951 173.44 39.271 173.18C38.591 172.9 37.651 172.6 36.451 172.28C35.051 171.9 33.941 171.53 33.121 171.17C32.301 170.81 31.601 170.25 31.021 169.49C30.441 168.73 30.151 167.7 30.151 166.4C30.151 165.32 30.431 164.36 30.991 163.52C31.551 162.66 32.341 161.99 33.361 161.51C34.381 161.03 35.551 160.79 36.871 160.79C38.811 160.79 40.371 161.27 41.551 162.23C42.751 163.17 43.441 164.39 43.621 165.89H41.341C41.201 165.03 40.731 164.27 39.931 163.61C39.131 162.93 38.051 162.59 36.691 162.59C35.431 162.59 34.381 162.93 33.541 163.61C32.701 164.27 32.281 165.18 32.281 166.34C32.281 167.22 32.511 167.93 32.971 168.47C33.431 169.01 34.001 169.42 34.681 169.7C35.381 169.98 36.321 170.28 37.501 170.6C38.861 170.98 39.961 171.36 40.801 171.74C41.641 172.1 42.351 172.66 42.931 173.42C43.511 174.18 43.801 175.2 43.801 176.48C43.801 177.46 43.541 178.39 43.021 179.27C42.501 180.15 41.731 180.86 40.711 181.4C39.691 181.94 38.471 182.21 37.051 182.21ZM60.129 161.03V162.77H54.309V182H52.209V162.77H46.359V161.03H60.129ZM74.6049 182L69.4149 173.24H65.5449V182H63.4449V161.03H69.7449C72.0849 161.03 73.8549 161.59 75.0549 162.71C76.2749 163.83 76.8849 165.3 76.8849 167.12C76.8849 168.64 76.4449 169.94 75.5649 171.02C74.7049 172.08 73.4249 172.77 71.7249 173.09L77.1249 182H74.6049ZM65.5449 171.53H69.7749C71.4149 171.53 72.6449 171.13 73.4649 170.33C74.3049 169.53 74.7249 168.46 74.7249 167.12C74.7249 165.74 74.3249 164.68 73.5249 163.94C72.7249 163.18 71.4649 162.8 69.7449 162.8H65.5449V171.53ZM83.1523 161.03V182H81.0523V161.03H83.1523ZM103.718 182H101.618L90.0078 164.36V182H87.9078V161.03H90.0078L101.618 178.64V161.03H103.718V182ZM124.974 167.15C124.374 165.77 123.454 164.69 122.214 163.91C120.994 163.11 119.554 162.71 117.894 162.71C116.334 162.71 114.934 163.07 113.694 163.79C112.454 164.51 111.474 165.54 110.754 166.88C110.034 168.2 109.674 169.74 109.674 171.5C109.674 173.26 110.034 174.81 110.754 176.15C111.474 177.49 112.454 178.52 113.694 179.24C114.934 179.96 116.334 180.32 117.894 180.32C119.354 180.32 120.664 180.01 121.824 179.39C123.004 178.75 123.944 177.85 124.644 176.69C125.364 175.51 125.774 174.14 125.874 172.58H117.054V170.87H128.094V172.4C127.994 174.24 127.494 175.91 126.594 177.41C125.694 178.89 124.484 180.06 122.964 180.92C121.464 181.78 119.774 182.21 117.894 182.21C115.954 182.21 114.194 181.76 112.614 180.86C111.034 179.94 109.784 178.67 108.864 177.05C107.964 175.41 107.514 173.56 107.514 171.5C107.514 169.44 107.964 167.6 108.864 165.98C109.784 164.34 111.034 163.07 112.614 162.17C114.194 161.25 115.954 160.79 117.894 160.79C120.134 160.79 122.094 161.35 123.774 162.47C125.454 163.59 126.674 165.15 127.434 167.15H124.974ZM138.301 182.21C136.921 182.21 135.701 181.97 134.641 181.49C133.601 181.01 132.781 180.34 132.181 179.48C131.581 178.62 131.261 177.66 131.221 176.6H133.441C133.541 177.62 133.991 178.52 134.791 179.3C135.591 180.06 136.761 180.44 138.301 180.44C139.721 180.44 140.841 180.08 141.661 179.36C142.501 178.62 142.921 177.69 142.921 176.57C142.921 175.67 142.691 174.95 142.231 174.41C141.771 173.85 141.201 173.44 140.521 173.18C139.841 172.9 138.901 172.6 137.701 172.28C136.301 171.9 135.191 171.53 134.371 171.17C133.551 170.81 132.851 170.25 132.271 169.49C131.691 168.73 131.401 167.7 131.401 166.4C131.401 165.32 131.681 164.36 132.241 163.52C132.801 162.66 133.591 161.99 134.611 161.51C135.631 161.03 136.801 160.79 138.121 160.79C140.061 160.79 141.621 161.27 142.801 162.23C144.001 163.17 144.691 164.39 144.871 165.89H142.591C142.451 165.03 141.981 164.27 141.181 163.61C140.381 162.93 139.301 162.59 137.941 162.59C136.681 162.59 135.631 162.93 134.791 163.61C133.951 164.27 133.531 165.18 133.531 166.34C133.531 167.22 133.761 167.93 134.221 168.47C134.681 169.01 135.251 169.42 135.931 169.7C136.631 169.98 137.571 170.28 138.751 170.6C140.111 170.98 141.211 171.36 142.051 171.74C142.891 172.1 143.601 172.66 144.181 173.42C144.761 174.18 145.051 175.2 145.051 176.48C145.051 177.46 144.791 178.39 144.271 179.27C143.751 180.15 142.981 180.86 141.961 181.4C140.941 181.94 139.721 182.21 138.301 182.21Z" fill="white"/>
<path d="M32.7979 250.29H40.3279V252H30.6979V231.03H32.7979V250.29ZM45.4248 231.03V252H43.3248V231.03H45.4248ZM56.5403 252.21C55.1603 252.21 53.9403 251.97 52.8803 251.49C51.8403 251.01 51.0203 250.34 50.4203 249.48C49.8203 248.62 49.5003 247.66 49.4603 246.6H51.6803C51.7803 247.62 52.2303 248.52 53.0303 249.3C53.8303 250.06 55.0003 250.44 56.5403 250.44C57.9603 250.44 59.0803 250.08 59.9003 249.36C60.7403 248.62 61.1603 247.69 61.1603 246.57C61.1603 245.67 60.9303 244.95 60.4703 244.41C60.0103 243.85 59.4403 243.44 58.7603 243.18C58.0803 242.9 57.1403 242.6 55.9403 242.28C54.5403 241.9 53.4303 241.53 52.6103 241.17C51.7903 240.81 51.0903 240.25 50.5103 239.49C49.9303 238.73 49.6403 237.7 49.6403 236.4C49.6403 235.32 49.9203 234.36 50.4803 233.52C51.0403 232.66 51.8303 231.99 52.8503 231.51C53.8703 231.03 55.0403 230.79 56.3603 230.79C58.3003 230.79 59.8603 231.27 61.0403 232.23C62.2403 233.17 62.9303 234.39 63.1103 235.89H60.8303C60.6903 235.03 60.2203 234.27 59.4203 233.61C58.6203 232.93 57.5403 232.59 56.1803 232.59C54.9203 232.59 53.8703 232.93 53.0303 233.61C52.1903 234.27 51.7703 235.18 51.7703 236.34C51.7703 237.22 52.0003 237.93 52.4603 238.47C52.9203 239.01 53.4903 239.42 54.1703 239.7C54.8703 239.98 55.8103 240.28 56.9903 240.6C58.3503 240.98 59.4503 241.36 60.2903 241.74C61.1303 242.1 61.8403 242.66 62.4203 243.42C63.0003 244.18 63.2903 245.2 63.2903 246.48C63.2903 247.46 63.0303 248.39 62.5103 249.27C61.9903 250.15 61.2203 250.86 60.2003 251.4C59.1803 251.94 57.9603 252.21 56.5403 252.21ZM79.6182 231.03V232.77H73.7982V252H71.6982V232.77H65.8482V231.03H79.6182ZM89.2942 252.21C87.9142 252.21 86.6942 251.97 85.6342 251.49C84.5942 251.01 83.7742 250.34 83.1742 249.48C82.5742 248.62 82.2542 247.66 82.2142 246.6H84.4342C84.5342 247.62 84.9842 248.52 85.7842 249.3C86.5842 250.06 87.7542 250.44 89.2942 250.44C90.7142 250.44 91.8342 250.08 92.6542 249.36C93.4942 248.62 93.9142 247.69 93.9142 246.57C93.9142 245.67 93.6842 244.95 93.2242 244.41C92.7642 243.85 92.1942 243.44 91.5142 243.18C90.8342 242.9 89.8942 242.6 88.6942 242.28C87.2942 241.9 86.1842 241.53 85.3642 241.17C84.5442 240.81 83.8442 240.25 83.2642 239.49C82.6842 238.73 82.3942 237.7 82.3942 236.4C82.3942 235.32 82.6742 234.36 83.2342 233.52C83.7942 232.66 84.5842 231.99 85.6042 231.51C86.6242 231.03 87.7942 230.79 89.1142 230.79C91.0542 230.79 92.6142 231.27 93.7942 232.23C94.9942 233.17 95.6842 234.39 95.8642 235.89H93.5842C93.4442 235.03 92.9742 234.27 92.1742 233.61C91.3742 232.93 90.2942 232.59 88.9342 232.59C87.6742 232.59 86.6242 232.93 85.7842 233.61C84.9442 234.27 84.5242 235.18 84.5242 236.34C84.5242 237.22 84.7542 237.93 85.2142 238.47C85.6742 239.01 86.2442 239.42 86.9242 239.7C87.6242 239.98 88.5642 240.28 89.7442 240.6C91.1042 240.98 92.2042 241.36 93.0442 241.74C93.8842 242.1 94.5942 242.66 95.1742 243.42C95.7542 244.18 96.0442 245.2 96.0442 246.48C96.0442 247.46 95.7842 248.39 95.2642 249.27C94.7442 250.15 93.9742 250.86 92.9542 251.4C91.9342 251.94 90.7142 252.21 89.2942 252.21Z" fill="white"/>
<path d="M37.0543 304.03C39.3743 304.03 41.3643 304.45 43.0243 305.29C44.6843 306.13 45.9543 307.34 46.8343 308.92C47.7143 310.5 48.1543 312.38 48.1543 314.56C48.1543 316.72 47.7143 318.59 46.8343 320.17C45.9543 321.73 44.6843 322.93 43.0243 323.77C41.3643 324.59 39.3743 325 37.0543 325H30.8443V304.03H37.0543ZM37.0543 323.26C39.9743 323.26 42.1943 322.5 43.7143 320.98C45.2543 319.44 46.0243 317.3 46.0243 314.56C46.0243 311.8 45.2543 309.65 43.7143 308.11C42.1943 306.55 39.9743 305.77 37.0543 305.77H32.9443V323.26H37.0543ZM54.126 304.03V325H52.026V304.03H54.126ZM57.9214 314.5C57.9214 312.44 58.3714 310.6 59.2714 308.98C60.1714 307.34 61.4014 306.07 62.9614 305.17C64.5214 304.25 66.2614 303.79 68.1814 303.79C70.5214 303.79 72.5214 304.35 74.1814 305.47C75.8614 306.57 77.0814 308.13 77.8414 310.15H75.3814C74.7814 308.73 73.8614 307.62 72.6214 306.82C71.4014 306.02 69.9214 305.62 68.1814 305.62C66.6414 305.62 65.2514 305.98 64.0114 306.7C62.7914 307.42 61.8314 308.46 61.1314 309.82C60.4314 311.16 60.0814 312.72 60.0814 314.5C60.0814 316.28 60.4314 317.84 61.1314 319.18C61.8314 320.52 62.7914 321.55 64.0114 322.27C65.2514 322.99 66.6414 323.35 68.1814 323.35C69.9214 323.35 71.4014 322.96 72.6214 322.18C73.8614 321.38 74.7814 320.28 75.3814 318.88H77.8414C77.0814 320.88 75.8614 322.43 74.1814 323.53C72.5014 324.63 70.5014 325.18 68.1814 325.18C66.2614 325.18 64.5214 324.73 62.9614 323.83C61.4014 322.91 60.1714 321.64 59.2714 320.02C58.3714 318.4 57.9214 316.56 57.9214 314.5ZM94.296 304.03V305.77H88.476V325H86.376V305.77H80.526V304.03H94.296ZM99.7119 304.03V325H97.6119V304.03H99.7119ZM113.887 325.21C111.947 325.21 110.187 324.76 108.607 323.86C107.027 322.94 105.777 321.67 104.857 320.05C103.957 318.41 103.507 316.56 103.507 314.5C103.507 312.44 103.957 310.6 104.857 308.98C105.777 307.34 107.027 306.07 108.607 305.17C110.187 304.25 111.947 303.79 113.887 303.79C115.847 303.79 117.617 304.25 119.197 305.17C120.777 306.07 122.017 307.34 122.917 308.98C123.817 310.6 124.267 312.44 124.267 314.5C124.267 316.56 123.817 318.41 122.917 320.05C122.017 321.67 120.777 322.94 119.197 323.86C117.617 324.76 115.847 325.21 113.887 325.21ZM113.887 323.38C115.447 323.38 116.847 323.02 118.087 322.3C119.327 321.58 120.307 320.55 121.027 319.21C121.747 317.85 122.107 316.28 122.107 314.5C122.107 312.72 121.747 311.16 121.027 309.82C120.307 308.48 119.327 307.45 118.087 306.73C116.847 306.01 115.447 305.65 113.887 305.65C112.327 305.65 110.927 306.01 109.687 306.73C108.447 307.45 107.467 308.48 106.747 309.82C106.027 311.16 105.667 312.72 105.667 314.5C105.667 316.28 106.027 317.85 106.747 319.21C107.467 320.55 108.447 321.58 109.687 322.3C110.927 323.02 112.327 323.38 113.887 323.38ZM143.92 325H141.82L130.21 307.36V325H128.11V304.03H130.21L141.82 321.64V304.03H143.92V325ZM160.826 320.02H151.286L149.456 325H147.236L154.886 304.3H157.256L164.876 325H162.656L160.826 320.02ZM160.196 318.28L156.056 306.94L151.916 318.28H160.196ZM179.407 325L174.217 316.24H170.347V325H168.247V304.03H174.547C176.887 304.03 178.657 304.59 179.857 305.71C181.077 306.83 181.687 308.3 181.687 310.12C181.687 311.64 181.247 312.94 180.367 314.02C179.507 315.08 178.227 315.77 176.527 316.09L181.927 325H179.407ZM170.347 314.53H174.577C176.217 314.53 177.447 314.13 178.267 313.33C179.107 312.53 179.527 311.46 179.527 310.12C179.527 308.74 179.127 307.68 178.327 306.94C177.527 306.18 176.267 305.8 174.547 305.8H170.347V314.53ZM199.714 304.03L192.994 316.84V325H190.894V316.84L184.114 304.03H186.484L191.944 314.92L197.374 304.03H199.714ZM209.148 325.21C207.768 325.21 206.548 324.97 205.488 324.49C204.448 324.01 203.628 323.34 203.028 322.48C202.428 321.62 202.108 320.66 202.068 319.6H204.288C204.388 320.62 204.838 321.52 205.638 322.3C206.438 323.06 207.608 323.44 209.148 323.44C210.568 323.44 211.688 323.08 212.508 322.36C213.348 321.62 213.768 320.69 213.768 319.57C213.768 318.67 213.538 317.95 213.078 317.41C212.618 316.85 212.048 316.44 211.368 316.18C210.688 315.9 209.748 315.6 208.548 315.28C207.148 314.9 206.038 314.53 205.218 314.17C204.398 313.81 203.698 313.25 203.118 312.49C202.538 311.73 202.248 310.7 202.248 309.4C202.248 308.32 202.528 307.36 203.088 306.52C203.648 305.66 204.438 304.99 205.458 304.51C206.478 304.03 207.648 303.79 208.968 303.79C210.908 303.79 212.468 304.27 213.648 305.23C214.848 306.17 215.538 307.39 215.718 308.89H213.438C213.298 308.03 212.828 307.27 212.028 306.61C211.228 305.93 210.148 305.59 208.788 305.59C207.528 305.59 206.478 305.93 205.638 306.61C204.798 307.27 204.378 308.18 204.378 309.34C204.378 310.22 204.608 310.93 205.068 311.47C205.528 312.01 206.098 312.42 206.778 312.7C207.478 312.98 208.418 313.28 209.598 313.6C210.958 313.98 212.058 314.36 212.898 314.74C213.738 315.1 214.448 315.66 215.028 316.42C215.608 317.18 215.898 318.2 215.898 319.48C215.898 320.46 215.638 321.39 215.118 322.27C214.598 323.15 213.828 323.86 212.808 324.4C211.788 324.94 210.568 325.21 209.148 325.21Z" fill="white"/>
<path d="M43.0518 371.03V372.77H37.2318V392H35.1318V372.77H29.2818V371.03H43.0518ZM48.3778 371.03V384.23C48.3778 386.31 48.8678 387.85 49.8478 388.85C50.8478 389.85 52.2078 390.35 53.9278 390.35C55.6478 390.35 56.9878 389.86 57.9478 388.88C58.9278 387.88 59.4178 386.33 59.4178 384.23V371.03H61.5178V384.2C61.5178 386.86 60.8078 388.86 59.3878 390.2C57.9878 391.54 56.1578 392.21 53.8978 392.21C51.6378 392.21 49.7978 391.54 48.3778 390.2C46.9778 388.86 46.2778 386.86 46.2778 384.2V371.03H48.3778ZM79.6118 377.06C79.6118 378.86 79.0218 380.31 77.8418 381.41C76.6618 382.51 74.8918 383.06 72.5318 383.06H68.3018V392H66.2018V371.03H72.5318C74.8718 371.03 76.6318 371.58 77.8118 372.68C79.0118 373.78 79.6118 375.24 79.6118 377.06ZM72.5318 381.26C75.8118 381.26 77.4518 379.86 77.4518 377.06C77.4518 375.66 77.0618 374.6 76.2818 373.88C75.5018 373.16 74.2518 372.8 72.5318 372.8H68.3018V381.26H72.5318ZM85.2354 390.29H92.7654V392H83.1354V371.03H85.2354V390.29ZM97.8623 372.74V380.57H105.812V382.31H97.8623V390.26H106.712V392H95.7623V371H106.712V372.74H97.8623ZM117.21 392.21C115.83 392.21 114.61 391.97 113.55 391.49C112.51 391.01 111.69 390.34 111.09 389.48C110.49 388.62 110.17 387.66 110.13 386.6H112.35C112.45 387.62 112.9 388.52 113.7 389.3C114.5 390.06 115.67 390.44 117.21 390.44C118.63 390.44 119.75 390.08 120.57 389.36C121.41 388.62 121.83 387.69 121.83 386.57C121.83 385.67 121.6 384.95 121.14 384.41C120.68 383.85 120.11 383.44 119.43 383.18C118.75 382.9 117.81 382.6 116.61 382.28C115.21 381.9 114.1 381.53 113.28 381.17C112.46 380.81 111.76 380.25 111.18 379.49C110.6 378.73 110.31 377.7 110.31 376.4C110.31 375.32 110.59 374.36 111.15 373.52C111.71 372.66 112.5 371.99 113.52 371.51C114.54 371.03 115.71 370.79 117.03 370.79C118.97 370.79 120.53 371.27 121.71 372.23C122.91 373.17 123.6 374.39 123.78 375.89H121.5C121.36 375.03 120.89 374.27 120.09 373.61C119.29 372.93 118.21 372.59 116.85 372.59C115.59 372.59 114.54 372.93 113.7 373.61C112.86 374.27 112.44 375.18 112.44 376.34C112.44 377.22 112.67 377.93 113.13 378.47C113.59 379.01 114.16 379.42 114.84 379.7C115.54 379.98 116.48 380.28 117.66 380.6C119.02 380.98 120.12 381.36 120.96 381.74C121.8 382.1 122.51 382.66 123.09 383.42C123.67 384.18 123.96 385.2 123.96 386.48C123.96 387.46 123.7 388.39 123.18 389.27C122.66 390.15 121.89 390.86 120.87 391.4C119.85 391.94 118.63 392.21 117.21 392.21Z" fill="white"/>
<path d="M280.936 182.21C279.556 182.21 278.336 181.97 277.276 181.49C276.236 181.01 275.416 180.34 274.816 179.48C274.216 178.62 273.896 177.66 273.856 176.6H276.076C276.176 177.62 276.626 178.52 277.426 179.3C278.226 180.06 279.396 180.44 280.936 180.44C282.356 180.44 283.476 180.08 284.296 179.36C285.136 178.62 285.556 177.69 285.556 176.57C285.556 175.67 285.326 174.95 284.866 174.41C284.406 173.85 283.836 173.44 283.156 173.18C282.476 172.9 281.536 172.6 280.336 172.28C278.936 171.9 277.826 171.53 277.006 171.17C276.186 170.81 275.486 170.25 274.906 169.49C274.326 168.73 274.036 167.7 274.036 166.4C274.036 165.32 274.316 164.36 274.876 163.52C275.436 162.66 276.226 161.99 277.246 161.51C278.266 161.03 279.436 160.79 280.756 160.79C282.696 160.79 284.256 161.27 285.436 162.23C286.636 163.17 287.326 164.39 287.506 165.89H285.226C285.086 165.03 284.616 164.27 283.816 163.61C283.016 162.93 281.936 162.59 280.576 162.59C279.316 162.59 278.266 162.93 277.426 163.61C276.586 164.27 276.166 165.18 276.166 166.34C276.166 167.22 276.396 167.93 276.856 168.47C277.316 169.01 277.886 169.42 278.566 169.7C279.266 169.98 280.206 170.28 281.386 170.6C282.746 170.98 283.846 171.36 284.686 171.74C285.526 172.1 286.236 172.66 286.816 173.42C287.396 174.18 287.686 175.2 287.686 176.48C287.686 177.46 287.426 178.39 286.906 179.27C286.386 180.15 285.616 180.86 284.596 181.4C283.576 181.94 282.356 182.21 280.936 182.21ZM293.844 162.74V170.57H301.794V172.31H293.844V180.26H302.694V182H291.744V161H302.694V162.74H293.844ZM324.142 186.11L319.462 181.76C318.442 182.06 317.372 182.21 316.252 182.21C314.312 182.21 312.552 181.76 310.972 180.86C309.392 179.94 308.142 178.67 307.222 177.05C306.322 175.41 305.872 173.56 305.872 171.5C305.872 169.44 306.322 167.6 307.222 165.98C308.142 164.34 309.392 163.07 310.972 162.17C312.552 161.25 314.312 160.79 316.252 160.79C318.212 160.79 319.982 161.25 321.562 162.17C323.142 163.07 324.382 164.34 325.282 165.98C326.182 167.6 326.632 169.44 326.632 171.5C326.632 173.62 326.162 175.51 325.222 177.17C324.282 178.81 322.992 180.07 321.352 180.95L326.962 186.11H324.142ZM308.032 171.5C308.032 173.28 308.392 174.85 309.112 176.21C309.832 177.55 310.812 178.58 312.052 179.3C313.292 180.02 314.692 180.38 316.252 180.38C317.812 180.38 319.212 180.02 320.452 179.3C321.692 178.58 322.672 177.55 323.392 176.21C324.112 174.85 324.472 173.28 324.472 171.5C324.472 169.72 324.112 168.16 323.392 166.82C322.672 165.48 321.692 164.45 320.452 163.73C319.212 163.01 317.812 162.65 316.252 162.65C314.692 162.65 313.292 163.01 312.052 163.73C310.812 164.45 309.832 165.48 309.112 166.82C308.392 168.16 308.032 169.72 308.032 171.5ZM332.514 161.03V174.23C332.514 176.31 333.004 177.85 333.984 178.85C334.984 179.85 336.344 180.35 338.064 180.35C339.784 180.35 341.124 179.86 342.084 178.88C343.064 177.88 343.554 176.33 343.554 174.23V161.03H345.654V174.2C345.654 176.86 344.944 178.86 343.524 180.2C342.124 181.54 340.294 182.21 338.034 182.21C335.774 182.21 333.934 181.54 332.514 180.2C331.114 178.86 330.414 176.86 330.414 174.2V161.03H332.514ZM352.438 162.74V170.57H360.388V172.31H352.438V180.26H361.288V182H350.338V161H361.288V162.74H352.438ZM381.235 182H379.135L367.525 164.36V182H365.425V161.03H367.525L379.135 178.64V161.03H381.235V182ZM385.032 171.5C385.032 169.44 385.482 167.6 386.382 165.98C387.282 164.34 388.512 163.07 390.072 162.17C391.632 161.25 393.372 160.79 395.292 160.79C397.632 160.79 399.632 161.35 401.292 162.47C402.972 163.57 404.192 165.13 404.952 167.15H402.492C401.892 165.73 400.972 164.62 399.732 163.82C398.512 163.02 397.032 162.62 395.292 162.62C393.752 162.62 392.362 162.98 391.122 163.7C389.902 164.42 388.942 165.46 388.242 166.82C387.542 168.16 387.192 169.72 387.192 171.5C387.192 173.28 387.542 174.84 388.242 176.18C388.942 177.52 389.902 178.55 391.122 179.27C392.362 179.99 393.752 180.35 395.292 180.35C397.032 180.35 398.512 179.96 399.732 179.18C400.972 178.38 401.892 177.28 402.492 175.88H404.952C404.192 177.88 402.972 179.43 401.292 180.53C399.612 181.63 397.612 182.18 395.292 182.18C393.372 182.18 391.632 181.73 390.072 180.83C388.512 179.91 387.282 178.64 386.382 177.02C385.482 175.4 385.032 173.56 385.032 171.5ZM411.236 162.74V170.57H419.186V172.31H411.236V180.26H420.086V182H409.136V161H420.086V162.74H411.236Z" fill="white"/>
<path d="M280.936 252.21C279.556 252.21 278.336 251.97 277.276 251.49C276.236 251.01 275.416 250.34 274.816 249.48C274.216 248.62 273.896 247.66 273.856 246.6H276.076C276.176 247.62 276.626 248.52 277.426 249.3C278.226 250.06 279.396 250.44 280.936 250.44C282.356 250.44 283.476 250.08 284.296 249.36C285.136 248.62 285.556 247.69 285.556 246.57C285.556 245.67 285.326 244.95 284.866 244.41C284.406 243.85 283.836 243.44 283.156 243.18C282.476 242.9 281.536 242.6 280.336 242.28C278.936 241.9 277.826 241.53 277.006 241.17C276.186 240.81 275.486 240.25 274.906 239.49C274.326 238.73 274.036 237.7 274.036 236.4C274.036 235.32 274.316 234.36 274.876 233.52C275.436 232.66 276.226 231.99 277.246 231.51C278.266 231.03 279.436 230.79 280.756 230.79C282.696 230.79 284.256 231.27 285.436 232.23C286.636 233.17 287.326 234.39 287.506 235.89H285.226C285.086 235.03 284.616 234.27 283.816 233.61C283.016 232.93 281.936 232.59 280.576 232.59C279.316 232.59 278.266 232.93 277.426 233.61C276.586 234.27 276.166 235.18 276.166 236.34C276.166 237.22 276.396 237.93 276.856 238.47C277.316 239.01 277.886 239.42 278.566 239.7C279.266 239.98 280.206 240.28 281.386 240.6C282.746 240.98 283.846 241.36 284.686 241.74C285.526 242.1 286.236 242.66 286.816 243.42C287.396 244.18 287.686 245.2 287.686 246.48C287.686 247.46 287.426 248.39 286.906 249.27C286.386 250.15 285.616 250.86 284.596 251.4C283.576 251.94 282.356 252.21 280.936 252.21ZM293.844 232.74V240.57H301.794V242.31H293.844V250.26H302.694V252H291.744V231H302.694V232.74H293.844ZM324.142 256.11L319.462 251.76C318.442 252.06 317.372 252.21 316.252 252.21C314.312 252.21 312.552 251.76 310.972 250.86C309.392 249.94 308.142 248.67 307.222 247.05C306.322 245.41 305.872 243.56 305.872 241.5C305.872 239.44 306.322 237.6 307.222 235.98C308.142 234.34 309.392 233.07 310.972 232.17C312.552 231.25 314.312 230.79 316.252 230.79C318.212 230.79 319.982 231.25 321.562 232.17C323.142 233.07 324.382 234.34 325.282 235.98C326.182 237.6 326.632 239.44 326.632 241.5C326.632 243.62 326.162 245.51 325.222 247.17C324.282 248.81 322.992 250.07 321.352 250.95L326.962 256.11H324.142ZM308.032 241.5C308.032 243.28 308.392 244.85 309.112 246.21C309.832 247.55 310.812 248.58 312.052 249.3C313.292 250.02 314.692 250.38 316.252 250.38C317.812 250.38 319.212 250.02 320.452 249.3C321.692 248.58 322.672 247.55 323.392 246.21C324.112 244.85 324.472 243.28 324.472 241.5C324.472 239.72 324.112 238.16 323.392 236.82C322.672 235.48 321.692 234.45 320.452 233.73C319.212 233.01 317.812 232.65 316.252 232.65C314.692 232.65 313.292 233.01 312.052 233.73C310.812 234.45 309.832 235.48 309.112 236.82C308.392 238.16 308.032 239.72 308.032 241.5ZM332.514 231.03V244.23C332.514 246.31 333.004 247.85 333.984 248.85C334.984 249.85 336.344 250.35 338.064 250.35C339.784 250.35 341.124 249.86 342.084 248.88C343.064 247.88 343.554 246.33 343.554 244.23V231.03H345.654V244.2C345.654 246.86 344.944 248.86 343.524 250.2C342.124 251.54 340.294 252.21 338.034 252.21C335.774 252.21 333.934 251.54 332.514 250.2C331.114 248.86 330.414 246.86 330.414 244.2V231.03H332.514ZM352.438 232.74V240.57H360.388V242.31H352.438V250.26H361.288V252H350.338V231H361.288V232.74H352.438ZM381.235 252H379.135L367.525 234.36V252H365.425V231.03H367.525L379.135 248.64V231.03H381.235V252ZM385.032 241.5C385.032 239.44 385.482 237.6 386.382 235.98C387.282 234.34 388.512 233.07 390.072 232.17C391.632 231.25 393.372 230.79 395.292 230.79C397.632 230.79 399.632 231.35 401.292 232.47C402.972 233.57 404.192 235.13 404.952 237.15H402.492C401.892 235.73 400.972 234.62 399.732 233.82C398.512 233.02 397.032 232.62 395.292 232.62C393.752 232.62 392.362 232.98 391.122 233.7C389.902 234.42 388.942 235.46 388.242 236.82C387.542 238.16 387.192 239.72 387.192 241.5C387.192 243.28 387.542 244.84 388.242 246.18C388.942 247.52 389.902 248.55 391.122 249.27C392.362 249.99 393.752 250.35 395.292 250.35C397.032 250.35 398.512 249.96 399.732 249.18C400.972 248.38 401.892 247.28 402.492 245.88H404.952C404.192 247.88 402.972 249.43 401.292 250.53C399.612 251.63 397.612 252.18 395.292 252.18C393.372 252.18 391.632 251.73 390.072 250.83C388.512 249.91 387.282 248.64 386.382 247.02C385.482 245.4 385.032 243.56 385.032 241.5ZM411.236 232.74V240.57H419.186V242.31H411.236V250.26H420.086V252H409.136V231H420.086V232.74H411.236Z" fill="white"/>
<path d="M280.936 392.21C279.556 392.21 278.336 391.97 277.276 391.49C276.236 391.01 275.416 390.34 274.816 389.48C274.216 388.62 273.896 387.66 273.856 386.6H276.076C276.176 387.62 276.626 388.52 277.426 389.3C278.226 390.06 279.396 390.44 280.936 390.44C282.356 390.44 283.476 390.08 284.296 389.36C285.136 388.62 285.556 387.69 285.556 386.57C285.556 385.67 285.326 384.95 284.866 384.41C284.406 383.85 283.836 383.44 283.156 383.18C282.476 382.9 281.536 382.6 280.336 382.28C278.936 381.9 277.826 381.53 277.006 381.17C276.186 380.81 275.486 380.25 274.906 379.49C274.326 378.73 274.036 377.7 274.036 376.4C274.036 375.32 274.316 374.36 274.876 373.52C275.436 372.66 276.226 371.99 277.246 371.51C278.266 371.03 279.436 370.79 280.756 370.79C282.696 370.79 284.256 371.27 285.436 372.23C286.636 373.17 287.326 374.39 287.506 375.89H285.226C285.086 375.03 284.616 374.27 283.816 373.61C283.016 372.93 281.936 372.59 280.576 372.59C279.316 372.59 278.266 372.93 277.426 373.61C276.586 374.27 276.166 375.18 276.166 376.34C276.166 377.22 276.396 377.93 276.856 378.47C277.316 379.01 277.886 379.42 278.566 379.7C279.266 379.98 280.206 380.28 281.386 380.6C282.746 380.98 283.846 381.36 284.686 381.74C285.526 382.1 286.236 382.66 286.816 383.42C287.396 384.18 287.686 385.2 287.686 386.48C287.686 387.46 287.426 388.39 286.906 389.27C286.386 390.15 285.616 390.86 284.596 391.4C283.576 391.94 282.356 392.21 280.936 392.21ZM293.844 372.74V380.57H301.794V382.31H293.844V390.26H302.694V392H291.744V371H302.694V372.74H293.844ZM324.142 396.11L319.462 391.76C318.442 392.06 317.372 392.21 316.252 392.21C314.312 392.21 312.552 391.76 310.972 390.86C309.392 389.94 308.142 388.67 307.222 387.05C306.322 385.41 305.872 383.56 305.872 381.5C305.872 379.44 306.322 377.6 307.222 375.98C308.142 374.34 309.392 373.07 310.972 372.17C312.552 371.25 314.312 370.79 316.252 370.79C318.212 370.79 319.982 371.25 321.562 372.17C323.142 373.07 324.382 374.34 325.282 375.98C326.182 377.6 326.632 379.44 326.632 381.5C326.632 383.62 326.162 385.51 325.222 387.17C324.282 388.81 322.992 390.07 321.352 390.95L326.962 396.11H324.142ZM308.032 381.5C308.032 383.28 308.392 384.85 309.112 386.21C309.832 387.55 310.812 388.58 312.052 389.3C313.292 390.02 314.692 390.38 316.252 390.38C317.812 390.38 319.212 390.02 320.452 389.3C321.692 388.58 322.672 387.55 323.392 386.21C324.112 384.85 324.472 383.28 324.472 381.5C324.472 379.72 324.112 378.16 323.392 376.82C322.672 375.48 321.692 374.45 320.452 373.73C319.212 373.01 317.812 372.65 316.252 372.65C314.692 372.65 313.292 373.01 312.052 373.73C310.812 374.45 309.832 375.48 309.112 376.82C308.392 378.16 308.032 379.72 308.032 381.5ZM332.514 371.03V384.23C332.514 386.31 333.004 387.85 333.984 388.85C334.984 389.85 336.344 390.35 338.064 390.35C339.784 390.35 341.124 389.86 342.084 388.88C343.064 387.88 343.554 386.33 343.554 384.23V371.03H345.654V384.2C345.654 386.86 344.944 388.86 343.524 390.2C342.124 391.54 340.294 392.21 338.034 392.21C335.774 392.21 333.934 391.54 332.514 390.2C331.114 388.86 330.414 386.86 330.414 384.2V371.03H332.514ZM352.438 372.74V380.57H360.388V382.31H352.438V390.26H361.288V392H350.338V371H361.288V372.74H352.438ZM381.235 392H379.135L367.525 374.36V392H365.425V371.03H367.525L379.135 388.64V371.03H381.235V392ZM385.032 381.5C385.032 379.44 385.482 377.6 386.382 375.98C387.282 374.34 388.512 373.07 390.072 372.17C391.632 371.25 393.372 370.79 395.292 370.79C397.632 370.79 399.632 371.35 401.292 372.47C402.972 373.57 404.192 375.13 404.952 377.15H402.492C401.892 375.73 400.972 374.62 399.732 373.82C398.512 373.02 397.032 372.62 395.292 372.62C393.752 372.62 392.362 372.98 391.122 373.7C389.902 374.42 388.942 375.46 388.242 376.82C387.542 378.16 387.192 379.72 387.192 381.5C387.192 383.28 387.542 384.84 388.242 386.18C388.942 387.52 389.902 388.55 391.122 389.27C392.362 389.99 393.752 390.35 395.292 390.35C397.032 390.35 398.512 389.96 399.732 389.18C400.972 388.38 401.892 387.28 402.492 385.88H404.952C404.192 387.88 402.972 389.43 401.292 390.53C399.612 391.63 397.612 392.18 395.292 392.18C393.372 392.18 391.632 391.73 390.072 390.83C388.512 389.91 387.282 388.64 386.382 387.02C385.482 385.4 385.032 383.56 385.032 381.5ZM411.236 372.74V380.57H419.186V382.31H411.236V390.26H420.086V392H409.136V371H420.086V372.74H411.236Z" fill="white"/>
<path d="M295.1 304.3V325H293V308.47L285.62 325H284.09L276.71 308.53V325H274.61V304.3H276.83L284.84 322.24L292.85 304.3H295.1ZM312.014 320.02H302.474L300.644 325H298.424L306.074 304.3H308.444L316.064 325H313.844L312.014 320.02ZM311.384 318.28L307.244 306.94L303.104 318.28H311.384ZM332.844 310.06C332.844 311.86 332.254 313.31 331.074 314.41C329.894 315.51 328.124 316.06 325.764 316.06H321.534V325H319.434V304.03H325.764C328.104 304.03 329.864 304.58 331.044 305.68C332.244 306.78 332.844 308.24 332.844 310.06ZM325.764 314.26C329.044 314.26 330.684 312.86 330.684 310.06C330.684 308.66 330.294 307.6 329.514 306.88C328.734 306.16 327.484 305.8 325.764 305.8H321.534V314.26H325.764ZM349.778 310.06C349.778 311.86 349.188 313.31 348.008 314.41C346.828 315.51 345.058 316.06 342.698 316.06H338.468V325H336.368V304.03H342.698C345.038 304.03 346.798 304.58 347.978 305.68C349.178 306.78 349.778 308.24 349.778 310.06ZM342.698 314.26C345.978 314.26 347.618 312.86 347.618 310.06C347.618 308.66 347.228 307.6 346.448 306.88C345.668 306.16 344.418 305.8 342.698 305.8H338.468V314.26H342.698ZM355.401 304.03V325H353.301V304.03H355.401ZM375.967 325H373.867L362.257 307.36V325H360.157V304.03H362.257L373.867 321.64V304.03H375.967V325ZM397.223 310.15C396.623 308.77 395.703 307.69 394.463 306.91C393.243 306.11 391.803 305.71 390.143 305.71C388.583 305.71 387.183 306.07 385.943 306.79C384.703 307.51 383.723 308.54 383.003 309.88C382.283 311.2 381.923 312.74 381.923 314.5C381.923 316.26 382.283 317.81 383.003 319.15C383.723 320.49 384.703 321.52 385.943 322.24C387.183 322.96 388.583 323.32 390.143 323.32C391.603 323.32 392.913 323.01 394.073 322.39C395.253 321.75 396.193 320.85 396.893 319.69C397.613 318.51 398.023 317.14 398.123 315.58H389.303V313.87H400.343V315.4C400.243 317.24 399.743 318.91 398.843 320.41C397.943 321.89 396.733 323.06 395.213 323.92C393.713 324.78 392.023 325.21 390.143 325.21C388.203 325.21 386.443 324.76 384.863 323.86C383.283 322.94 382.033 321.67 381.113 320.05C380.213 318.41 379.763 316.56 379.763 314.5C379.763 312.44 380.213 310.6 381.113 308.98C382.033 307.34 383.283 306.07 384.863 305.17C386.443 304.25 388.203 303.79 390.143 303.79C392.383 303.79 394.343 304.35 396.023 305.47C397.703 306.59 398.923 308.15 399.683 310.15H397.223Z" fill="white"/>
<path d="M543.313 182H541.213L529.603 164.36V182H527.503V161.03H529.603L541.213 178.64V161.03H543.313V182ZM557.489 182.21C555.549 182.21 553.789 181.76 552.209 180.86C550.629 179.94 549.379 178.67 548.459 177.05C547.559 175.41 547.109 173.56 547.109 171.5C547.109 169.44 547.559 167.6 548.459 165.98C549.379 164.34 550.629 163.07 552.209 162.17C553.789 161.25 555.549 160.79 557.489 160.79C559.449 160.79 561.219 161.25 562.799 162.17C564.379 163.07 565.619 164.34 566.519 165.98C567.419 167.6 567.869 169.44 567.869 171.5C567.869 173.56 567.419 175.41 566.519 177.05C565.619 178.67 564.379 179.94 562.799 180.86C561.219 181.76 559.449 182.21 557.489 182.21ZM557.489 180.38C559.049 180.38 560.449 180.02 561.689 179.3C562.929 178.58 563.909 177.55 564.629 176.21C565.349 174.85 565.709 173.28 565.709 171.5C565.709 169.72 565.349 168.16 564.629 166.82C563.909 165.48 562.929 164.45 561.689 163.73C560.449 163.01 559.049 162.65 557.489 162.65C555.929 162.65 554.529 163.01 553.289 163.73C552.049 164.45 551.069 165.48 550.349 166.82C549.629 168.16 549.269 169.72 549.269 171.5C549.269 173.28 549.629 174.85 550.349 176.21C551.069 177.55 552.049 178.58 553.289 179.3C554.529 180.02 555.929 180.38 557.489 180.38ZM583.982 161.03V162.77H578.162V182H576.062V162.77H570.212V161.03H583.982Z" fill="white"/>
<path d="M546.665 231.03L539.945 243.84V252H537.845V243.84L531.065 231.03H533.435L538.895 241.92L544.325 231.03H546.665ZM551.839 232.74V240.57H559.789V242.31H551.839V250.26H560.689V252H549.739V231H560.689V232.74H551.839ZM571.187 252.21C569.807 252.21 568.587 251.97 567.527 251.49C566.487 251.01 565.667 250.34 565.067 249.48C564.467 248.62 564.147 247.66 564.107 246.6H566.327C566.427 247.62 566.877 248.52 567.677 249.3C568.477 250.06 569.647 250.44 571.187 250.44C572.607 250.44 573.727 250.08 574.547 249.36C575.387 248.62 575.807 247.69 575.807 246.57C575.807 245.67 575.577 244.95 575.117 244.41C574.657 243.85 574.087 243.44 573.407 243.18C572.727 242.9 571.787 242.6 570.587 242.28C569.187 241.9 568.077 241.53 567.257 241.17C566.437 240.81 565.737 240.25 565.157 239.49C564.577 238.73 564.287 237.7 564.287 236.4C564.287 235.32 564.567 234.36 565.127 233.52C565.687 232.66 566.477 231.99 567.497 231.51C568.517 231.03 569.687 230.79 571.007 230.79C572.947 230.79 574.507 231.27 575.687 232.23C576.887 233.17 577.577 234.39 577.757 235.89H575.477C575.337 235.03 574.867 234.27 574.067 233.61C573.267 232.93 572.187 232.59 570.827 232.59C569.567 232.59 568.517 232.93 567.677 233.61C566.837 234.27 566.417 235.18 566.417 236.34C566.417 237.22 566.647 237.93 567.107 238.47C567.567 239.01 568.137 239.42 568.817 239.7C569.517 239.98 570.457 240.28 571.637 240.6C572.997 240.98 574.097 241.36 574.937 241.74C575.777 242.1 576.487 242.66 577.067 243.42C577.647 244.18 577.937 245.2 577.937 246.48C577.937 247.46 577.677 248.39 577.157 249.27C576.637 250.15 575.867 250.86 574.847 251.4C573.827 251.94 572.607 252.21 571.187 252.21Z" fill="white"/>
<path d="M546.665 302.03L539.945 314.84V323H537.845V314.84L531.065 302.03H533.435L538.895 312.92L544.325 302.03H546.665ZM551.839 303.74V311.57H559.789V313.31H551.839V321.26H560.689V323H549.739V302H560.689V303.74H551.839ZM571.187 323.21C569.807 323.21 568.587 322.97 567.527 322.49C566.487 322.01 565.667 321.34 565.067 320.48C564.467 319.62 564.147 318.66 564.107 317.6H566.327C566.427 318.62 566.877 319.52 567.677 320.3C568.477 321.06 569.647 321.44 571.187 321.44C572.607 321.44 573.727 321.08 574.547 320.36C575.387 319.62 575.807 318.69 575.807 317.57C575.807 316.67 575.577 315.95 575.117 315.41C574.657 314.85 574.087 314.44 573.407 314.18C572.727 313.9 571.787 313.6 570.587 313.28C569.187 312.9 568.077 312.53 567.257 312.17C566.437 311.81 565.737 311.25 565.157 310.49C564.577 309.73 564.287 308.7 564.287 307.4C564.287 306.32 564.567 305.36 565.127 304.52C565.687 303.66 566.477 302.99 567.497 302.51C568.517 302.03 569.687 301.79 571.007 301.79C572.947 301.79 574.507 302.27 575.687 303.23C576.887 304.17 577.577 305.39 577.757 306.89H575.477C575.337 306.03 574.867 305.27 574.067 304.61C573.267 303.93 572.187 303.59 570.827 303.59C569.567 303.59 568.517 303.93 567.677 304.61C566.837 305.27 566.417 306.18 566.417 307.34C566.417 308.22 566.647 308.93 567.107 309.47C567.567 310.01 568.137 310.42 568.817 310.7C569.517 310.98 570.457 311.28 571.637 311.6C572.997 311.98 574.097 312.36 574.937 312.74C575.777 313.1 576.487 313.66 577.067 314.42C577.647 315.18 577.937 316.2 577.937 317.48C577.937 318.46 577.677 319.39 577.157 320.27C576.637 321.15 575.867 321.86 574.847 322.4C573.827 322.94 572.607 323.21 571.187 323.21Z" fill="white"/>
<path d="M543.313 392H541.213L529.603 374.36V392H527.503V371.03H529.603L541.213 388.64V371.03H543.313V392ZM557.489 392.21C555.549 392.21 553.789 391.76 552.209 390.86C550.629 389.94 549.379 388.67 548.459 387.05C547.559 385.41 547.109 383.56 547.109 381.5C547.109 379.44 547.559 377.6 548.459 375.98C549.379 374.34 550.629 373.07 552.209 372.17C553.789 371.25 555.549 370.79 557.489 370.79C559.449 370.79 561.219 371.25 562.799 372.17C564.379 373.07 565.619 374.34 566.519 375.98C567.419 377.6 567.869 379.44 567.869 381.5C567.869 383.56 567.419 385.41 566.519 387.05C565.619 388.67 564.379 389.94 562.799 390.86C561.219 391.76 559.449 392.21 557.489 392.21ZM557.489 390.38C559.049 390.38 560.449 390.02 561.689 389.3C562.929 388.58 563.909 387.55 564.629 386.21C565.349 384.85 565.709 383.28 565.709 381.5C565.709 379.72 565.349 378.16 564.629 376.82C563.909 375.48 562.929 374.45 561.689 373.73C560.449 373.01 559.049 372.65 557.489 372.65C555.929 372.65 554.529 373.01 553.289 373.73C552.049 374.45 551.069 375.48 550.349 376.82C549.629 378.16 549.269 379.72 549.269 381.5C549.269 383.28 549.629 384.85 550.349 386.21C551.069 387.55 552.049 388.58 553.289 389.3C554.529 390.02 555.929 390.38 557.489 390.38ZM583.982 371.03V372.77H578.162V392H576.062V372.77H570.212V371.03H583.982Z" fill="white"/>
</svg>
