<svg width="993" height="311" viewBox="0 0 993 311" fill="none" xmlns="http://www.w3.org/2000/svg">
<path d="M1 25C1 11.1929 12.1929 0 26 0H966C979.807 0 991 11.1929 991 25V72C991 85.8071 979.807 97 966 97H26C12.1929 97 1 85.8071 1 72V25Z" fill="#0061AE"/>
<rect x="1" y="69" width="990" height="241" rx="25" fill="#F9975E"/>
<path d="M748.71 24.91V31.03H755.91V33.82H748.71V40.21H756.81V43H745.29V22.12H756.81V24.91H748.71ZM770.592 32.59L777.072 43H773.232L768.522 35.44L764.112 43H760.302L766.782 32.59L760.272 22.15H764.112L768.852 29.77L773.292 22.15H777.102L770.592 32.59ZM793.397 38.74H784.667L783.167 43H779.597L787.067 22.12H791.027L798.497 43H794.897L793.397 38.74ZM792.437 35.95L789.047 26.26L785.627 35.95H792.437ZM823.705 22.15V43H820.285V28.72L813.925 43H811.555L805.165 28.72V43H801.745V22.15H805.435L812.755 38.5L820.045 22.15H823.705ZM842.78 28.36C842.78 29.42 842.53 30.42 842.03 31.36C841.53 32.3 840.73 33.07 839.63 33.67C838.53 34.25 837.12 34.54 835.4 34.54H831.62V43H828.2V22.15H835.4C837 22.15 838.35 22.43 839.45 22.99C840.57 23.53 841.4 24.27 841.94 25.21C842.5 26.15 842.78 27.2 842.78 28.36ZM835.4 31.75C836.7 31.75 837.67 31.46 838.31 30.88C838.95 30.28 839.27 29.44 839.27 28.36C839.27 26.08 837.98 24.94 835.4 24.94H831.62V31.75H835.4ZM849.462 40.24H856.512V43H846.042V22.15H849.462V40.24ZM862.792 24.91V31.03H869.992V33.82H862.792V40.21H870.892V43H859.372V22.12H870.892V24.91H862.792ZM881.974 43.21C880.574 43.21 879.314 42.97 878.194 42.49C877.074 41.99 876.194 41.29 875.554 40.39C874.914 39.49 874.594 38.44 874.594 37.24H878.254C878.334 38.14 878.684 38.88 879.304 39.46C879.944 40.04 880.834 40.33 881.974 40.33C883.154 40.33 884.074 40.05 884.734 39.49C885.394 38.91 885.724 38.17 885.724 37.27C885.724 36.57 885.514 36 885.094 35.56C884.694 35.12 884.184 34.78 883.564 34.54C882.964 34.3 882.124 34.04 881.044 33.76C879.684 33.4 878.574 33.04 877.714 32.68C876.874 32.3 876.154 31.72 875.554 30.94C874.954 30.16 874.654 29.12 874.654 27.82C874.654 26.62 874.954 25.57 875.554 24.67C876.154 23.77 876.994 23.08 878.074 22.6C879.154 22.12 880.404 21.88 881.824 21.88C883.844 21.88 885.494 22.39 886.774 23.41C888.074 24.41 888.794 25.79 888.934 27.55H885.154C885.094 26.79 884.734 26.14 884.074 25.6C883.414 25.06 882.544 24.79 881.464 24.79C880.484 24.79 879.684 25.04 879.064 25.54C878.444 26.04 878.134 26.76 878.134 27.7C878.134 28.34 878.324 28.87 878.704 29.29C879.104 29.69 879.604 30.01 880.204 30.25C880.804 30.49 881.624 30.75 882.664 31.03C884.044 31.41 885.164 31.79 886.024 32.17C886.904 32.55 887.644 33.14 888.244 33.94C888.864 34.72 889.174 35.77 889.174 37.09C889.174 38.15 888.884 39.15 888.304 40.09C887.744 41.03 886.914 41.79 885.814 42.37C884.734 42.93 883.454 43.21 881.974 43.21Z" fill="white"/>
<path d="M312.407 22.15L304.577 43H300.617L292.757 22.15H296.417L302.597 39.49L308.807 22.15H312.407ZM327.837 38.74H319.107L317.607 43H314.037L321.507 22.12H325.467L332.937 43H329.337L327.837 38.74ZM326.877 35.95L323.487 26.26L320.067 35.95H326.877ZM347.015 43L342.215 34.66H339.605V43H336.185V22.15H343.385C344.985 22.15 346.335 22.43 347.435 22.99C348.555 23.55 349.385 24.3 349.925 25.24C350.485 26.18 350.765 27.23 350.765 28.39C350.765 29.75 350.365 30.99 349.565 32.11C348.785 33.21 347.575 33.96 345.935 34.36L351.095 43H347.015ZM339.605 31.93H343.385C344.665 31.93 345.625 31.61 346.265 30.97C346.925 30.33 347.255 29.47 347.255 28.39C347.255 27.31 346.935 26.47 346.295 25.87C345.655 25.25 344.685 24.94 343.385 24.94H339.605V31.93ZM358.56 22.15V43H355.14V22.15H358.56ZM375.62 38.74H366.89L365.39 43H361.82L369.29 22.12H373.25L380.72 43H377.12L375.62 38.74ZM374.66 35.95L371.27 26.26L367.85 35.95H374.66ZM397.438 22.15V24.94H391.888V43H388.468V24.94H382.888V22.15H397.438ZM404.321 22.15V43H400.901V22.15H404.321ZM418.322 43.21C416.382 43.21 414.592 42.76 412.952 41.86C411.332 40.94 410.042 39.67 409.082 38.05C408.142 36.41 407.672 34.57 407.672 32.53C407.672 30.49 408.142 28.66 409.082 27.04C410.042 25.42 411.332 24.16 412.952 23.26C414.592 22.34 416.382 21.88 418.322 21.88C420.282 21.88 422.072 22.34 423.692 23.26C425.332 24.16 426.622 25.42 427.562 27.04C428.502 28.66 428.972 30.49 428.972 32.53C428.972 34.57 428.502 36.41 427.562 38.05C426.622 39.67 425.332 40.94 423.692 41.86C422.072 42.76 420.282 43.21 418.322 43.21ZM418.322 40.24C419.702 40.24 420.932 39.93 422.012 39.31C423.092 38.67 423.932 37.77 424.532 36.61C425.152 35.43 425.462 34.07 425.462 32.53C425.462 30.99 425.152 29.64 424.532 28.48C423.932 27.32 423.092 26.43 422.012 25.81C420.932 25.19 419.702 24.88 418.322 24.88C416.942 24.88 415.712 25.19 414.632 25.81C413.552 26.43 412.702 27.32 412.082 28.48C411.482 29.64 411.182 30.99 411.182 32.53C411.182 34.07 411.482 35.43 412.082 36.61C412.702 37.77 413.552 38.67 414.632 39.31C415.712 39.93 416.942 40.24 418.322 40.24ZM449.467 43H446.047L435.757 27.43V43H432.337V22.12H435.757L446.047 37.66V22.12H449.467V43ZM460.828 43.21C459.428 43.21 458.168 42.97 457.048 42.49C455.928 41.99 455.048 41.29 454.408 40.39C453.768 39.49 453.448 38.44 453.448 37.24H457.108C457.188 38.14 457.538 38.88 458.158 39.46C458.798 40.04 459.688 40.33 460.828 40.33C462.008 40.33 462.928 40.05 463.588 39.49C464.248 38.91 464.578 38.17 464.578 37.27C464.578 36.57 464.368 36 463.948 35.56C463.548 35.12 463.038 34.78 462.418 34.54C461.818 34.3 460.978 34.04 459.898 33.76C458.538 33.4 457.428 33.04 456.568 32.68C455.728 32.3 455.008 31.72 454.408 30.94C453.808 30.16 453.508 29.12 453.508 27.82C453.508 26.62 453.808 25.57 454.408 24.67C455.008 23.77 455.848 23.08 456.928 22.6C458.008 22.12 459.258 21.88 460.678 21.88C462.698 21.88 464.348 22.39 465.628 23.41C466.928 24.41 467.648 25.79 467.788 27.55H464.008C463.948 26.79 463.588 26.14 462.928 25.6C462.268 25.06 461.398 24.79 460.318 24.79C459.338 24.79 458.538 25.04 457.918 25.54C457.298 26.04 456.988 26.76 456.988 27.7C456.988 28.34 457.178 28.87 457.558 29.29C457.958 29.69 458.458 30.01 459.058 30.25C459.658 30.49 460.478 30.75 461.518 31.03C462.898 31.41 464.018 31.79 464.878 32.17C465.758 32.55 466.498 33.14 467.098 33.94C467.718 34.72 468.028 35.77 468.028 37.09C468.028 38.15 467.738 39.15 467.158 40.09C466.598 41.03 465.768 41.79 464.668 42.37C463.588 42.93 462.308 43.21 460.828 43.21Z" fill="white"/>
<path d="M48.8841 22.15V24.94H43.3341V43H39.9141V24.94H34.3341V22.15H48.8841ZM67.7977 22.15L60.8977 35.44V43H57.4777V35.44L50.5477 22.15H54.3577L59.1877 32.38L64.0177 22.15H67.7977ZM85.0917 28.36C85.0917 29.42 84.8417 30.42 84.3417 31.36C83.8417 32.3 83.0417 33.07 81.9417 33.67C80.8417 34.25 79.4317 34.54 77.7117 34.54H73.9317V43H70.5117V22.15H77.7117C79.3117 22.15 80.6617 22.43 81.7617 22.99C82.8817 23.53 83.7117 24.27 84.2517 25.21C84.8117 26.15 85.0917 27.2 85.0917 28.36ZM77.7117 31.75C79.0117 31.75 79.9817 31.46 80.6217 30.88C81.2617 30.28 81.5817 29.44 81.5817 28.36C81.5817 26.08 80.2917 24.94 77.7117 24.94H73.9317V31.75H77.7117ZM91.7735 24.91V31.03H98.9735V33.82H91.7735V40.21H99.8735V43H88.3535V22.12H99.8735V24.91H91.7735Z" fill="white"/>
<line x1="162" y1="66.5" x2="911" y2="66.5" stroke="#C3C3C3" stroke-width="3"/>
<line x1="0.99845" y1="67.5228" x2="990.998" y2="66.5" stroke="#C3C3C3" stroke-width="3"/>
<line x1="708.5" y1="310.007" x2="706.991" y2="0.00642925" stroke="#C3C3C3" stroke-width="3"/>
<line x1="259.5" y1="0.0241904" x2="254.5" y2="310.024" stroke="#C3C3C3" stroke-width="3"/>
<rect x="957" y="67" width="34" height="69" fill="#F9975E"/>
<rect x="1" y="69" width="32" height="58" fill="#F9975E"/>
<line x1="0.983826" y1="177.5" x2="992.016" y2="177.5" stroke="#C3C3C3" stroke-width="3"/>
<path d="M43.9961 91.03V112H41.8961V91.03H43.9961ZM64.5616 112H62.4616L50.8516 94.36V112H48.7516V91.03H50.8516L62.4616 108.64V91.03H64.5616V112ZM81.588 91.03V92.77H75.768V112H73.668V92.77H67.818V91.03H81.588Z" fill="white"/>
<path d="M53.1296 204.03V205.77H43.8896V213.6H51.6896V215.34H43.8896V225H41.7896V204.03H53.1296ZM58.6846 223.29H66.2146V225H56.5846V204.03H58.6846V223.29ZM78.6315 225.21C76.6915 225.21 74.9315 224.76 73.3515 223.86C71.7715 222.94 70.5215 221.67 69.6015 220.05C68.7015 218.41 68.2515 216.56 68.2515 214.5C68.2515 212.44 68.7015 210.6 69.6015 208.98C70.5215 207.34 71.7715 206.07 73.3515 205.17C74.9315 204.25 76.6915 203.79 78.6315 203.79C80.5915 203.79 82.3615 204.25 83.9415 205.17C85.5215 206.07 86.7615 207.34 87.6615 208.98C88.5615 210.6 89.0115 212.44 89.0115 214.5C89.0115 216.56 88.5615 218.41 87.6615 220.05C86.7615 221.67 85.5215 222.94 83.9415 223.86C82.3615 224.76 80.5915 225.21 78.6315 225.21ZM78.6315 223.38C80.1915 223.38 81.5915 223.02 82.8315 222.3C84.0715 221.58 85.0515 220.55 85.7715 219.21C86.4915 217.85 86.8515 216.28 86.8515 214.5C86.8515 212.72 86.4915 211.16 85.7715 209.82C85.0515 208.48 84.0715 207.45 82.8315 206.73C81.5915 206.01 80.1915 205.65 78.6315 205.65C77.0715 205.65 75.6715 206.01 74.4315 206.73C73.1915 207.45 72.2115 208.48 71.4915 209.82C70.7715 211.16 70.4115 212.72 70.4115 214.5C70.4115 216.28 70.7715 217.85 71.4915 219.21C72.2115 220.55 73.1915 221.58 74.4315 222.3C75.6715 223.02 77.0715 223.38 78.6315 223.38ZM105.004 220.02H95.4641L93.6341 225H91.4141L99.0641 204.3H101.434L109.054 225H106.834L105.004 220.02ZM104.374 218.28L100.234 206.94L96.0941 218.28H104.374ZM124.694 204.03V205.77H118.874V225H116.774V205.77H110.924V204.03H124.694Z" fill="white"/>
<path d="M310.21 106H308.11L296.5 88.36V106H294.4V85.03H296.5L308.11 102.64V85.03H310.21V106ZM329.156 89.62V106H327.056V103.12C326.576 104.14 325.836 104.92 324.836 105.46C323.836 106 322.716 106.27 321.476 106.27C319.516 106.27 317.916 105.67 316.676 104.47C315.436 103.25 314.816 101.49 314.816 99.19V89.62H316.886V98.95C316.886 100.73 317.326 102.09 318.206 103.03C319.106 103.97 320.326 104.44 321.866 104.44C323.446 104.44 324.706 103.94 325.646 102.94C326.586 101.94 327.056 100.47 327.056 98.53V89.62H329.156ZM324.836 84.79L318.686 88.36V86.74L324.836 82.9V84.79ZM353.451 89.32C355.371 89.32 356.931 89.93 358.131 91.15C359.351 92.35 359.961 94.1 359.961 96.4V106H357.891V96.64C357.891 94.86 357.461 93.5 356.601 92.56C355.741 91.62 354.571 91.15 353.091 91.15C351.551 91.15 350.321 91.66 349.401 92.68C348.481 93.7 348.021 95.18 348.021 97.12V106H345.951V96.64C345.951 94.86 345.521 93.5 344.661 92.56C343.801 91.62 342.621 91.15 341.121 91.15C339.581 91.15 338.351 91.66 337.431 92.68C336.511 93.7 336.051 95.18 336.051 97.12V106H333.951V89.62H336.051V92.44C336.571 91.42 337.311 90.65 338.271 90.13C339.231 89.59 340.301 89.32 341.481 89.32C342.901 89.32 344.141 89.66 345.201 90.34C346.281 91.02 347.061 92.02 347.541 93.34C347.981 92.04 348.731 91.05 349.791 90.37C350.871 89.67 352.091 89.32 353.451 89.32ZM379.445 96.97C379.445 97.69 379.425 98.24 379.385 98.62H365.795C365.855 99.86 366.155 100.92 366.695 101.8C367.235 102.68 367.945 103.35 368.825 103.81C369.705 104.25 370.665 104.47 371.705 104.47C373.065 104.47 374.205 104.14 375.125 103.48C376.065 102.82 376.685 101.93 376.985 100.81H379.205C378.805 102.41 377.945 103.72 376.625 104.74C375.325 105.74 373.685 106.24 371.705 106.24C370.165 106.24 368.785 105.9 367.565 105.22C366.345 104.52 365.385 103.54 364.685 102.28C364.005 101 363.665 99.51 363.665 97.81C363.665 96.11 364.005 94.62 364.685 93.34C365.365 92.06 366.315 91.08 367.535 90.4C368.755 89.72 370.145 89.38 371.705 89.38C373.265 89.38 374.625 89.72 375.785 90.4C376.965 91.08 377.865 92 378.485 93.16C379.125 94.3 379.445 95.57 379.445 96.97ZM377.315 96.91C377.335 95.69 377.085 94.65 376.565 93.79C376.065 92.93 375.375 92.28 374.495 91.84C373.615 91.4 372.655 91.18 371.615 91.18C370.055 91.18 368.725 91.68 367.625 92.68C366.525 93.68 365.915 95.09 365.795 96.91H377.315ZM385.387 92.53C385.847 91.51 386.547 90.72 387.487 90.16C388.447 89.6 389.617 89.32 390.997 89.32V91.51H390.427C388.907 91.51 387.687 91.92 386.767 92.74C385.847 93.56 385.387 94.93 385.387 96.85V106H383.287V89.62H385.387V92.53ZM401.326 106.24C399.786 106.24 398.396 105.9 397.156 105.22C395.936 104.52 394.966 103.54 394.246 102.28C393.546 101 393.196 99.51 393.196 97.81C393.196 96.11 393.556 94.63 394.276 93.37C394.996 92.09 395.976 91.11 397.216 90.43C398.456 89.73 399.846 89.38 401.386 89.38C402.926 89.38 404.316 89.73 405.556 90.43C406.816 91.11 407.796 92.09 408.496 93.37C409.216 94.63 409.576 96.11 409.576 97.81C409.576 99.49 409.216 100.97 408.496 102.25C407.776 103.53 406.786 104.52 405.526 105.22C404.266 105.9 402.866 106.24 401.326 106.24ZM401.326 104.41C402.406 104.41 403.406 104.17 404.326 103.69C405.246 103.19 405.986 102.45 406.546 101.47C407.126 100.47 407.416 99.25 407.416 97.81C407.416 96.37 407.136 95.16 406.576 94.18C406.016 93.18 405.276 92.44 404.356 91.96C403.436 91.46 402.436 91.21 401.356 91.21C400.276 91.21 399.276 91.46 398.356 91.96C397.436 92.44 396.696 93.18 396.136 94.18C395.596 95.16 395.326 96.37 395.326 97.81C395.326 99.25 395.596 100.47 396.136 101.47C396.696 102.45 397.426 103.19 398.326 103.69C399.246 104.17 400.246 104.41 401.326 104.41ZM419.044 106.24C417.164 106.24 415.624 105.81 414.424 104.95C413.244 104.07 412.584 102.88 412.444 101.38H414.604C414.704 102.3 415.134 103.05 415.894 103.63C416.674 104.19 417.714 104.47 419.014 104.47C420.154 104.47 421.044 104.2 421.684 103.66C422.344 103.12 422.674 102.45 422.674 101.65C422.674 101.09 422.494 100.63 422.134 100.27C421.774 99.91 421.314 99.63 420.754 99.43C420.214 99.21 419.474 98.98 418.534 98.74C417.314 98.42 416.324 98.1 415.564 97.78C414.804 97.46 414.154 96.99 413.614 96.37C413.094 95.73 412.834 94.88 412.834 93.82C412.834 93.02 413.074 92.28 413.554 91.6C414.034 90.92 414.714 90.38 415.594 89.98C416.474 89.58 417.474 89.38 418.594 89.38C420.354 89.38 421.774 89.83 422.854 90.73C423.934 91.61 424.514 92.83 424.594 94.39H422.494C422.434 93.43 422.054 92.66 421.354 92.08C420.674 91.48 419.734 91.18 418.534 91.18C417.474 91.18 416.614 91.43 415.954 91.93C415.294 92.43 414.964 93.05 414.964 93.79C414.964 94.43 415.154 94.96 415.534 95.38C415.934 95.78 416.424 96.1 417.004 96.34C417.584 96.56 418.364 96.81 419.344 97.09C420.524 97.41 421.464 97.72 422.164 98.02C422.864 98.32 423.464 98.76 423.964 99.34C424.464 99.92 424.724 100.69 424.744 101.65C424.744 102.53 424.504 103.32 424.024 104.02C423.544 104.7 422.874 105.24 422.014 105.64C421.154 106.04 420.164 106.24 419.044 106.24ZM437.979 86.53C437.559 86.53 437.199 86.38 436.899 86.08C436.599 85.78 436.449 85.41 436.449 84.97C436.449 84.53 436.599 84.17 436.899 83.89C437.199 83.59 437.559 83.44 437.979 83.44C438.399 83.44 438.759 83.59 439.059 83.89C439.359 84.17 439.509 84.53 439.509 84.97C439.509 85.41 439.359 85.78 439.059 86.08C438.759 86.38 438.399 86.53 437.979 86.53ZM439.029 89.62V106H436.929V89.62H439.029ZM451.465 89.32C453.425 89.32 455.025 89.93 456.265 91.15C457.505 92.35 458.125 94.1 458.125 96.4V106H456.055V96.64C456.055 94.86 455.605 93.5 454.705 92.56C453.825 91.62 452.615 91.15 451.075 91.15C449.495 91.15 448.235 91.65 447.295 92.65C446.355 93.65 445.885 95.12 445.885 97.06V106H443.785V89.62H445.885V92.41C446.405 91.41 447.155 90.65 448.135 90.13C449.115 89.59 450.225 89.32 451.465 89.32ZM465.499 91.39V101.56C465.499 102.56 465.689 103.25 466.069 103.63C466.449 104.01 467.119 104.2 468.079 104.2H469.999V106H467.749C466.269 106 465.169 105.66 464.449 104.98C463.729 104.28 463.369 103.14 463.369 101.56V91.39H461.089V89.62H463.369V85.51H465.499V89.62H469.999V91.39H465.499ZM488.283 96.97C488.283 97.69 488.263 98.24 488.223 98.62H474.633C474.693 99.86 474.993 100.92 475.533 101.8C476.073 102.68 476.783 103.35 477.663 103.81C478.543 104.25 479.503 104.47 480.543 104.47C481.903 104.47 483.043 104.14 483.963 103.48C484.903 102.82 485.523 101.93 485.823 100.81H488.043C487.643 102.41 486.783 103.72 485.463 104.74C484.163 105.74 482.523 106.24 480.543 106.24C479.003 106.24 477.623 105.9 476.403 105.22C475.183 104.52 474.223 103.54 473.523 102.28C472.843 101 472.503 99.51 472.503 97.81C472.503 96.11 472.843 94.62 473.523 93.34C474.203 92.06 475.153 91.08 476.373 90.4C477.593 89.72 478.983 89.38 480.543 89.38C482.103 89.38 483.463 89.72 484.623 90.4C485.803 91.08 486.703 92 487.323 93.16C487.963 94.3 488.283 95.57 488.283 96.97ZM486.153 96.91C486.173 95.69 485.923 94.65 485.403 93.79C484.903 92.93 484.213 92.28 483.333 91.84C482.453 91.4 481.493 91.18 480.453 91.18C478.893 91.18 477.563 91.68 476.463 92.68C475.363 93.68 474.753 95.09 474.633 96.91H486.153ZM493.175 86.53C492.755 86.53 492.395 86.38 492.095 86.08C491.795 85.78 491.645 85.41 491.645 84.97C491.645 84.53 491.795 84.17 492.095 83.89C492.395 83.59 492.755 83.44 493.175 83.44C493.595 83.44 493.955 83.59 494.255 83.89C494.555 84.17 494.705 84.53 494.705 84.97C494.705 85.41 494.555 85.78 494.255 86.08C493.955 86.38 493.595 86.53 493.175 86.53ZM494.225 89.62V106H492.125V89.62H494.225ZM501.08 92.53C501.54 91.51 502.24 90.72 503.18 90.16C504.14 89.6 505.31 89.32 506.69 89.32V91.51H506.12C504.6 91.51 503.38 91.92 502.46 92.74C501.54 93.56 501.08 94.93 501.08 96.85V106H498.98V89.62H501.08V92.53ZM517.019 106.24C515.479 106.24 514.089 105.9 512.849 105.22C511.629 104.52 510.659 103.54 509.939 102.28C509.239 101 508.889 99.51 508.889 97.81C508.889 96.11 509.249 94.63 509.969 93.37C510.689 92.09 511.669 91.11 512.909 90.43C514.149 89.73 515.539 89.38 517.079 89.38C518.619 89.38 520.009 89.73 521.249 90.43C522.509 91.11 523.489 92.09 524.189 93.37C524.909 94.63 525.269 96.11 525.269 97.81C525.269 99.49 524.909 100.97 524.189 102.25C523.469 103.53 522.479 104.52 521.219 105.22C519.959 105.9 518.559 106.24 517.019 106.24ZM517.019 104.41C518.099 104.41 519.099 104.17 520.019 103.69C520.939 103.19 521.679 102.45 522.239 101.47C522.819 100.47 523.109 99.25 523.109 97.81C523.109 96.37 522.829 95.16 522.269 94.18C521.709 93.18 520.969 92.44 520.049 91.96C519.129 91.46 518.129 91.21 517.049 91.21C515.969 91.21 514.969 91.46 514.049 91.96C513.129 92.44 512.389 93.18 511.829 94.18C511.289 95.16 511.019 96.37 511.019 97.81C511.019 99.25 511.289 100.47 511.829 101.47C512.389 102.45 513.119 103.19 514.019 103.69C514.939 104.17 515.939 104.41 517.019 104.41ZM534.737 106.24C532.857 106.24 531.317 105.81 530.117 104.95C528.937 104.07 528.277 102.88 528.137 101.38H530.297C530.397 102.3 530.827 103.05 531.587 103.63C532.367 104.19 533.407 104.47 534.707 104.47C535.847 104.47 536.737 104.2 537.377 103.66C538.037 103.12 538.367 102.45 538.367 101.65C538.367 101.09 538.187 100.63 537.827 100.27C537.467 99.91 537.007 99.63 536.447 99.43C535.907 99.21 535.167 98.98 534.227 98.74C533.007 98.42 532.017 98.1 531.257 97.78C530.497 97.46 529.847 96.99 529.307 96.37C528.787 95.73 528.527 94.88 528.527 93.82C528.527 93.02 528.767 92.28 529.247 91.6C529.727 90.92 530.407 90.38 531.287 89.98C532.167 89.58 533.167 89.38 534.287 89.38C536.047 89.38 537.467 89.83 538.547 90.73C539.627 91.61 540.207 92.83 540.287 94.39H538.187C538.127 93.43 537.747 92.66 537.047 92.08C536.367 91.48 535.427 91.18 534.227 91.18C533.167 91.18 532.307 91.43 531.647 91.93C530.987 92.43 530.657 93.05 530.657 93.79C530.657 94.43 530.847 94.96 531.227 95.38C531.627 95.78 532.117 96.1 532.697 96.34C533.277 96.56 534.057 96.81 535.037 97.09C536.217 97.41 537.157 97.72 537.857 98.02C538.557 98.32 539.157 98.76 539.657 99.34C540.157 99.92 540.417 100.69 540.437 101.65C540.437 102.53 540.197 103.32 539.717 104.02C539.237 104.7 538.567 105.24 537.707 105.64C536.847 106.04 535.857 106.24 534.737 106.24ZM554.693 93.22C555.213 92.12 556.033 91.21 557.153 90.49C558.293 89.75 559.643 89.38 561.203 89.38C562.683 89.38 564.013 89.73 565.193 90.43C566.393 91.11 567.323 92.09 567.983 93.37C568.663 94.63 569.003 96.1 569.003 97.78C569.003 99.46 568.663 100.94 567.983 102.22C567.323 103.5 566.393 104.49 565.193 105.19C564.013 105.89 562.683 106.24 561.203 106.24C559.663 106.24 558.323 105.88 557.183 105.16C556.043 104.42 555.213 103.5 554.693 102.4V113.74H552.623V89.62H554.693V93.22ZM566.873 97.78C566.873 96.42 566.603 95.25 566.063 94.27C565.543 93.27 564.823 92.51 563.903 91.99C562.983 91.47 561.943 91.21 560.783 91.21C559.663 91.21 558.633 91.48 557.693 92.02C556.773 92.56 556.043 93.33 555.503 94.33C554.963 95.33 554.693 96.49 554.693 97.81C554.693 99.13 554.963 100.29 555.503 101.29C556.043 102.29 556.773 103.06 557.693 103.6C558.633 104.14 559.663 104.41 560.783 104.41C561.943 104.41 562.983 104.15 563.903 103.63C564.823 103.09 565.543 102.32 566.063 101.32C566.603 100.3 566.873 99.12 566.873 97.78ZM580.037 106.24C578.497 106.24 577.107 105.9 575.867 105.22C574.647 104.52 573.677 103.54 572.957 102.28C572.257 101 571.907 99.51 571.907 97.81C571.907 96.11 572.267 94.63 572.987 93.37C573.707 92.09 574.687 91.11 575.927 90.43C577.167 89.73 578.557 89.38 580.097 89.38C581.637 89.38 583.027 89.73 584.267 90.43C585.527 91.11 586.507 92.09 587.207 93.37C587.927 94.63 588.287 96.11 588.287 97.81C588.287 99.49 587.927 100.97 587.207 102.25C586.487 103.53 585.497 104.52 584.237 105.22C582.977 105.9 581.577 106.24 580.037 106.24ZM580.037 104.41C581.117 104.41 582.117 104.17 583.037 103.69C583.957 103.19 584.697 102.45 585.257 101.47C585.837 100.47 586.127 99.25 586.127 97.81C586.127 96.37 585.847 95.16 585.287 94.18C584.727 93.18 583.987 92.44 583.067 91.96C582.147 91.46 581.147 91.21 580.067 91.21C578.987 91.21 577.987 91.46 577.067 91.96C576.147 92.44 575.407 93.18 574.847 94.18C574.307 95.16 574.037 96.37 574.037 97.81C574.037 99.25 574.307 100.47 574.847 101.47C575.407 102.45 576.137 103.19 577.037 103.69C577.957 104.17 578.957 104.41 580.037 104.41ZM597.755 106.24C595.875 106.24 594.335 105.81 593.135 104.95C591.955 104.07 591.295 102.88 591.155 101.38H593.315C593.415 102.3 593.845 103.05 594.605 103.63C595.385 104.19 596.425 104.47 597.725 104.47C598.865 104.47 599.755 104.2 600.395 103.66C601.055 103.12 601.385 102.45 601.385 101.65C601.385 101.09 601.205 100.63 600.845 100.27C600.485 99.91 600.025 99.63 599.465 99.43C598.925 99.21 598.185 98.98 597.245 98.74C596.025 98.42 595.035 98.1 594.275 97.78C593.515 97.46 592.865 96.99 592.325 96.37C591.805 95.73 591.545 94.88 591.545 93.82C591.545 93.02 591.785 92.28 592.265 91.6C592.745 90.92 593.425 90.38 594.305 89.98C595.185 89.58 596.185 89.38 597.305 89.38C599.065 89.38 600.485 89.83 601.565 90.73C602.645 91.61 603.225 92.83 603.305 94.39H601.205C601.145 93.43 600.765 92.66 600.065 92.08C599.385 91.48 598.445 91.18 597.245 91.18C596.185 91.18 595.325 91.43 594.665 91.93C594.005 92.43 593.675 93.05 593.675 93.79C593.675 94.43 593.865 94.96 594.245 95.38C594.645 95.78 595.135 96.1 595.715 96.34C596.295 96.56 597.075 96.81 598.055 97.09C599.235 97.41 600.175 97.72 600.875 98.02C601.575 98.32 602.175 98.76 602.675 99.34C603.175 99.92 603.435 100.69 603.455 101.65C603.455 102.53 603.215 103.32 602.735 104.02C602.255 104.7 601.585 105.24 600.725 105.64C599.865 106.04 598.875 106.24 597.755 106.24ZM608.458 86.53C608.038 86.53 607.678 86.38 607.378 86.08C607.078 85.78 606.928 85.41 606.928 84.97C606.928 84.53 607.078 84.17 607.378 83.89C607.678 83.59 608.038 83.44 608.458 83.44C608.878 83.44 609.238 83.59 609.538 83.89C609.838 84.17 609.988 84.53 609.988 84.97C609.988 85.41 609.838 85.78 609.538 86.08C609.238 86.38 608.878 86.53 608.458 86.53ZM609.508 89.62V106H607.408V89.62H609.508ZM616.993 91.39V101.56C616.993 102.56 617.183 103.25 617.563 103.63C617.943 104.01 618.613 104.2 619.573 104.2H621.493V106H619.243C617.763 106 616.663 105.66 615.943 104.98C615.223 104.28 614.863 103.14 614.863 101.56V91.39H612.583V89.62H614.863V85.51H616.993V89.62H621.493V91.39H616.993ZM626.007 86.53C625.587 86.53 625.227 86.38 624.927 86.08C624.627 85.78 624.477 85.41 624.477 84.97C624.477 84.53 624.627 84.17 624.927 83.89C625.227 83.59 625.587 83.44 626.007 83.44C626.427 83.44 626.787 83.59 627.087 83.89C627.387 84.17 627.537 84.53 627.537 84.97C627.537 85.41 627.387 85.78 627.087 86.08C626.787 86.38 626.427 86.53 626.007 86.53ZM627.057 89.62V106H624.957V89.62H627.057ZM637.632 103.96L643.152 89.62H645.372L638.802 106H636.432L629.862 89.62H632.112L637.632 103.96ZM655.388 106.24C653.848 106.24 652.458 105.9 651.218 105.22C649.998 104.52 649.028 103.54 648.308 102.28C647.608 101 647.258 99.51 647.258 97.81C647.258 96.11 647.618 94.63 648.338 93.37C649.058 92.09 650.038 91.11 651.278 90.43C652.518 89.73 653.908 89.38 655.448 89.38C656.988 89.38 658.378 89.73 659.618 90.43C660.878 91.11 661.858 92.09 662.558 93.37C663.278 94.63 663.638 96.11 663.638 97.81C663.638 99.49 663.278 100.97 662.558 102.25C661.838 103.53 660.848 104.52 659.588 105.22C658.328 105.9 656.928 106.24 655.388 106.24ZM655.388 104.41C656.468 104.41 657.468 104.17 658.388 103.69C659.308 103.19 660.048 102.45 660.608 101.47C661.188 100.47 661.478 99.25 661.478 97.81C661.478 96.37 661.198 95.16 660.638 94.18C660.078 93.18 659.338 92.44 658.418 91.96C657.498 91.46 656.498 91.21 655.418 91.21C654.338 91.21 653.338 91.46 652.418 91.96C651.498 92.44 650.758 93.18 650.198 94.18C649.658 95.16 649.388 96.37 649.388 97.81C649.388 99.25 649.658 100.47 650.198 101.47C650.758 102.45 651.488 103.19 652.388 103.69C653.308 104.17 654.308 104.41 655.388 104.41ZM673.106 106.24C671.226 106.24 669.686 105.81 668.486 104.95C667.306 104.07 666.646 102.88 666.506 101.38H668.666C668.766 102.3 669.196 103.05 669.956 103.63C670.736 104.19 671.776 104.47 673.076 104.47C674.216 104.47 675.106 104.2 675.746 103.66C676.406 103.12 676.736 102.45 676.736 101.65C676.736 101.09 676.556 100.63 676.196 100.27C675.836 99.91 675.376 99.63 674.816 99.43C674.276 99.21 673.536 98.98 672.596 98.74C671.376 98.42 670.386 98.1 669.626 97.78C668.866 97.46 668.216 96.99 667.676 96.37C667.156 95.73 666.896 94.88 666.896 93.82C666.896 93.02 667.136 92.28 667.616 91.6C668.096 90.92 668.776 90.38 669.656 89.98C670.536 89.58 671.536 89.38 672.656 89.38C674.416 89.38 675.836 89.83 676.916 90.73C677.996 91.61 678.576 92.83 678.656 94.39H676.556C676.496 93.43 676.116 92.66 675.416 92.08C674.736 91.48 673.796 91.18 672.596 91.18C671.536 91.18 670.676 91.43 670.016 91.93C669.356 92.43 669.026 93.05 669.026 93.79C669.026 94.43 669.216 94.96 669.596 95.38C669.996 95.78 670.486 96.1 671.066 96.34C671.646 96.56 672.426 96.81 673.406 97.09C674.586 97.41 675.526 97.72 676.226 98.02C676.926 98.32 677.526 98.76 678.026 99.34C678.526 99.92 678.786 100.69 678.806 101.65C678.806 102.53 678.566 103.32 678.086 104.02C677.606 104.7 676.936 105.24 676.076 105.64C675.216 106.04 674.226 106.24 673.106 106.24ZM309.22 141.97C309.22 142.69 309.2 143.24 309.16 143.62H295.57C295.63 144.86 295.93 145.92 296.47 146.8C297.01 147.68 297.72 148.35 298.6 148.81C299.48 149.25 300.44 149.47 301.48 149.47C302.84 149.47 303.98 149.14 304.9 148.48C305.84 147.82 306.46 146.93 306.76 145.81H308.98C308.58 147.41 307.72 148.72 306.4 149.74C305.1 150.74 303.46 151.24 301.48 151.24C299.94 151.24 298.56 150.9 297.34 150.22C296.12 149.52 295.16 148.54 294.46 147.28C293.78 146 293.44 144.51 293.44 142.81C293.44 141.11 293.78 139.62 294.46 138.34C295.14 137.06 296.09 136.08 297.31 135.4C298.53 134.72 299.92 134.38 301.48 134.38C303.04 134.38 304.4 134.72 305.56 135.4C306.74 136.08 307.64 137 308.26 138.16C308.9 139.3 309.22 140.57 309.22 141.97ZM307.09 141.91C307.11 140.69 306.86 139.65 306.34 138.79C305.84 137.93 305.15 137.28 304.27 136.84C303.39 136.4 302.43 136.18 301.39 136.18C299.83 136.18 298.5 136.68 297.4 137.68C296.3 138.68 295.69 140.09 295.57 141.91H307.09ZM328.975 134.32C330.935 134.32 332.535 134.93 333.775 136.15C335.015 137.35 335.635 139.1 335.635 141.4V151H333.565V141.64C333.565 139.86 333.115 138.5 332.215 137.56C331.335 136.62 330.125 136.15 328.585 136.15C327.005 136.15 325.745 136.65 324.805 137.65C323.865 138.65 323.395 140.12 323.395 142.06V151H321.295V134.62H323.395V137.41C323.915 136.41 324.665 135.65 325.645 135.13C326.625 134.59 327.735 134.32 328.975 134.32ZM355.099 141.97C355.099 142.69 355.079 143.24 355.039 143.62H341.449C341.509 144.86 341.809 145.92 342.349 146.8C342.889 147.68 343.599 148.35 344.479 148.81C345.359 149.25 346.319 149.47 347.359 149.47C348.719 149.47 349.859 149.14 350.779 148.48C351.719 147.82 352.339 146.93 352.639 145.81H354.859C354.459 147.41 353.599 148.72 352.279 149.74C350.979 150.74 349.339 151.24 347.359 151.24C345.819 151.24 344.439 150.9 343.219 150.22C341.999 149.52 341.039 148.54 340.339 147.28C339.659 146 339.319 144.51 339.319 142.81C339.319 141.11 339.659 139.62 340.339 138.34C341.019 137.06 341.969 136.08 343.189 135.4C344.409 134.72 345.799 134.38 347.359 134.38C348.919 134.38 350.279 134.72 351.439 135.4C352.619 136.08 353.519 137 354.139 138.16C354.779 139.3 355.099 140.57 355.099 141.97ZM352.969 141.91C352.989 140.69 352.739 139.65 352.219 138.79C351.719 137.93 351.029 137.28 350.149 136.84C349.269 136.4 348.309 136.18 347.269 136.18C345.709 136.18 344.379 136.68 343.279 137.68C342.179 138.68 341.569 140.09 341.449 141.91H352.969ZM365.811 134.38C367.351 134.38 368.691 134.74 369.831 135.46C370.971 136.18 371.791 137.09 372.291 138.19V134.62H374.391V151.42C374.391 152.92 374.061 154.25 373.401 155.41C372.761 156.57 371.861 157.46 370.701 158.08C369.541 158.72 368.221 159.04 366.741 159.04C364.641 159.04 362.891 158.54 361.491 157.54C360.111 156.54 359.251 155.18 358.911 153.46H360.981C361.341 154.6 362.021 155.51 363.021 156.19C364.041 156.87 365.281 157.21 366.741 157.21C367.801 157.21 368.751 156.98 369.591 156.52C370.431 156.08 371.091 155.42 371.571 154.54C372.051 153.66 372.291 152.62 372.291 151.42V147.37C371.771 148.49 370.941 149.42 369.801 150.16C368.681 150.88 367.351 151.24 365.811 151.24C364.311 151.24 362.961 150.89 361.761 150.19C360.581 149.49 359.651 148.5 358.971 147.22C358.311 145.94 357.981 144.46 357.981 142.78C357.981 141.1 358.311 139.63 358.971 138.37C359.651 137.09 360.581 136.11 361.761 135.43C362.961 134.73 364.311 134.38 365.811 134.38ZM372.291 142.81C372.291 141.49 372.021 140.33 371.481 139.33C370.941 138.33 370.201 137.56 369.261 137.02C368.341 136.48 367.321 136.21 366.201 136.21C365.041 136.21 364.001 136.47 363.081 136.99C362.161 137.51 361.431 138.27 360.891 139.27C360.371 140.25 360.111 141.42 360.111 142.78C360.111 144.12 360.371 145.3 360.891 146.32C361.431 147.32 362.161 148.09 363.081 148.63C364.001 149.15 365.041 149.41 366.201 149.41C367.321 149.41 368.341 149.14 369.261 148.6C370.201 148.06 370.941 147.29 371.481 146.29C372.021 145.29 372.291 144.13 372.291 142.81ZM378.225 142.78C378.225 141.1 378.555 139.63 379.215 138.37C379.895 137.09 380.825 136.11 382.005 135.43C383.205 134.73 384.555 134.38 386.055 134.38C387.615 134.38 388.955 134.74 390.075 135.46C391.215 136.18 392.035 137.1 392.535 138.22V134.62H394.635V151H392.535V147.37C392.015 148.49 391.185 149.42 390.045 150.16C388.925 150.88 387.585 151.24 386.025 151.24C384.545 151.24 383.205 150.89 382.005 150.19C380.825 149.49 379.895 148.5 379.215 147.22C378.555 145.94 378.225 144.46 378.225 142.78ZM392.535 142.81C392.535 141.49 392.265 140.33 391.725 139.33C391.185 138.33 390.445 137.56 389.505 137.02C388.585 136.48 387.565 136.21 386.445 136.21C385.285 136.21 384.245 136.47 383.325 136.99C382.405 137.51 381.675 138.27 381.135 139.27C380.615 140.25 380.355 141.42 380.355 142.78C380.355 144.12 380.615 145.3 381.135 146.32C381.675 147.32 382.405 148.09 383.325 148.63C384.245 149.15 385.285 149.41 386.445 149.41C387.565 149.41 388.585 149.14 389.505 148.6C390.445 148.06 391.185 147.29 391.725 146.29C392.265 145.29 392.535 144.13 392.535 142.81ZM402.159 136.39V146.56C402.159 147.56 402.349 148.25 402.729 148.63C403.109 149.01 403.779 149.2 404.739 149.2H406.659V151H404.409C402.929 151 401.829 150.66 401.109 149.98C400.389 149.28 400.029 148.14 400.029 146.56V136.39H397.749V134.62H400.029V130.51H402.159V134.62H406.659V136.39H402.159ZM411.173 131.53C410.753 131.53 410.393 131.38 410.093 131.08C409.793 130.78 409.643 130.41 409.643 129.97C409.643 129.53 409.793 129.17 410.093 128.89C410.393 128.59 410.753 128.44 411.173 128.44C411.593 128.44 411.953 128.59 412.253 128.89C412.553 129.17 412.703 129.53 412.703 129.97C412.703 130.41 412.553 130.78 412.253 131.08C411.953 131.38 411.593 131.53 411.173 131.53ZM412.223 134.62V151H410.123V134.62H412.223ZM422.798 148.96L428.318 134.62H430.538L423.968 151H421.598L415.028 134.62H417.278L422.798 148.96ZM440.554 151.24C439.014 151.24 437.624 150.9 436.384 150.22C435.164 149.52 434.194 148.54 433.474 147.28C432.774 146 432.424 144.51 432.424 142.81C432.424 141.11 432.784 139.63 433.504 138.37C434.224 137.09 435.204 136.11 436.444 135.43C437.684 134.73 439.074 134.38 440.614 134.38C442.154 134.38 443.544 134.73 444.784 135.43C446.044 136.11 447.024 137.09 447.724 138.37C448.444 139.63 448.804 141.11 448.804 142.81C448.804 144.49 448.444 145.97 447.724 147.25C447.004 148.53 446.014 149.52 444.754 150.22C443.494 150.9 442.094 151.24 440.554 151.24ZM440.554 149.41C441.634 149.41 442.634 149.17 443.554 148.69C444.474 148.19 445.214 147.45 445.774 146.47C446.354 145.47 446.644 144.25 446.644 142.81C446.644 141.37 446.364 140.16 445.804 139.18C445.244 138.18 444.504 137.44 443.584 136.96C442.664 136.46 441.664 136.21 440.584 136.21C439.504 136.21 438.504 136.46 437.584 136.96C436.664 137.44 435.924 138.18 435.364 139.18C434.824 140.16 434.554 141.37 434.554 142.81C434.554 144.25 434.824 145.47 435.364 146.47C435.924 147.45 436.654 148.19 437.554 148.69C438.474 149.17 439.474 149.41 440.554 149.41ZM458.272 151.24C456.392 151.24 454.852 150.81 453.652 149.95C452.472 149.07 451.812 147.88 451.672 146.38H453.832C453.932 147.3 454.362 148.05 455.122 148.63C455.902 149.19 456.942 149.47 458.242 149.47C459.382 149.47 460.272 149.2 460.912 148.66C461.572 148.12 461.902 147.45 461.902 146.65C461.902 146.09 461.722 145.63 461.362 145.27C461.002 144.91 460.542 144.63 459.982 144.43C459.442 144.21 458.702 143.98 457.762 143.74C456.542 143.42 455.552 143.1 454.792 142.78C454.032 142.46 453.382 141.99 452.842 141.37C452.322 140.73 452.062 139.88 452.062 138.82C452.062 138.02 452.302 137.28 452.782 136.6C453.262 135.92 453.942 135.38 454.822 134.98C455.702 134.58 456.702 134.38 457.822 134.38C459.582 134.38 461.002 134.83 462.082 135.73C463.162 136.61 463.742 137.83 463.822 139.39H461.722C461.662 138.43 461.282 137.66 460.582 137.08C459.902 136.48 458.962 136.18 457.762 136.18C456.702 136.18 455.842 136.43 455.182 136.93C454.522 137.43 454.192 138.05 454.192 138.79C454.192 139.43 454.382 139.96 454.762 140.38C455.162 140.78 455.652 141.1 456.232 141.34C456.812 141.56 457.592 141.81 458.572 142.09C459.752 142.41 460.692 142.72 461.392 143.02C462.092 143.32 462.692 143.76 463.192 144.34C463.692 144.92 463.952 145.69 463.972 146.65C463.972 147.53 463.732 148.32 463.252 149.02C462.772 149.7 462.102 150.24 461.242 150.64C460.382 151.04 459.392 151.24 458.272 151.24Z" fill="#E5E5E5"/>
<path d="M310.21 230H308.11L296.5 212.36V230H294.4V209.03H296.5L308.11 226.64V209.03H310.21V230ZM329.156 213.62V230H327.056V227.12C326.576 228.14 325.836 228.92 324.836 229.46C323.836 230 322.716 230.27 321.476 230.27C319.516 230.27 317.916 229.67 316.676 228.47C315.436 227.25 314.816 225.49 314.816 223.19V213.62H316.886V222.95C316.886 224.73 317.326 226.09 318.206 227.03C319.106 227.97 320.326 228.44 321.866 228.44C323.446 228.44 324.706 227.94 325.646 226.94C326.586 225.94 327.056 224.47 327.056 222.53V213.62H329.156ZM324.836 208.79L318.686 212.36V210.74L324.836 206.9V208.79ZM353.451 213.32C355.371 213.32 356.931 213.93 358.131 215.15C359.351 216.35 359.961 218.1 359.961 220.4V230H357.891V220.64C357.891 218.86 357.461 217.5 356.601 216.56C355.741 215.62 354.571 215.15 353.091 215.15C351.551 215.15 350.321 215.66 349.401 216.68C348.481 217.7 348.021 219.18 348.021 221.12V230H345.951V220.64C345.951 218.86 345.521 217.5 344.661 216.56C343.801 215.62 342.621 215.15 341.121 215.15C339.581 215.15 338.351 215.66 337.431 216.68C336.511 217.7 336.051 219.18 336.051 221.12V230H333.951V213.62H336.051V216.44C336.571 215.42 337.311 214.65 338.271 214.13C339.231 213.59 340.301 213.32 341.481 213.32C342.901 213.32 344.141 213.66 345.201 214.34C346.281 215.02 347.061 216.02 347.541 217.34C347.981 216.04 348.731 215.05 349.791 214.37C350.871 213.67 352.091 213.32 353.451 213.32ZM379.445 220.97C379.445 221.69 379.425 222.24 379.385 222.62H365.795C365.855 223.86 366.155 224.92 366.695 225.8C367.235 226.68 367.945 227.35 368.825 227.81C369.705 228.25 370.665 228.47 371.705 228.47C373.065 228.47 374.205 228.14 375.125 227.48C376.065 226.82 376.685 225.93 376.985 224.81H379.205C378.805 226.41 377.945 227.72 376.625 228.74C375.325 229.74 373.685 230.24 371.705 230.24C370.165 230.24 368.785 229.9 367.565 229.22C366.345 228.52 365.385 227.54 364.685 226.28C364.005 225 363.665 223.51 363.665 221.81C363.665 220.11 364.005 218.62 364.685 217.34C365.365 216.06 366.315 215.08 367.535 214.4C368.755 213.72 370.145 213.38 371.705 213.38C373.265 213.38 374.625 213.72 375.785 214.4C376.965 215.08 377.865 216 378.485 217.16C379.125 218.3 379.445 219.57 379.445 220.97ZM377.315 220.91C377.335 219.69 377.085 218.65 376.565 217.79C376.065 216.93 375.375 216.28 374.495 215.84C373.615 215.4 372.655 215.18 371.615 215.18C370.055 215.18 368.725 215.68 367.625 216.68C366.525 217.68 365.915 219.09 365.795 220.91H377.315ZM385.387 216.53C385.847 215.51 386.547 214.72 387.487 214.16C388.447 213.6 389.617 213.32 390.997 213.32V215.51H390.427C388.907 215.51 387.687 215.92 386.767 216.74C385.847 217.56 385.387 218.93 385.387 220.85V230H383.287V213.62H385.387V216.53ZM401.326 230.24C399.786 230.24 398.396 229.9 397.156 229.22C395.936 228.52 394.966 227.54 394.246 226.28C393.546 225 393.196 223.51 393.196 221.81C393.196 220.11 393.556 218.63 394.276 217.37C394.996 216.09 395.976 215.11 397.216 214.43C398.456 213.73 399.846 213.38 401.386 213.38C402.926 213.38 404.316 213.73 405.556 214.43C406.816 215.11 407.796 216.09 408.496 217.37C409.216 218.63 409.576 220.11 409.576 221.81C409.576 223.49 409.216 224.97 408.496 226.25C407.776 227.53 406.786 228.52 405.526 229.22C404.266 229.9 402.866 230.24 401.326 230.24ZM401.326 228.41C402.406 228.41 403.406 228.17 404.326 227.69C405.246 227.19 405.986 226.45 406.546 225.47C407.126 224.47 407.416 223.25 407.416 221.81C407.416 220.37 407.136 219.16 406.576 218.18C406.016 217.18 405.276 216.44 404.356 215.96C403.436 215.46 402.436 215.21 401.356 215.21C400.276 215.21 399.276 215.46 398.356 215.96C397.436 216.44 396.696 217.18 396.136 218.18C395.596 219.16 395.326 220.37 395.326 221.81C395.326 223.25 395.596 224.47 396.136 225.47C396.696 226.45 397.426 227.19 398.326 227.69C399.246 228.17 400.246 228.41 401.326 228.41ZM419.044 230.24C417.164 230.24 415.624 229.81 414.424 228.95C413.244 228.07 412.584 226.88 412.444 225.38H414.604C414.704 226.3 415.134 227.05 415.894 227.63C416.674 228.19 417.714 228.47 419.014 228.47C420.154 228.47 421.044 228.2 421.684 227.66C422.344 227.12 422.674 226.45 422.674 225.65C422.674 225.09 422.494 224.63 422.134 224.27C421.774 223.91 421.314 223.63 420.754 223.43C420.214 223.21 419.474 222.98 418.534 222.74C417.314 222.42 416.324 222.1 415.564 221.78C414.804 221.46 414.154 220.99 413.614 220.37C413.094 219.73 412.834 218.88 412.834 217.82C412.834 217.02 413.074 216.28 413.554 215.6C414.034 214.92 414.714 214.38 415.594 213.98C416.474 213.58 417.474 213.38 418.594 213.38C420.354 213.38 421.774 213.83 422.854 214.73C423.934 215.61 424.514 216.83 424.594 218.39H422.494C422.434 217.43 422.054 216.66 421.354 216.08C420.674 215.48 419.734 215.18 418.534 215.18C417.474 215.18 416.614 215.43 415.954 215.93C415.294 216.43 414.964 217.05 414.964 217.79C414.964 218.43 415.154 218.96 415.534 219.38C415.934 219.78 416.424 220.1 417.004 220.34C417.584 220.56 418.364 220.81 419.344 221.09C420.524 221.41 421.464 221.72 422.164 222.02C422.864 222.32 423.464 222.76 423.964 223.34C424.464 223.92 424.724 224.69 424.744 225.65C424.744 226.53 424.504 227.32 424.024 228.02C423.544 228.7 422.874 229.24 422.014 229.64C421.154 230.04 420.164 230.24 419.044 230.24ZM443.379 215.39H439.569V230H437.469V215.39H435.189V213.62H437.469V212.48C437.469 210.7 437.919 209.39 438.819 208.55C439.739 207.71 441.219 207.29 443.259 207.29V209.09C441.899 209.09 440.939 209.35 440.379 209.87C439.839 210.39 439.569 211.26 439.569 212.48V213.62H443.379V215.39ZM448.785 216.53C449.245 215.51 449.945 214.72 450.885 214.16C451.845 213.6 453.015 213.32 454.395 213.32V215.51H453.825C452.305 215.51 451.085 215.92 450.165 216.74C449.245 217.56 448.785 218.93 448.785 220.85V230H446.685V213.62H448.785V216.53ZM456.594 221.78C456.594 220.1 456.924 218.63 457.584 217.37C458.264 216.09 459.194 215.11 460.374 214.43C461.574 213.73 462.924 213.38 464.424 213.38C465.984 213.38 467.324 213.74 468.444 214.46C469.584 215.18 470.404 216.1 470.904 217.22V213.62H473.004V230H470.904V226.37C470.384 227.49 469.554 228.42 468.414 229.16C467.294 229.88 465.954 230.24 464.394 230.24C462.914 230.24 461.574 229.89 460.374 229.19C459.194 228.49 458.264 227.5 457.584 226.22C456.924 224.94 456.594 223.46 456.594 221.78ZM470.904 221.81C470.904 220.49 470.634 219.33 470.094 218.33C469.554 217.33 468.814 216.56 467.874 216.02C466.954 215.48 465.934 215.21 464.814 215.21C463.654 215.21 462.614 215.47 461.694 215.99C460.774 216.51 460.044 217.27 459.504 218.27C458.984 219.25 458.724 220.42 458.724 221.78C458.724 223.12 458.984 224.3 459.504 225.32C460.044 226.32 460.774 227.09 461.694 227.63C462.614 228.15 463.654 228.41 464.814 228.41C465.934 228.41 466.954 228.14 467.874 227.6C468.814 227.06 469.554 226.29 470.094 225.29C470.634 224.29 470.904 223.13 470.904 221.81ZM476.838 221.81C476.838 220.11 477.178 218.63 477.858 217.37C478.538 216.09 479.478 215.11 480.678 214.43C481.878 213.73 483.248 213.38 484.788 213.38C486.808 213.38 488.468 213.88 489.768 214.88C491.088 215.88 491.938 217.24 492.318 218.96H490.068C489.788 217.78 489.178 216.86 488.238 216.2C487.318 215.52 486.168 215.18 484.788 215.18C483.688 215.18 482.698 215.43 481.818 215.93C480.938 216.43 480.238 217.18 479.718 218.18C479.218 219.16 478.968 220.37 478.968 221.81C478.968 223.25 479.218 224.47 479.718 225.47C480.238 226.47 480.938 227.22 481.818 227.72C482.698 228.22 483.688 228.47 484.788 228.47C486.168 228.47 487.318 228.14 488.238 227.48C489.178 226.8 489.788 225.86 490.068 224.66H492.318C491.938 226.34 491.088 227.69 489.768 228.71C488.448 229.73 486.788 230.24 484.788 230.24C483.248 230.24 481.878 229.9 480.678 229.22C479.478 228.52 478.538 227.54 477.858 226.28C477.178 225 476.838 223.51 476.838 221.81ZM497.247 210.53C496.827 210.53 496.467 210.38 496.167 210.08C495.867 209.78 495.717 209.41 495.717 208.97C495.717 208.53 495.867 208.17 496.167 207.89C496.467 207.59 496.827 207.44 497.247 207.44C497.667 207.44 498.027 207.59 498.327 207.89C498.627 208.17 498.777 208.53 498.777 208.97C498.777 209.41 498.627 209.78 498.327 210.08C498.027 210.38 497.667 210.53 497.247 210.53ZM498.297 213.62V230H496.197V213.62H498.297ZM510.222 230.24C508.682 230.24 507.292 229.9 506.052 229.22C504.832 228.52 503.862 227.54 503.142 226.28C502.442 225 502.092 223.51 502.092 221.81C502.092 220.11 502.452 218.63 503.172 217.37C503.892 216.09 504.872 215.11 506.112 214.43C507.352 213.73 508.742 213.38 510.282 213.38C511.822 213.38 513.212 213.73 514.452 214.43C515.712 215.11 516.692 216.09 517.392 217.37C518.112 218.63 518.472 220.11 518.472 221.81C518.472 223.49 518.112 224.97 517.392 226.25C516.672 227.53 515.682 228.52 514.422 229.22C513.162 229.9 511.762 230.24 510.222 230.24ZM510.222 228.41C511.302 228.41 512.302 228.17 513.222 227.69C514.142 227.19 514.882 226.45 515.442 225.47C516.022 224.47 516.312 223.25 516.312 221.81C516.312 220.37 516.032 219.16 515.472 218.18C514.912 217.18 514.172 216.44 513.252 215.96C512.332 215.46 511.332 215.21 510.252 215.21C509.172 215.21 508.172 215.46 507.252 215.96C506.332 216.44 505.592 217.18 505.032 218.18C504.492 219.16 504.222 220.37 504.222 221.81C504.222 223.25 504.492 224.47 505.032 225.47C505.592 226.45 506.322 227.19 507.222 227.69C508.142 228.17 509.142 228.41 510.222 228.41ZM529.98 213.32C531.94 213.32 533.54 213.93 534.78 215.15C536.02 216.35 536.64 218.1 536.64 220.4V230H534.57V220.64C534.57 218.86 534.12 217.5 533.22 216.56C532.34 215.62 531.13 215.15 529.59 215.15C528.01 215.15 526.75 215.65 525.81 216.65C524.87 217.65 524.4 219.12 524.4 221.06V230H522.3V213.62H524.4V216.41C524.92 215.41 525.67 214.65 526.65 214.13C527.63 213.59 528.74 213.32 529.98 213.32ZM540.325 221.78C540.325 220.1 540.655 218.63 541.315 217.37C541.995 216.09 542.925 215.11 544.105 214.43C545.305 213.73 546.655 213.38 548.155 213.38C549.715 213.38 551.055 213.74 552.175 214.46C553.315 215.18 554.135 216.1 554.635 217.22V213.62H556.735V230H554.635V226.37C554.115 227.49 553.285 228.42 552.145 229.16C551.025 229.88 549.685 230.24 548.125 230.24C546.645 230.24 545.305 229.89 544.105 229.19C542.925 228.49 541.995 227.5 541.315 226.22C540.655 224.94 540.325 223.46 540.325 221.78ZM554.635 221.81C554.635 220.49 554.365 219.33 553.825 218.33C553.285 217.33 552.545 216.56 551.605 216.02C550.685 215.48 549.665 215.21 548.545 215.21C547.385 215.21 546.345 215.47 545.425 215.99C544.505 216.51 543.775 217.27 543.235 218.27C542.715 219.25 542.455 220.42 542.455 221.78C542.455 223.12 542.715 224.3 543.235 225.32C543.775 226.32 544.505 227.09 545.425 227.63C546.345 228.15 547.385 228.41 548.545 228.41C549.665 228.41 550.685 228.14 551.605 227.6C552.545 227.06 553.285 226.29 553.825 225.29C554.365 224.29 554.635 223.13 554.635 221.81ZM551.815 208.79L545.665 212.36V210.74L551.815 206.9V208.79ZM563.629 216.53C564.089 215.51 564.789 214.72 565.729 214.16C566.689 213.6 567.859 213.32 569.239 213.32V215.51H568.669C567.149 215.51 565.929 215.92 565.009 216.74C564.089 217.56 563.629 218.93 563.629 220.85V230H561.529V213.62H563.629V216.53ZM573.448 210.53C573.028 210.53 572.668 210.38 572.368 210.08C572.068 209.78 571.918 209.41 571.918 208.97C571.918 208.53 572.068 208.17 572.368 207.89C572.668 207.59 573.028 207.44 573.448 207.44C573.868 207.44 574.228 207.59 574.528 207.89C574.828 208.17 574.978 208.53 574.978 208.97C574.978 209.41 574.828 209.78 574.528 210.08C574.228 210.38 573.868 210.53 573.448 210.53ZM574.498 213.62V230H572.398V213.62H574.498ZM586.424 230.24C584.884 230.24 583.494 229.9 582.254 229.22C581.034 228.52 580.064 227.54 579.344 226.28C578.644 225 578.294 223.51 578.294 221.81C578.294 220.11 578.654 218.63 579.374 217.37C580.094 216.09 581.074 215.11 582.314 214.43C583.554 213.73 584.944 213.38 586.484 213.38C588.024 213.38 589.414 213.73 590.654 214.43C591.914 215.11 592.894 216.09 593.594 217.37C594.314 218.63 594.674 220.11 594.674 221.81C594.674 223.49 594.314 224.97 593.594 226.25C592.874 227.53 591.884 228.52 590.624 229.22C589.364 229.9 587.964 230.24 586.424 230.24ZM586.424 228.41C587.504 228.41 588.504 228.17 589.424 227.69C590.344 227.19 591.084 226.45 591.644 225.47C592.224 224.47 592.514 223.25 592.514 221.81C592.514 220.37 592.234 219.16 591.674 218.18C591.114 217.18 590.374 216.44 589.454 215.96C588.534 215.46 587.534 215.21 586.454 215.21C585.374 215.21 584.374 215.46 583.454 215.96C582.534 216.44 581.794 217.18 581.234 218.18C580.694 219.16 580.424 220.37 580.424 221.81C580.424 223.25 580.694 224.47 581.234 225.47C581.794 226.45 582.524 227.19 583.424 227.69C584.344 228.17 585.344 228.41 586.424 228.41ZM604.142 230.24C602.262 230.24 600.722 229.81 599.522 228.95C598.342 228.07 597.682 226.88 597.542 225.38H599.702C599.802 226.3 600.232 227.05 600.992 227.63C601.772 228.19 602.812 228.47 604.112 228.47C605.252 228.47 606.142 228.2 606.782 227.66C607.442 227.12 607.772 226.45 607.772 225.65C607.772 225.09 607.592 224.63 607.232 224.27C606.872 223.91 606.412 223.63 605.852 223.43C605.312 223.21 604.572 222.98 603.632 222.74C602.412 222.42 601.422 222.1 600.662 221.78C599.902 221.46 599.252 220.99 598.712 220.37C598.192 219.73 597.932 218.88 597.932 217.82C597.932 217.02 598.172 216.28 598.652 215.6C599.132 214.92 599.812 214.38 600.692 213.98C601.572 213.58 602.572 213.38 603.692 213.38C605.452 213.38 606.872 213.83 607.952 214.73C609.032 215.61 609.612 216.83 609.692 218.39H607.592C607.532 217.43 607.152 216.66 606.452 216.08C605.772 215.48 604.832 215.18 603.632 215.18C602.572 215.18 601.712 215.43 601.052 215.93C600.392 216.43 600.062 217.05 600.062 217.79C600.062 218.43 600.252 218.96 600.632 219.38C601.032 219.78 601.522 220.1 602.102 220.34C602.682 220.56 603.462 220.81 604.442 221.09C605.622 221.41 606.562 221.72 607.262 222.02C607.962 222.32 608.562 222.76 609.062 223.34C609.562 223.92 609.822 224.69 609.842 225.65C609.842 226.53 609.602 227.32 609.122 228.02C608.642 228.7 607.972 229.24 607.112 229.64C606.252 230.04 605.262 230.24 604.142 230.24ZM296.47 262.22C296.99 261.12 297.81 260.21 298.93 259.49C300.07 258.75 301.42 258.38 302.98 258.38C304.46 258.38 305.79 258.73 306.97 259.43C308.17 260.11 309.1 261.09 309.76 262.37C310.44 263.63 310.78 265.1 310.78 266.78C310.78 268.46 310.44 269.94 309.76 271.22C309.1 272.5 308.17 273.49 306.97 274.19C305.79 274.89 304.46 275.24 302.98 275.24C301.44 275.24 300.1 274.88 298.96 274.16C297.82 273.42 296.99 272.5 296.47 271.4V282.74H294.4V258.62H296.47V262.22ZM308.65 266.78C308.65 265.42 308.38 264.25 307.84 263.27C307.32 262.27 306.6 261.51 305.68 260.99C304.76 260.47 303.72 260.21 302.56 260.21C301.44 260.21 300.41 260.48 299.47 261.02C298.55 261.56 297.82 262.33 297.28 263.33C296.74 264.33 296.47 265.49 296.47 266.81C296.47 268.13 296.74 269.29 297.28 270.29C297.82 271.29 298.55 272.06 299.47 272.6C300.41 273.14 301.44 273.41 302.56 273.41C303.72 273.41 304.76 273.15 305.68 272.63C306.6 272.09 307.32 271.32 307.84 270.32C308.38 269.3 308.65 268.12 308.65 266.78ZM321.814 275.24C320.274 275.24 318.884 274.9 317.644 274.22C316.424 273.52 315.454 272.54 314.734 271.28C314.034 270 313.684 268.51 313.684 266.81C313.684 265.11 314.044 263.63 314.764 262.37C315.484 261.09 316.464 260.11 317.704 259.43C318.944 258.73 320.334 258.38 321.874 258.38C323.414 258.38 324.804 258.73 326.044 259.43C327.304 260.11 328.284 261.09 328.984 262.37C329.704 263.63 330.064 265.11 330.064 266.81C330.064 268.49 329.704 269.97 328.984 271.25C328.264 272.53 327.274 273.52 326.014 274.22C324.754 274.9 323.354 275.24 321.814 275.24ZM321.814 273.41C322.894 273.41 323.894 273.17 324.814 272.69C325.734 272.19 326.474 271.45 327.034 270.47C327.614 269.47 327.904 268.25 327.904 266.81C327.904 265.37 327.624 264.16 327.064 263.18C326.504 262.18 325.764 261.44 324.844 260.96C323.924 260.46 322.924 260.21 321.844 260.21C320.764 260.21 319.764 260.46 318.844 260.96C317.924 261.44 317.184 262.18 316.624 263.18C316.084 264.16 315.814 265.37 315.814 266.81C315.814 268.25 316.084 269.47 316.624 270.47C317.184 271.45 317.914 272.19 318.814 272.69C319.734 273.17 320.734 273.41 321.814 273.41ZM339.532 275.24C337.652 275.24 336.112 274.81 334.912 273.95C333.732 273.07 333.072 271.88 332.932 270.38H335.092C335.192 271.3 335.622 272.05 336.382 272.63C337.162 273.19 338.202 273.47 339.502 273.47C340.642 273.47 341.532 273.2 342.172 272.66C342.832 272.12 343.162 271.45 343.162 270.65C343.162 270.09 342.982 269.63 342.622 269.27C342.262 268.91 341.802 268.63 341.242 268.43C340.702 268.21 339.962 267.98 339.022 267.74C337.802 267.42 336.812 267.1 336.052 266.78C335.292 266.46 334.642 265.99 334.102 265.37C333.582 264.73 333.322 263.88 333.322 262.82C333.322 262.02 333.562 261.28 334.042 260.6C334.522 259.92 335.202 259.38 336.082 258.98C336.962 258.58 337.962 258.38 339.082 258.38C340.842 258.38 342.262 258.83 343.342 259.73C344.422 260.61 345.002 261.83 345.082 263.39H342.982C342.922 262.43 342.542 261.66 341.842 261.08C341.162 260.48 340.222 260.18 339.022 260.18C337.962 260.18 337.102 260.43 336.442 260.93C335.782 261.43 335.452 262.05 335.452 262.79C335.452 263.43 335.642 263.96 336.022 264.38C336.422 264.78 336.912 265.1 337.492 265.34C338.072 265.56 338.852 265.81 339.832 266.09C341.012 266.41 341.952 266.72 342.652 267.02C343.352 267.32 343.952 267.76 344.452 268.34C344.952 268.92 345.212 269.69 345.232 270.65C345.232 271.53 344.992 272.32 344.512 273.02C344.032 273.7 343.362 274.24 342.502 274.64C341.642 275.04 340.652 275.24 339.532 275.24ZM350.235 255.53C349.815 255.53 349.455 255.38 349.155 255.08C348.855 254.78 348.705 254.41 348.705 253.97C348.705 253.53 348.855 253.17 349.155 252.89C349.455 252.59 349.815 252.44 350.235 252.44C350.655 252.44 351.015 252.59 351.315 252.89C351.615 253.17 351.765 253.53 351.765 253.97C351.765 254.41 351.615 254.78 351.315 255.08C351.015 255.38 350.655 255.53 350.235 255.53ZM351.285 258.62V275H349.185V258.62H351.285ZM358.771 260.39V270.56C358.771 271.56 358.961 272.25 359.341 272.63C359.721 273.01 360.391 273.2 361.351 273.2H363.271V275H361.021C359.541 275 358.441 274.66 357.721 273.98C357.001 273.28 356.641 272.14 356.641 270.56V260.39H354.361V258.62H356.641V254.51H358.771V258.62H363.271V260.39H358.771ZM367.784 255.53C367.364 255.53 367.004 255.38 366.704 255.08C366.404 254.78 366.254 254.41 366.254 253.97C366.254 253.53 366.404 253.17 366.704 252.89C367.004 252.59 367.364 252.44 367.784 252.44C368.204 252.44 368.564 252.59 368.864 252.89C369.164 253.17 369.314 253.53 369.314 253.97C369.314 254.41 369.164 254.78 368.864 255.08C368.564 255.38 368.204 255.53 367.784 255.53ZM368.834 258.62V275H366.734V258.62H368.834ZM379.409 272.96L384.929 258.62H387.149L380.579 275H378.209L371.639 258.62H373.889L379.409 272.96ZM397.166 275.24C395.626 275.24 394.236 274.9 392.996 274.22C391.776 273.52 390.806 272.54 390.086 271.28C389.386 270 389.036 268.51 389.036 266.81C389.036 265.11 389.396 263.63 390.116 262.37C390.836 261.09 391.816 260.11 393.056 259.43C394.296 258.73 395.686 258.38 397.226 258.38C398.766 258.38 400.156 258.73 401.396 259.43C402.656 260.11 403.636 261.09 404.336 262.37C405.056 263.63 405.416 265.11 405.416 266.81C405.416 268.49 405.056 269.97 404.336 271.25C403.616 272.53 402.626 273.52 401.366 274.22C400.106 274.9 398.706 275.24 397.166 275.24ZM397.166 273.41C398.246 273.41 399.246 273.17 400.166 272.69C401.086 272.19 401.826 271.45 402.386 270.47C402.966 269.47 403.256 268.25 403.256 266.81C403.256 265.37 402.976 264.16 402.416 263.18C401.856 262.18 401.116 261.44 400.196 260.96C399.276 260.46 398.276 260.21 397.196 260.21C396.116 260.21 395.116 260.46 394.196 260.96C393.276 261.44 392.536 262.18 391.976 263.18C391.436 264.16 391.166 265.37 391.166 266.81C391.166 268.25 391.436 269.47 391.976 270.47C392.536 271.45 393.266 272.19 394.166 272.69C395.086 273.17 396.086 273.41 397.166 273.41ZM414.884 275.24C413.004 275.24 411.464 274.81 410.264 273.95C409.084 273.07 408.424 271.88 408.284 270.38H410.444C410.544 271.3 410.974 272.05 411.734 272.63C412.514 273.19 413.554 273.47 414.854 273.47C415.994 273.47 416.884 273.2 417.524 272.66C418.184 272.12 418.514 271.45 418.514 270.65C418.514 270.09 418.334 269.63 417.974 269.27C417.614 268.91 417.154 268.63 416.594 268.43C416.054 268.21 415.314 267.98 414.374 267.74C413.154 267.42 412.164 267.1 411.404 266.78C410.644 266.46 409.994 265.99 409.454 265.37C408.934 264.73 408.674 263.88 408.674 262.82C408.674 262.02 408.914 261.28 409.394 260.6C409.874 259.92 410.554 259.38 411.434 258.98C412.314 258.58 413.314 258.38 414.434 258.38C416.194 258.38 417.614 258.83 418.694 259.73C419.774 260.61 420.354 261.83 420.434 263.39H418.334C418.274 262.43 417.894 261.66 417.194 261.08C416.514 260.48 415.574 260.18 414.374 260.18C413.314 260.18 412.454 260.43 411.794 260.93C411.134 261.43 410.804 262.05 410.804 262.79C410.804 263.43 410.994 263.96 411.374 264.38C411.774 264.78 412.264 265.1 412.844 265.34C413.424 265.56 414.204 265.81 415.184 266.09C416.364 266.41 417.304 266.72 418.004 267.02C418.704 267.32 419.304 267.76 419.804 268.34C420.304 268.92 420.564 269.69 420.584 270.65C420.584 271.53 420.344 272.32 419.864 273.02C419.384 273.7 418.714 274.24 417.854 274.64C416.994 275.04 416.004 275.24 414.884 275.24ZM447.589 265.97C447.589 266.69 447.569 267.24 447.529 267.62H433.939C433.999 268.86 434.299 269.92 434.839 270.8C435.379 271.68 436.089 272.35 436.969 272.81C437.849 273.25 438.809 273.47 439.849 273.47C441.209 273.47 442.349 273.14 443.269 272.48C444.209 271.82 444.829 270.93 445.129 269.81H447.349C446.949 271.41 446.089 272.72 444.769 273.74C443.469 274.74 441.829 275.24 439.849 275.24C438.309 275.24 436.929 274.9 435.709 274.22C434.489 273.52 433.529 272.54 432.829 271.28C432.149 270 431.809 268.51 431.809 266.81C431.809 265.11 432.149 263.62 432.829 262.34C433.509 261.06 434.459 260.08 435.679 259.4C436.899 258.72 438.289 258.38 439.849 258.38C441.409 258.38 442.769 258.72 443.929 259.4C445.109 260.08 446.009 261 446.629 262.16C447.269 263.3 447.589 264.57 447.589 265.97ZM445.459 265.91C445.479 264.69 445.229 263.65 444.709 262.79C444.209 261.93 443.519 261.28 442.639 260.84C441.759 260.4 440.799 260.18 439.759 260.18C438.199 260.18 436.869 260.68 435.769 261.68C434.669 262.68 434.059 264.09 433.939 265.91H445.459ZM467.344 258.32C469.304 258.32 470.904 258.93 472.144 260.15C473.384 261.35 474.004 263.1 474.004 265.4V275H471.934V265.64C471.934 263.86 471.484 262.5 470.584 261.56C469.704 260.62 468.494 260.15 466.954 260.15C465.374 260.15 464.114 260.65 463.174 261.65C462.234 262.65 461.764 264.12 461.764 266.06V275H459.664V258.62H461.764V261.41C462.284 260.41 463.034 259.65 464.014 259.13C464.994 258.59 466.104 258.32 467.344 258.32ZM493.468 265.97C493.468 266.69 493.448 267.24 493.408 267.62H479.818C479.878 268.86 480.178 269.92 480.718 270.8C481.258 271.68 481.968 272.35 482.848 272.81C483.728 273.25 484.688 273.47 485.728 273.47C487.088 273.47 488.228 273.14 489.148 272.48C490.088 271.82 490.708 270.93 491.008 269.81H493.228C492.828 271.41 491.968 272.72 490.648 273.74C489.348 274.74 487.708 275.24 485.728 275.24C484.188 275.24 482.808 274.9 481.588 274.22C480.368 273.52 479.408 272.54 478.708 271.28C478.028 270 477.688 268.51 477.688 266.81C477.688 265.11 478.028 263.62 478.708 262.34C479.388 261.06 480.338 260.08 481.558 259.4C482.778 258.72 484.168 258.38 485.728 258.38C487.288 258.38 488.648 258.72 489.808 259.4C490.988 260.08 491.888 261 492.508 262.16C493.148 263.3 493.468 264.57 493.468 265.97ZM491.338 265.91C491.358 264.69 491.108 263.65 490.588 262.79C490.088 261.93 489.398 261.28 488.518 260.84C487.638 260.4 486.678 260.18 485.638 260.18C484.078 260.18 482.748 260.68 481.648 261.68C480.548 262.68 479.938 264.09 479.818 265.91H491.338ZM504.18 258.38C505.72 258.38 507.06 258.74 508.2 259.46C509.34 260.18 510.16 261.09 510.66 262.19V258.62H512.76V275.42C512.76 276.92 512.43 278.25 511.77 279.41C511.13 280.57 510.23 281.46 509.07 282.08C507.91 282.72 506.59 283.04 505.11 283.04C503.01 283.04 501.26 282.54 499.86 281.54C498.48 280.54 497.62 279.18 497.28 277.46H499.35C499.71 278.6 500.39 279.51 501.39 280.19C502.41 280.87 503.65 281.21 505.11 281.21C506.17 281.21 507.12 280.98 507.96 280.52C508.8 280.08 509.46 279.42 509.94 278.54C510.42 277.66 510.66 276.62 510.66 275.42V271.37C510.14 272.49 509.31 273.42 508.17 274.16C507.05 274.88 505.72 275.24 504.18 275.24C502.68 275.24 501.33 274.89 500.13 274.19C498.95 273.49 498.02 272.5 497.34 271.22C496.68 269.94 496.35 268.46 496.35 266.78C496.35 265.1 496.68 263.63 497.34 262.37C498.02 261.09 498.95 260.11 500.13 259.43C501.33 258.73 502.68 258.38 504.18 258.38ZM510.66 266.81C510.66 265.49 510.39 264.33 509.85 263.33C509.31 262.33 508.57 261.56 507.63 261.02C506.71 260.48 505.69 260.21 504.57 260.21C503.41 260.21 502.37 260.47 501.45 260.99C500.53 261.51 499.8 262.27 499.26 263.27C498.74 264.25 498.48 265.42 498.48 266.78C498.48 268.12 498.74 269.3 499.26 270.32C499.8 271.32 500.53 272.09 501.45 272.63C502.37 273.15 503.41 273.41 504.57 273.41C505.69 273.41 506.71 273.14 507.63 272.6C508.57 272.06 509.31 271.29 509.85 270.29C510.39 269.29 510.66 268.13 510.66 266.81ZM516.594 266.78C516.594 265.1 516.924 263.63 517.584 262.37C518.264 261.09 519.194 260.11 520.374 259.43C521.574 258.73 522.924 258.38 524.424 258.38C525.984 258.38 527.324 258.74 528.444 259.46C529.584 260.18 530.404 261.1 530.904 262.22V258.62H533.004V275H530.904V271.37C530.384 272.49 529.554 273.42 528.414 274.16C527.294 274.88 525.954 275.24 524.394 275.24C522.914 275.24 521.574 274.89 520.374 274.19C519.194 273.49 518.264 272.5 517.584 271.22C516.924 269.94 516.594 268.46 516.594 266.78ZM530.904 266.81C530.904 265.49 530.634 264.33 530.094 263.33C529.554 262.33 528.814 261.56 527.874 261.02C526.954 260.48 525.934 260.21 524.814 260.21C523.654 260.21 522.614 260.47 521.694 260.99C520.774 261.51 520.044 262.27 519.504 263.27C518.984 264.25 518.724 265.42 518.724 266.78C518.724 268.12 518.984 269.3 519.504 270.32C520.044 271.32 520.774 272.09 521.694 272.63C522.614 273.15 523.654 273.41 524.814 273.41C525.934 273.41 526.954 273.14 527.874 272.6C528.814 272.06 529.554 271.29 530.094 270.29C530.634 269.29 530.904 268.13 530.904 266.81ZM540.528 260.39V270.56C540.528 271.56 540.718 272.25 541.098 272.63C541.478 273.01 542.148 273.2 543.108 273.2H545.028V275H542.778C541.298 275 540.198 274.66 539.478 273.98C538.758 273.28 538.398 272.14 538.398 270.56V260.39H536.118V258.62H538.398V254.51H540.528V258.62H545.028V260.39H540.528ZM549.542 255.53C549.122 255.53 548.762 255.38 548.462 255.08C548.162 254.78 548.012 254.41 548.012 253.97C548.012 253.53 548.162 253.17 548.462 252.89C548.762 252.59 549.122 252.44 549.542 252.44C549.962 252.44 550.322 252.59 550.622 252.89C550.922 253.17 551.072 253.53 551.072 253.97C551.072 254.41 550.922 254.78 550.622 255.08C550.322 255.38 549.962 255.53 549.542 255.53ZM550.592 258.62V275H548.492V258.62H550.592ZM561.167 272.96L566.687 258.62H568.907L562.337 275H559.967L553.397 258.62H555.647L561.167 272.96ZM578.924 275.24C577.384 275.24 575.994 274.9 574.754 274.22C573.534 273.52 572.564 272.54 571.844 271.28C571.144 270 570.794 268.51 570.794 266.81C570.794 265.11 571.154 263.63 571.874 262.37C572.594 261.09 573.574 260.11 574.814 259.43C576.054 258.73 577.444 258.38 578.984 258.38C580.524 258.38 581.914 258.73 583.154 259.43C584.414 260.11 585.394 261.09 586.094 262.37C586.814 263.63 587.174 265.11 587.174 266.81C587.174 268.49 586.814 269.97 586.094 271.25C585.374 272.53 584.384 273.52 583.124 274.22C581.864 274.9 580.464 275.24 578.924 275.24ZM578.924 273.41C580.004 273.41 581.004 273.17 581.924 272.69C582.844 272.19 583.584 271.45 584.144 270.47C584.724 269.47 585.014 268.25 585.014 266.81C585.014 265.37 584.734 264.16 584.174 263.18C583.614 262.18 582.874 261.44 581.954 260.96C581.034 260.46 580.034 260.21 578.954 260.21C577.874 260.21 576.874 260.46 575.954 260.96C575.034 261.44 574.294 262.18 573.734 263.18C573.194 264.16 572.924 265.37 572.924 266.81C572.924 268.25 573.194 269.47 573.734 270.47C574.294 271.45 575.024 272.19 575.924 272.69C576.844 273.17 577.844 273.41 578.924 273.41ZM596.642 275.24C594.762 275.24 593.222 274.81 592.022 273.95C590.842 273.07 590.182 271.88 590.042 270.38H592.202C592.302 271.3 592.732 272.05 593.492 272.63C594.272 273.19 595.312 273.47 596.612 273.47C597.752 273.47 598.642 273.2 599.282 272.66C599.942 272.12 600.272 271.45 600.272 270.65C600.272 270.09 600.092 269.63 599.732 269.27C599.372 268.91 598.912 268.63 598.352 268.43C597.812 268.21 597.072 267.98 596.132 267.74C594.912 267.42 593.922 267.1 593.162 266.78C592.402 266.46 591.752 265.99 591.212 265.37C590.692 264.73 590.432 263.88 590.432 262.82C590.432 262.02 590.672 261.28 591.152 260.6C591.632 259.92 592.312 259.38 593.192 258.98C594.072 258.58 595.072 258.38 596.192 258.38C597.952 258.38 599.372 258.83 600.452 259.73C601.532 260.61 602.112 261.83 602.192 263.39H600.092C600.032 262.43 599.652 261.66 598.952 261.08C598.272 260.48 597.332 260.18 596.132 260.18C595.072 260.18 594.212 260.43 593.552 260.93C592.892 261.43 592.562 262.05 592.562 262.79C592.562 263.43 592.752 263.96 593.132 264.38C593.532 264.78 594.022 265.1 594.602 265.34C595.182 265.56 595.962 265.81 596.942 266.09C598.122 266.41 599.062 266.72 599.762 267.02C600.462 267.32 601.062 267.76 601.562 268.34C602.062 268.92 602.322 269.69 602.342 270.65C602.342 271.53 602.102 272.32 601.622 273.02C601.142 273.7 600.472 274.24 599.612 274.64C598.752 275.04 597.762 275.24 596.642 275.24Z" fill="#E5E5E5"/>
<path d="M737.93 95.38V93.49H743.03V115H740.9V95.38H737.93ZM761.27 95.29H750.29V102.97C750.79 102.27 751.52 101.7 752.48 101.26C753.44 100.8 754.48 100.57 755.6 100.57C757.24 100.57 758.58 100.91 759.62 101.59C760.66 102.25 761.41 103.12 761.87 104.2C762.33 105.26 762.56 106.4 762.56 107.62C762.56 109.02 762.29 110.29 761.75 111.43C761.23 112.55 760.42 113.44 759.32 114.1C758.24 114.76 756.89 115.09 755.27 115.09C753.21 115.09 751.54 114.56 750.26 113.5C748.98 112.42 748.2 110.97 747.92 109.15H749.99C750.25 110.47 750.85 111.49 751.79 112.21C752.73 112.93 753.89 113.29 755.27 113.29C757.01 113.29 758.32 112.78 759.2 111.76C760.1 110.72 760.55 109.35 760.55 107.65C760.55 105.99 760.1 104.7 759.2 103.78C758.3 102.84 757.01 102.37 755.33 102.37C754.17 102.37 753.15 102.64 752.27 103.18C751.39 103.72 750.74 104.45 750.32 105.37H748.34V93.46H761.27V95.29ZM768.595 111.52L765.475 119.38H764.035L766.255 111.52H768.595ZM790.263 103V104.77H778.593V103H790.263ZM794.18 95.38V93.49H799.28V115H797.15V95.38H794.18ZM817.52 95.29H806.54V102.97C807.04 102.27 807.77 101.7 808.73 101.26C809.69 100.8 810.73 100.57 811.85 100.57C813.49 100.57 814.83 100.91 815.87 101.59C816.91 102.25 817.66 103.12 818.12 104.2C818.58 105.26 818.81 106.4 818.81 107.62C818.81 109.02 818.54 110.29 818 111.43C817.48 112.55 816.67 113.44 815.57 114.1C814.49 114.76 813.14 115.09 811.52 115.09C809.46 115.09 807.79 114.56 806.51 113.5C805.23 112.42 804.45 110.97 804.17 109.15H806.24C806.5 110.47 807.1 111.49 808.04 112.21C808.98 112.93 810.14 113.29 811.52 113.29C813.26 113.29 814.57 112.78 815.45 111.76C816.35 110.72 816.8 109.35 816.8 107.65C816.8 105.99 816.35 104.7 815.45 103.78C814.55 102.84 813.26 102.37 811.58 102.37C810.42 102.37 809.4 102.64 808.52 103.18C807.64 103.72 806.99 104.45 806.57 105.37H804.59V93.46H817.52V95.29Z" fill="#E5E5E5"/>
<path d="M749.57 218V219.77H737.9V218H749.57ZM753.487 210.38V208.49H758.587V230H756.457V210.38H753.487ZM762.846 228.35C766.526 225.59 769.366 223.12 771.366 220.94C773.386 218.74 774.396 216.59 774.396 214.49C774.396 213.11 774.046 212.01 773.346 211.19C772.666 210.35 771.546 209.93 769.986 209.93C768.466 209.93 767.286 210.41 766.446 211.37C765.626 212.31 765.166 213.57 765.066 215.15H763.026C763.146 212.93 763.826 211.21 765.066 209.99C766.326 208.75 767.966 208.13 769.986 208.13C771.926 208.13 773.496 208.68 774.696 209.78C775.896 210.86 776.496 212.4 776.496 214.4C776.496 216.82 775.486 219.17 773.466 221.45C771.466 223.71 768.996 225.92 766.056 228.08H777.156V229.85H762.846V228.35ZM781.244 230.15C780.804 230.15 780.434 230 780.134 229.7C779.854 229.4 779.714 229.03 779.714 228.59C779.714 228.15 779.854 227.79 780.134 227.51C780.434 227.21 780.804 227.06 781.244 227.06C781.664 227.06 782.014 227.21 782.294 227.51C782.594 227.79 782.744 228.15 782.744 228.59C782.744 229.03 782.594 229.4 782.294 229.7C782.014 230 781.664 230.15 781.244 230.15ZM790.054 218.84C788.814 218.44 787.864 217.81 787.204 216.95C786.564 216.09 786.244 215.05 786.244 213.83C786.244 212.75 786.514 211.79 787.054 210.95C787.614 210.09 788.424 209.42 789.484 208.94C790.544 208.44 791.814 208.19 793.294 208.19C794.774 208.19 796.044 208.44 797.104 208.94C798.164 209.42 798.964 210.09 799.504 210.95C800.064 211.79 800.344 212.75 800.344 213.83C800.344 215.03 800.014 216.07 799.354 216.95C798.714 217.83 797.774 218.46 796.534 218.84C797.894 219.18 798.964 219.83 799.744 220.79C800.524 221.75 800.914 222.92 800.914 224.3C800.914 225.58 800.594 226.7 799.954 227.66C799.334 228.6 798.444 229.33 797.284 229.85C796.144 230.37 794.814 230.63 793.294 230.63C791.774 230.63 790.434 230.37 789.274 229.85C788.134 229.33 787.244 228.6 786.604 227.66C785.984 226.7 785.674 225.58 785.674 224.3C785.674 222.92 786.064 221.75 786.844 220.79C787.624 219.83 788.694 219.18 790.054 218.84ZM798.304 214.07C798.304 212.75 797.854 211.73 796.954 211.01C796.054 210.29 794.834 209.93 793.294 209.93C791.754 209.93 790.534 210.29 789.634 211.01C788.734 211.71 788.284 212.73 788.284 214.07C788.284 215.31 788.744 216.3 789.664 217.04C790.584 217.78 791.794 218.15 793.294 218.15C794.794 218.15 796.004 217.78 796.924 217.04C797.844 216.3 798.304 215.31 798.304 214.07ZM793.294 219.77C791.654 219.77 790.314 220.14 789.274 220.88C788.234 221.62 787.714 222.74 787.714 224.24C787.714 225.68 788.214 226.81 789.214 227.63C790.214 228.45 791.574 228.86 793.294 228.86C794.994 228.86 796.344 228.45 797.344 227.63C798.344 226.79 798.844 225.66 798.844 224.24C798.844 222.76 798.324 221.65 797.284 220.91C796.264 220.15 794.934 219.77 793.294 219.77ZM806.974 226.52L803.854 234.38H802.414L804.634 226.52H806.974ZM817.002 210.38V208.49H822.102V230H819.972V210.38H817.002ZM826.362 228.35C830.042 225.59 832.882 223.12 834.882 220.94C836.902 218.74 837.912 216.59 837.912 214.49C837.912 213.11 837.562 212.01 836.862 211.19C836.182 210.35 835.062 209.93 833.502 209.93C831.982 209.93 830.802 210.41 829.962 211.37C829.142 212.31 828.682 213.57 828.582 215.15H826.542C826.662 212.93 827.342 211.21 828.582 209.99C829.842 208.75 831.482 208.13 833.502 208.13C835.442 208.13 837.012 208.68 838.212 209.78C839.412 210.86 840.012 212.4 840.012 214.4C840.012 216.82 839.002 219.17 836.982 221.45C834.982 223.71 832.512 225.92 829.572 228.08H840.672V229.85H826.362V228.35ZM844.76 230.15C844.32 230.15 843.95 230 843.65 229.7C843.37 229.4 843.23 229.03 843.23 228.59C843.23 228.15 843.37 227.79 843.65 227.51C843.95 227.21 844.32 227.06 844.76 227.06C845.18 227.06 845.53 227.21 845.81 227.51C846.11 227.79 846.26 228.15 846.26 228.59C846.26 229.03 846.11 229.4 845.81 229.7C845.53 230 845.18 230.15 844.76 230.15ZM853.569 218.84C852.329 218.44 851.379 217.81 850.719 216.95C850.079 216.09 849.759 215.05 849.759 213.83C849.759 212.75 850.029 211.79 850.569 210.95C851.129 210.09 851.939 209.42 852.999 208.94C854.059 208.44 855.329 208.19 856.809 208.19C858.289 208.19 859.559 208.44 860.619 208.94C861.679 209.42 862.479 210.09 863.019 210.95C863.579 211.79 863.859 212.75 863.859 213.83C863.859 215.03 863.529 216.07 862.869 216.95C862.229 217.83 861.289 218.46 860.049 218.84C861.409 219.18 862.479 219.83 863.259 220.79C864.039 221.75 864.429 222.92 864.429 224.3C864.429 225.58 864.109 226.7 863.469 227.66C862.849 228.6 861.959 229.33 860.799 229.85C859.659 230.37 858.329 230.63 856.809 230.63C855.289 230.63 853.949 230.37 852.789 229.85C851.649 229.33 850.759 228.6 850.119 227.66C849.499 226.7 849.189 225.58 849.189 224.3C849.189 222.92 849.579 221.75 850.359 220.79C851.139 219.83 852.209 219.18 853.569 218.84ZM861.819 214.07C861.819 212.75 861.369 211.73 860.469 211.01C859.569 210.29 858.349 209.93 856.809 209.93C855.269 209.93 854.049 210.29 853.149 211.01C852.249 211.71 851.799 212.73 851.799 214.07C851.799 215.31 852.259 216.3 853.179 217.04C854.099 217.78 855.309 218.15 856.809 218.15C858.309 218.15 859.519 217.78 860.439 217.04C861.359 216.3 861.819 215.31 861.819 214.07ZM856.809 219.77C855.169 219.77 853.829 220.14 852.789 220.88C851.749 221.62 851.229 222.74 851.229 224.24C851.229 225.68 851.729 226.81 852.729 227.63C853.729 228.45 855.089 228.86 856.809 228.86C858.509 228.86 859.859 228.45 860.859 227.63C861.859 226.79 862.359 225.66 862.359 224.24C862.359 222.76 861.839 221.65 860.799 220.91C859.779 220.15 858.449 219.77 856.809 219.77Z" fill="#E5E5E5"/>
</svg>
