<svg width="336" height="78" viewBox="0 0 336 78" fill="none" xmlns="http://www.w3.org/2000/svg">
<rect width="336" height="78" rx="15" fill="#C3C3C3" fill-opacity="0.29"/>
<path d="M31.5781 55H24.1484L24.1953 49.5156H31.5781C33.4219 49.5156 34.9766 49.1016 36.2422 48.2734C37.5078 47.4297 38.4609 46.2031 39.1016 44.5938C39.7578 42.9844 40.0859 41.0391 40.0859 38.7578V37.0938C40.0859 35.3438 39.8984 33.8047 39.5234 32.4766C39.1641 31.1484 38.625 30.0312 37.9062 29.125C37.1875 28.2188 36.3047 27.5391 35.2578 27.0859C34.2109 26.6172 33.0078 26.3828 31.6484 26.3828H24.0078V20.875H31.6484C33.9297 20.875 36.0156 21.2656 37.9062 22.0469C39.8125 22.8125 41.4609 23.9141 42.8516 25.3516C44.2422 26.7891 45.3125 28.5078 46.0625 30.5078C46.8281 32.4922 47.2109 34.7031 47.2109 37.1406V38.7578C47.2109 41.1797 46.8281 43.3906 46.0625 45.3906C45.3125 47.3906 44.2422 49.1094 42.8516 50.5469C41.4766 51.9688 39.8281 53.0703 37.9062 53.8516C36 54.6172 33.8906 55 31.5781 55ZM28.1328 20.875V55H21.1016V20.875H28.1328ZM59.7969 20.875V55H52.7891V20.875H59.7969ZM86.1641 43.6797H93.1719C93.0312 45.9766 92.3984 48.0156 91.2734 49.7969C90.1641 51.5781 88.6094 52.9688 86.6094 53.9688C84.625 54.9688 82.2344 55.4688 79.4375 55.4688C77.25 55.4688 75.2891 55.0938 73.5547 54.3438C71.8203 53.5781 70.3359 52.4844 69.1016 51.0625C67.8828 49.6406 66.9531 47.9219 66.3125 45.9062C65.6719 43.8906 65.3516 41.6328 65.3516 39.1328V36.7656C65.3516 34.2656 65.6797 32.0078 66.3359 29.9922C67.0078 27.9609 67.9609 26.2344 69.1953 24.8125C70.4453 23.3906 71.9375 22.2969 73.6719 21.5312C75.4062 20.7656 77.3438 20.3828 79.4844 20.3828C82.3281 20.3828 84.7266 20.8984 86.6797 21.9297C88.6484 22.9609 90.1719 24.3828 91.25 26.1953C92.3438 28.0078 93 30.0703 93.2188 32.3828H86.1875C86.1094 31.0078 85.8359 29.8438 85.3672 28.8906C84.8984 27.9219 84.1875 27.1953 83.2344 26.7109C82.2969 26.2109 81.0469 25.9609 79.4844 25.9609C78.3125 25.9609 77.2891 26.1797 76.4141 26.6172C75.5391 27.0547 74.8047 27.7188 74.2109 28.6094C73.6172 29.5 73.1719 30.625 72.875 31.9844C72.5938 33.3281 72.4531 34.9062 72.4531 36.7188V39.1328C72.4531 40.8984 72.5859 42.4531 72.8516 43.7969C73.1172 45.125 73.5234 46.25 74.0703 47.1719C74.6328 48.0781 75.3516 48.7656 76.2266 49.2344C77.1172 49.6875 78.1875 49.9141 79.4375 49.9141C80.9062 49.9141 82.1172 49.6797 83.0703 49.2109C84.0234 48.7422 84.75 48.0469 85.25 47.125C85.7656 46.2031 86.0703 45.0547 86.1641 43.6797ZM105.266 20.875V55H98.2578V20.875H105.266ZM139.883 37.1406V38.7578C139.883 41.3516 139.531 43.6797 138.828 45.7422C138.125 47.8047 137.133 49.5625 135.852 51.0156C134.57 52.4531 133.039 53.5547 131.258 54.3203C129.492 55.0859 127.531 55.4688 125.375 55.4688C123.234 55.4688 121.273 55.0859 119.492 54.3203C117.727 53.5547 116.195 52.4531 114.898 51.0156C113.602 49.5625 112.594 47.8047 111.875 45.7422C111.172 43.6797 110.82 41.3516 110.82 38.7578V37.1406C110.82 34.5312 111.172 32.2031 111.875 30.1562C112.578 28.0938 113.57 26.3359 114.852 24.8828C116.148 23.4297 117.68 22.3203 119.445 21.5547C121.227 20.7891 123.188 20.4062 125.328 20.4062C127.484 20.4062 129.445 20.7891 131.211 21.5547C132.992 22.3203 134.523 23.4297 135.805 24.8828C137.102 26.3359 138.102 28.0938 138.805 30.1562C139.523 32.2031 139.883 34.5312 139.883 37.1406ZM132.781 38.7578V37.0938C132.781 35.2812 132.617 33.6875 132.289 32.3125C131.961 30.9375 131.477 29.7812 130.836 28.8438C130.195 27.9062 129.414 27.2031 128.492 26.7344C127.57 26.25 126.516 26.0078 125.328 26.0078C124.141 26.0078 123.086 26.25 122.164 26.7344C121.258 27.2031 120.484 27.9062 119.844 28.8438C119.219 29.7812 118.742 30.9375 118.414 32.3125C118.086 33.6875 117.922 35.2812 117.922 37.0938V38.7578C117.922 40.5547 118.086 42.1484 118.414 43.5391C118.742 44.9141 119.227 46.0781 119.867 47.0312C120.508 47.9688 121.289 48.6797 122.211 49.1641C123.133 49.6484 124.188 49.8906 125.375 49.8906C126.562 49.8906 127.617 49.6484 128.539 49.1641C129.461 48.6797 130.234 47.9688 130.859 47.0312C131.484 46.0781 131.961 44.9141 132.289 43.5391C132.617 42.1484 132.781 40.5547 132.781 38.7578ZM172.719 20.875V55H165.688L151.977 32.125V55H144.945V20.875H151.977L165.711 43.7734V20.875H172.719ZM193.133 26.7109L183.852 55H176.375L189.055 20.875H193.812L193.133 26.7109ZM200.844 55L191.539 26.7109L190.789 20.875H195.594L208.344 55H200.844ZM200.422 42.2969V47.8047H182.398V42.2969H200.422ZM189.172 18.9531L193.766 11.7344H201.102L194.656 18.9531H189.172ZM211.508 20.875H224.234C226.844 20.875 229.086 21.2656 230.961 22.0469C232.852 22.8281 234.305 23.9844 235.32 25.5156C236.336 27.0469 236.844 28.9297 236.844 31.1641C236.844 32.9922 236.531 34.5625 235.906 35.875C235.297 37.1719 234.43 38.2578 233.305 39.1328C232.195 39.9922 230.891 40.6797 229.391 41.1953L227.164 42.3672H216.102L216.055 36.8828H224.281C225.516 36.8828 226.539 36.6641 227.352 36.2266C228.164 35.7891 228.773 35.1797 229.18 34.3984C229.602 33.6172 229.812 32.7109 229.812 31.6797C229.812 30.5859 229.609 29.6406 229.203 28.8438C228.797 28.0469 228.18 27.4375 227.352 27.0156C226.523 26.5938 225.484 26.3828 224.234 26.3828H218.539V55H211.508V20.875ZM230.586 55L222.805 39.7891L230.234 39.7422L238.109 54.6719V55H230.586ZM249.734 20.875V55H242.727V20.875H249.734ZM284.352 37.1406V38.7578C284.352 41.3516 284 43.6797 283.297 45.7422C282.594 47.8047 281.602 49.5625 280.32 51.0156C279.039 52.4531 277.508 53.5547 275.727 54.3203C273.961 55.0859 272 55.4688 269.844 55.4688C267.703 55.4688 265.742 55.0859 263.961 54.3203C262.195 53.5547 260.664 52.4531 259.367 51.0156C258.07 49.5625 257.062 47.8047 256.344 45.7422C255.641 43.6797 255.289 41.3516 255.289 38.7578V37.1406C255.289 34.5312 255.641 32.2031 256.344 30.1562C257.047 28.0938 258.039 26.3359 259.32 24.8828C260.617 23.4297 262.148 22.3203 263.914 21.5547C265.695 20.7891 267.656 20.4062 269.797 20.4062C271.953 20.4062 273.914 20.7891 275.68 21.5547C277.461 22.3203 278.992 23.4297 280.273 24.8828C281.57 26.3359 282.57 28.0938 283.273 30.1562C283.992 32.2031 284.352 34.5312 284.352 37.1406ZM277.25 38.7578V37.0938C277.25 35.2812 277.086 33.6875 276.758 32.3125C276.43 30.9375 275.945 29.7812 275.305 28.8438C274.664 27.9062 273.883 27.2031 272.961 26.7344C272.039 26.25 270.984 26.0078 269.797 26.0078C268.609 26.0078 267.555 26.25 266.633 26.7344C265.727 27.2031 264.953 27.9062 264.312 28.8438C263.688 29.7812 263.211 30.9375 262.883 32.3125C262.555 33.6875 262.391 35.2812 262.391 37.0938V38.7578C262.391 40.5547 262.555 42.1484 262.883 43.5391C263.211 44.9141 263.695 46.0781 264.336 47.0312C264.977 47.9688 265.758 48.6797 266.68 49.1641C267.602 49.6484 268.656 49.8906 269.844 49.8906C271.031 49.8906 272.086 49.6484 273.008 49.1641C273.93 48.6797 274.703 47.9688 275.328 47.0312C275.953 46.0781 276.43 44.9141 276.758 43.5391C277.086 42.1484 277.25 40.5547 277.25 38.7578ZM307.18 46.0703C307.18 45.4609 307.086 44.9141 306.898 44.4297C306.727 43.9297 306.398 43.4766 305.914 43.0703C305.43 42.6484 304.75 42.2344 303.875 41.8281C303 41.4219 301.867 41 300.477 40.5625C298.93 40.0625 297.461 39.5 296.07 38.875C294.695 38.25 293.477 37.5234 292.414 36.6953C291.367 35.8516 290.539 34.875 289.93 33.7656C289.336 32.6562 289.039 31.3672 289.039 29.8984C289.039 28.4766 289.352 27.1875 289.977 26.0312C290.602 24.8594 291.477 23.8594 292.602 23.0312C293.727 22.1875 295.055 21.5391 296.586 21.0859C298.133 20.6328 299.828 20.4062 301.672 20.4062C304.188 20.4062 306.383 20.8594 308.258 21.7656C310.133 22.6719 311.586 23.9141 312.617 25.4922C313.664 27.0703 314.188 28.875 314.188 30.9062H307.203C307.203 29.9062 306.992 29.0312 306.57 28.2812C306.164 27.5156 305.539 26.9141 304.695 26.4766C303.867 26.0391 302.82 25.8203 301.555 25.8203C300.336 25.8203 299.32 26.0078 298.508 26.3828C297.695 26.7422 297.086 27.2344 296.68 27.8594C296.273 28.4688 296.07 29.1562 296.07 29.9219C296.07 30.5 296.211 31.0234 296.492 31.4922C296.789 31.9609 297.227 32.3984 297.805 32.8047C298.383 33.2109 299.094 33.5938 299.938 33.9531C300.781 34.3125 301.758 34.6641 302.867 35.0078C304.727 35.5703 306.359 36.2031 307.766 36.9062C309.188 37.6094 310.375 38.3984 311.328 39.2734C312.281 40.1484 313 41.1406 313.484 42.25C313.969 43.3594 314.211 44.6172 314.211 46.0234C314.211 47.5078 313.922 48.8359 313.344 50.0078C312.766 51.1797 311.93 52.1719 310.836 52.9844C309.742 53.7969 308.438 54.4141 306.922 54.8359C305.406 55.2578 303.711 55.4688 301.836 55.4688C300.148 55.4688 298.484 55.25 296.844 54.8125C295.203 54.3594 293.711 53.6797 292.367 52.7734C291.039 51.8672 289.977 50.7109 289.18 49.3047C288.383 47.8984 287.984 46.2344 287.984 44.3125H295.039C295.039 45.375 295.203 46.2734 295.531 47.0078C295.859 47.7422 296.32 48.3359 296.914 48.7891C297.523 49.2422 298.242 49.5703 299.07 49.7734C299.914 49.9766 300.836 50.0781 301.836 50.0781C303.055 50.0781 304.055 49.9062 304.836 49.5625C305.633 49.2188 306.219 48.7422 306.594 48.1328C306.984 47.5234 307.18 46.8359 307.18 46.0703Z" fill="#0061AE"/>
</svg>
