<svg width="336" height="78" viewBox="0 0 336 78" fill="none" xmlns="http://www.w3.org/2000/svg">
<rect width="336" height="78" rx="15" fill="#C3C3C3" fill-opacity="0.29"/>
<path d="M59.0312 49.5156V55H40.8672V49.5156H59.0312ZM43.1641 20.875V55H36.1328V20.875H43.1641ZM56.6641 34.7734V40.1172H40.8672V34.7734H56.6641ZM59.0078 20.875V26.3828H40.8672V20.875H59.0078ZM68.9219 20.875L75.3438 32.7812L81.7656 20.875H89.8047L79.8906 37.7969L90.0625 55H81.9531L75.3438 42.8594L68.7344 55H60.5781L70.7734 37.7969L60.8359 20.875H68.9219ZM116.5 49.5156V55H98.3359V49.5156H116.5ZM100.633 20.875V55H93.6016V20.875H100.633ZM114.133 34.7734V40.1172H98.3359V34.7734H114.133ZM116.477 20.875V26.3828H98.3359V20.875H116.477ZM120.602 20.875H133.328C135.938 20.875 138.18 21.2656 140.055 22.0469C141.945 22.8281 143.398 23.9844 144.414 25.5156C145.43 27.0469 145.938 28.9297 145.938 31.1641C145.938 32.9922 145.625 34.5625 145 35.875C144.391 37.1719 143.523 38.2578 142.398 39.1328C141.289 39.9922 139.984 40.6797 138.484 41.1953L136.258 42.3672H125.195L125.148 36.8828H133.375C134.609 36.8828 135.633 36.6641 136.445 36.2266C137.258 35.7891 137.867 35.1797 138.273 34.3984C138.695 33.6172 138.906 32.7109 138.906 31.6797C138.906 30.5859 138.703 29.6406 138.297 28.8438C137.891 28.0469 137.273 27.4375 136.445 27.0156C135.617 26.5938 134.578 26.3828 133.328 26.3828H127.633V55H120.602V20.875ZM139.68 55L131.898 39.7891L139.328 39.7422L147.203 54.6719V55H139.68ZM171.133 43.6797H178.141C178 45.9766 177.367 48.0156 176.242 49.7969C175.133 51.5781 173.578 52.9688 171.578 53.9688C169.594 54.9688 167.203 55.4688 164.406 55.4688C162.219 55.4688 160.258 55.0938 158.523 54.3438C156.789 53.5781 155.305 52.4844 154.07 51.0625C152.852 49.6406 151.922 47.9219 151.281 45.9062C150.641 43.8906 150.32 41.6328 150.32 39.1328V36.7656C150.32 34.2656 150.648 32.0078 151.305 29.9922C151.977 27.9609 152.93 26.2344 154.164 24.8125C155.414 23.3906 156.906 22.2969 158.641 21.5312C160.375 20.7656 162.312 20.3828 164.453 20.3828C167.297 20.3828 169.695 20.8984 171.648 21.9297C173.617 22.9609 175.141 24.3828 176.219 26.1953C177.312 28.0078 177.969 30.0703 178.188 32.3828H171.156C171.078 31.0078 170.805 29.8438 170.336 28.8906C169.867 27.9219 169.156 27.1953 168.203 26.7109C167.266 26.2109 166.016 25.9609 164.453 25.9609C163.281 25.9609 162.258 26.1797 161.383 26.6172C160.508 27.0547 159.773 27.7188 159.18 28.6094C158.586 29.5 158.141 30.625 157.844 31.9844C157.562 33.3281 157.422 34.9062 157.422 36.7188V39.1328C157.422 40.8984 157.555 42.4531 157.82 43.7969C158.086 45.125 158.492 46.25 159.039 47.1719C159.602 48.0781 160.32 48.7656 161.195 49.2344C162.086 49.6875 163.156 49.9141 164.406 49.9141C165.875 49.9141 167.086 49.6797 168.039 49.2109C168.992 48.7422 169.719 48.0469 170.219 47.125C170.734 46.2031 171.039 45.0547 171.133 43.6797ZM190.234 20.875V55H183.227V20.875H190.234ZM183.508 18.8594L188.102 11.6406H195.438L188.992 18.8594H183.508ZM216.602 43.6797H223.609C223.469 45.9766 222.836 48.0156 221.711 49.7969C220.602 51.5781 219.047 52.9688 217.047 53.9688C215.062 54.9688 212.672 55.4688 209.875 55.4688C207.688 55.4688 205.727 55.0938 203.992 54.3438C202.258 53.5781 200.773 52.4844 199.539 51.0625C198.32 49.6406 197.391 47.9219 196.75 45.9062C196.109 43.8906 195.789 41.6328 195.789 39.1328V36.7656C195.789 34.2656 196.117 32.0078 196.773 29.9922C197.445 27.9609 198.398 26.2344 199.633 24.8125C200.883 23.3906 202.375 22.2969 204.109 21.5312C205.844 20.7656 207.781 20.3828 209.922 20.3828C212.766 20.3828 215.164 20.8984 217.117 21.9297C219.086 22.9609 220.609 24.3828 221.688 26.1953C222.781 28.0078 223.438 30.0703 223.656 32.3828H216.625C216.547 31.0078 216.273 29.8438 215.805 28.8906C215.336 27.9219 214.625 27.1953 213.672 26.7109C212.734 26.2109 211.484 25.9609 209.922 25.9609C208.75 25.9609 207.727 26.1797 206.852 26.6172C205.977 27.0547 205.242 27.7188 204.648 28.6094C204.055 29.5 203.609 30.625 203.312 31.9844C203.031 33.3281 202.891 34.9062 202.891 36.7188V39.1328C202.891 40.8984 203.023 42.4531 203.289 43.7969C203.555 45.125 203.961 46.25 204.508 47.1719C205.07 48.0781 205.789 48.7656 206.664 49.2344C207.555 49.6875 208.625 49.9141 209.875 49.9141C211.344 49.9141 212.555 49.6797 213.508 49.2109C214.461 48.7422 215.188 48.0469 215.688 47.125C216.203 46.2031 216.508 45.0547 216.602 43.6797ZM235.703 20.875V55H228.695V20.875H235.703ZM270.32 37.1406V38.7578C270.32 41.3516 269.969 43.6797 269.266 45.7422C268.562 47.8047 267.57 49.5625 266.289 51.0156C265.008 52.4531 263.477 53.5547 261.695 54.3203C259.93 55.0859 257.969 55.4688 255.812 55.4688C253.672 55.4688 251.711 55.0859 249.93 54.3203C248.164 53.5547 246.633 52.4531 245.336 51.0156C244.039 49.5625 243.031 47.8047 242.312 45.7422C241.609 43.6797 241.258 41.3516 241.258 38.7578V37.1406C241.258 34.5312 241.609 32.2031 242.312 30.1562C243.016 28.0938 244.008 26.3359 245.289 24.8828C246.586 23.4297 248.117 22.3203 249.883 21.5547C251.664 20.7891 253.625 20.4062 255.766 20.4062C257.922 20.4062 259.883 20.7891 261.648 21.5547C263.43 22.3203 264.961 23.4297 266.242 24.8828C267.539 26.3359 268.539 28.0938 269.242 30.1562C269.961 32.2031 270.32 34.5312 270.32 37.1406ZM263.219 38.7578V37.0938C263.219 35.2812 263.055 33.6875 262.727 32.3125C262.398 30.9375 261.914 29.7812 261.273 28.8438C260.633 27.9062 259.852 27.2031 258.93 26.7344C258.008 26.25 256.953 26.0078 255.766 26.0078C254.578 26.0078 253.523 26.25 252.602 26.7344C251.695 27.2031 250.922 27.9062 250.281 28.8438C249.656 29.7812 249.18 30.9375 248.852 32.3125C248.523 33.6875 248.359 35.2812 248.359 37.0938V38.7578C248.359 40.5547 248.523 42.1484 248.852 43.5391C249.18 44.9141 249.664 46.0781 250.305 47.0312C250.945 47.9688 251.727 48.6797 252.648 49.1641C253.57 49.6484 254.625 49.8906 255.812 49.8906C257 49.8906 258.055 49.6484 258.977 49.1641C259.898 48.6797 260.672 47.9688 261.297 47.0312C261.922 46.0781 262.398 44.9141 262.727 43.5391C263.055 42.1484 263.219 40.5547 263.219 38.7578ZM293.148 46.0703C293.148 45.4609 293.055 44.9141 292.867 44.4297C292.695 43.9297 292.367 43.4766 291.883 43.0703C291.398 42.6484 290.719 42.2344 289.844 41.8281C288.969 41.4219 287.836 41 286.445 40.5625C284.898 40.0625 283.43 39.5 282.039 38.875C280.664 38.25 279.445 37.5234 278.383 36.6953C277.336 35.8516 276.508 34.875 275.898 33.7656C275.305 32.6562 275.008 31.3672 275.008 29.8984C275.008 28.4766 275.32 27.1875 275.945 26.0312C276.57 24.8594 277.445 23.8594 278.57 23.0312C279.695 22.1875 281.023 21.5391 282.555 21.0859C284.102 20.6328 285.797 20.4062 287.641 20.4062C290.156 20.4062 292.352 20.8594 294.227 21.7656C296.102 22.6719 297.555 23.9141 298.586 25.4922C299.633 27.0703 300.156 28.875 300.156 30.9062H293.172C293.172 29.9062 292.961 29.0312 292.539 28.2812C292.133 27.5156 291.508 26.9141 290.664 26.4766C289.836 26.0391 288.789 25.8203 287.523 25.8203C286.305 25.8203 285.289 26.0078 284.477 26.3828C283.664 26.7422 283.055 27.2344 282.648 27.8594C282.242 28.4688 282.039 29.1562 282.039 29.9219C282.039 30.5 282.18 31.0234 282.461 31.4922C282.758 31.9609 283.195 32.3984 283.773 32.8047C284.352 33.2109 285.062 33.5938 285.906 33.9531C286.75 34.3125 287.727 34.6641 288.836 35.0078C290.695 35.5703 292.328 36.2031 293.734 36.9062C295.156 37.6094 296.344 38.3984 297.297 39.2734C298.25 40.1484 298.969 41.1406 299.453 42.25C299.938 43.3594 300.18 44.6172 300.18 46.0234C300.18 47.5078 299.891 48.8359 299.312 50.0078C298.734 51.1797 297.898 52.1719 296.805 52.9844C295.711 53.7969 294.406 54.4141 292.891 54.8359C291.375 55.2578 289.68 55.4688 287.805 55.4688C286.117 55.4688 284.453 55.25 282.812 54.8125C281.172 54.3594 279.68 53.6797 278.336 52.7734C277.008 51.8672 275.945 50.7109 275.148 49.3047C274.352 47.8984 273.953 46.2344 273.953 44.3125H281.008C281.008 45.375 281.172 46.2734 281.5 47.0078C281.828 47.7422 282.289 48.3359 282.883 48.7891C283.492 49.2422 284.211 49.5703 285.039 49.7734C285.883 49.9766 286.805 50.0781 287.805 50.0781C289.023 50.0781 290.023 49.9062 290.805 49.5625C291.602 49.2188 292.188 48.7422 292.562 48.1328C292.953 47.5234 293.148 46.8359 293.148 46.0703Z" fill="#F9975E"/>
</svg>
