<svg width="336" height="78" viewBox="0 0 336 78" fill="none" xmlns="http://www.w3.org/2000/svg">
<rect width="336" height="78" rx="15" fill="#C3C3C3" fill-opacity="0.29"/>
<path d="M131.586 37.1641V50.6875C131.055 51.3281 130.234 52.0234 129.125 52.7734C128.016 53.5078 126.586 54.1406 124.836 54.6719C123.086 55.2031 120.969 55.4688 118.484 55.4688C116.281 55.4688 114.273 55.1094 112.461 54.3906C110.648 53.6562 109.086 52.5859 107.773 51.1797C106.477 49.7734 105.477 48.0547 104.773 46.0234C104.07 43.9766 103.719 41.6406 103.719 39.0156V36.8828C103.719 34.2578 104.055 31.9219 104.727 29.875C105.414 27.8281 106.391 26.1016 107.656 24.6953C108.922 23.2891 110.43 22.2188 112.18 21.4844C113.93 20.75 115.875 20.3828 118.016 20.3828C120.984 20.3828 123.422 20.8672 125.328 21.8359C127.234 22.7891 128.688 24.1172 129.688 25.8203C130.703 27.5078 131.328 29.4453 131.562 31.6328H124.742C124.57 30.4766 124.242 29.4688 123.758 28.6094C123.273 27.75 122.578 27.0781 121.672 26.5938C120.781 26.1094 119.625 25.8672 118.203 25.8672C117.031 25.8672 115.984 26.1094 115.062 26.5938C114.156 27.0625 113.391 27.7578 112.766 28.6797C112.141 29.6016 111.664 30.7422 111.336 32.1016C111.008 33.4609 110.844 35.0391 110.844 36.8359V39.0156C110.844 40.7969 111.016 42.375 111.359 43.75C111.703 45.1094 112.211 46.2578 112.883 47.1953C113.57 48.1172 114.414 48.8125 115.414 49.2812C116.414 49.75 117.578 49.9844 118.906 49.9844C120.016 49.9844 120.938 49.8906 121.672 49.7031C122.422 49.5156 123.023 49.2891 123.477 49.0234C123.945 48.7422 124.305 48.4766 124.555 48.2266V42.1797H118.133V37.1641H131.586ZM151.133 26.7109L141.852 55H134.375L147.055 20.875H151.812L151.133 26.7109ZM158.844 55L149.539 26.7109L148.789 20.875H153.594L166.344 55H158.844ZM158.422 42.2969V47.8047H140.398V42.2969H158.422ZM172.719 20.875H178.672L187.438 45.9297L196.203 20.875H202.156L189.828 55H185.047L172.719 20.875ZM169.508 20.875H175.438L176.516 45.2969V55H169.508V20.875ZM199.438 20.875H205.391V55H198.359V45.2969L199.438 20.875ZM234.453 49.5156V55H216.289V49.5156H234.453ZM218.586 20.875V55H211.555V20.875H218.586ZM232.086 34.7734V40.1172H216.289V34.7734H232.086ZM234.43 20.875V26.3828H216.289V20.875H234.43Z" fill="#9BFF38"/>
</svg>
