<svg width="336" height="78" viewBox="0 0 336 78" fill="none" xmlns="http://www.w3.org/2000/svg">
<rect width="336" height="78" rx="15" fill="#C3C3C3" fill-opacity="0.29"/>
<path d="M113.148 49.5156V55H95.9688V49.5156H113.148ZM98.2422 20.875V55H91.2109V20.875H98.2422ZM124.656 20.875V55H117.648V20.875H124.656ZM149.008 46.0703C149.008 45.4609 148.914 44.9141 148.727 44.4297C148.555 43.9297 148.227 43.4766 147.742 43.0703C147.258 42.6484 146.578 42.2344 145.703 41.8281C144.828 41.4219 143.695 41 142.305 40.5625C140.758 40.0625 139.289 39.5 137.898 38.875C136.523 38.25 135.305 37.5234 134.242 36.6953C133.195 35.8516 132.367 34.875 131.758 33.7656C131.164 32.6562 130.867 31.3672 130.867 29.8984C130.867 28.4766 131.18 27.1875 131.805 26.0312C132.43 24.8594 133.305 23.8594 134.43 23.0312C135.555 22.1875 136.883 21.5391 138.414 21.0859C139.961 20.6328 141.656 20.4062 143.5 20.4062C146.016 20.4062 148.211 20.8594 150.086 21.7656C151.961 22.6719 153.414 23.9141 154.445 25.4922C155.492 27.0703 156.016 28.875 156.016 30.9062H149.031C149.031 29.9062 148.82 29.0312 148.398 28.2812C147.992 27.5156 147.367 26.9141 146.523 26.4766C145.695 26.0391 144.648 25.8203 143.383 25.8203C142.164 25.8203 141.148 26.0078 140.336 26.3828C139.523 26.7422 138.914 27.2344 138.508 27.8594C138.102 28.4688 137.898 29.1562 137.898 29.9219C137.898 30.5 138.039 31.0234 138.32 31.4922C138.617 31.9609 139.055 32.3984 139.633 32.8047C140.211 33.2109 140.922 33.5938 141.766 33.9531C142.609 34.3125 143.586 34.6641 144.695 35.0078C146.555 35.5703 148.188 36.2031 149.594 36.9062C151.016 37.6094 152.203 38.3984 153.156 39.2734C154.109 40.1484 154.828 41.1406 155.312 42.25C155.797 43.3594 156.039 44.6172 156.039 46.0234C156.039 47.5078 155.75 48.8359 155.172 50.0078C154.594 51.1797 153.758 52.1719 152.664 52.9844C151.57 53.7969 150.266 54.4141 148.75 54.8359C147.234 55.2578 145.539 55.4688 143.664 55.4688C141.977 55.4688 140.312 55.25 138.672 54.8125C137.031 54.3594 135.539 53.6797 134.195 52.7734C132.867 51.8672 131.805 50.7109 131.008 49.3047C130.211 47.8984 129.812 46.2344 129.812 44.3125H136.867C136.867 45.375 137.031 46.2734 137.359 47.0078C137.688 47.7422 138.148 48.3359 138.742 48.7891C139.352 49.2422 140.07 49.5703 140.898 49.7734C141.742 49.9766 142.664 50.0781 143.664 50.0781C144.883 50.0781 145.883 49.9062 146.664 49.5625C147.461 49.2188 148.047 48.7422 148.422 48.1328C148.812 47.5234 149.008 46.8359 149.008 46.0703ZM176.078 20.875V55H169.07V20.875H176.078ZM186.578 20.875V26.3828H158.734V20.875H186.578ZM201.93 26.7109L192.648 55H185.172L197.852 20.875H202.609L201.93 26.7109ZM209.641 55L200.336 26.7109L199.586 20.875H204.391L217.141 55H209.641ZM209.219 42.2969V47.8047H191.195V42.2969H209.219ZM238.07 46.0703C238.07 45.4609 237.977 44.9141 237.789 44.4297C237.617 43.9297 237.289 43.4766 236.805 43.0703C236.32 42.6484 235.641 42.2344 234.766 41.8281C233.891 41.4219 232.758 41 231.367 40.5625C229.82 40.0625 228.352 39.5 226.961 38.875C225.586 38.25 224.367 37.5234 223.305 36.6953C222.258 35.8516 221.43 34.875 220.82 33.7656C220.227 32.6562 219.93 31.3672 219.93 29.8984C219.93 28.4766 220.242 27.1875 220.867 26.0312C221.492 24.8594 222.367 23.8594 223.492 23.0312C224.617 22.1875 225.945 21.5391 227.477 21.0859C229.023 20.6328 230.719 20.4062 232.562 20.4062C235.078 20.4062 237.273 20.8594 239.148 21.7656C241.023 22.6719 242.477 23.9141 243.508 25.4922C244.555 27.0703 245.078 28.875 245.078 30.9062H238.094C238.094 29.9062 237.883 29.0312 237.461 28.2812C237.055 27.5156 236.43 26.9141 235.586 26.4766C234.758 26.0391 233.711 25.8203 232.445 25.8203C231.227 25.8203 230.211 26.0078 229.398 26.3828C228.586 26.7422 227.977 27.2344 227.57 27.8594C227.164 28.4688 226.961 29.1562 226.961 29.9219C226.961 30.5 227.102 31.0234 227.383 31.4922C227.68 31.9609 228.117 32.3984 228.695 32.8047C229.273 33.2109 229.984 33.5938 230.828 33.9531C231.672 34.3125 232.648 34.6641 233.758 35.0078C235.617 35.5703 237.25 36.2031 238.656 36.9062C240.078 37.6094 241.266 38.3984 242.219 39.2734C243.172 40.1484 243.891 41.1406 244.375 42.25C244.859 43.3594 245.102 44.6172 245.102 46.0234C245.102 47.5078 244.812 48.8359 244.234 50.0078C243.656 51.1797 242.82 52.1719 241.727 52.9844C240.633 53.7969 239.328 54.4141 237.812 54.8359C236.297 55.2578 234.602 55.4688 232.727 55.4688C231.039 55.4688 229.375 55.25 227.734 54.8125C226.094 54.3594 224.602 53.6797 223.258 52.7734C221.93 51.8672 220.867 50.7109 220.07 49.3047C219.273 47.8984 218.875 46.2344 218.875 44.3125H225.93C225.93 45.375 226.094 46.2734 226.422 47.0078C226.75 47.7422 227.211 48.3359 227.805 48.7891C228.414 49.2422 229.133 49.5703 229.961 49.7734C230.805 49.9766 231.727 50.0781 232.727 50.0781C233.945 50.0781 234.945 49.9062 235.727 49.5625C236.523 49.2188 237.109 48.7422 237.484 48.1328C237.875 47.5234 238.07 46.8359 238.07 46.0703Z" fill="#F9975E"/>
</svg>
