<svg width="336" height="78" viewBox="0 0 336 78" fill="none" xmlns="http://www.w3.org/2000/svg">
<rect width="336" height="78" rx="15" fill="#C3C3C3" fill-opacity="0.29"/>
<path d="M84.3203 21.875V56H77.2891L63.5781 33.125V56H56.5469V21.875H63.5781L77.3125 44.7734V21.875H84.3203ZM109.281 21.875H116.289V44.4219C116.289 47.0469 115.727 49.2578 114.602 51.0547C113.492 52.8516 111.953 54.2031 109.984 55.1094C108.031 56.0156 105.781 56.4688 103.234 56.4688C100.688 56.4688 98.4219 56.0156 96.4375 55.1094C94.4688 54.2031 92.9219 52.8516 91.7969 51.0547C90.6875 49.2578 90.1328 47.0469 90.1328 44.4219V21.875H97.1641V44.4219C97.1641 45.9531 97.4062 47.2031 97.8906 48.1719C98.375 49.1406 99.0703 49.8516 99.9766 50.3047C100.898 50.7578 101.984 50.9844 103.234 50.9844C104.516 50.9844 105.602 50.7578 106.492 50.3047C107.398 49.8516 108.086 49.1406 108.555 48.1719C109.039 47.2031 109.281 45.9531 109.281 44.4219V21.875ZM99.9297 19.9531L104.523 12.7344H111.859L105.414 19.9531H99.9297ZM125.289 21.875H131.242L140.008 46.9297L148.773 21.875H154.727L142.398 56H137.617L125.289 21.875ZM122.078 21.875H128.008L129.086 46.2969V56H122.078V21.875ZM152.008 21.875H157.961V56H150.93V46.2969L152.008 21.875ZM187.023 50.5156V56H168.859V50.5156H187.023ZM171.156 21.875V56H164.125V21.875H171.156ZM184.656 35.7734V41.1172H168.859V35.7734H184.656ZM187 21.875V27.3828H168.859V21.875H187ZM191.125 21.875H203.852C206.461 21.875 208.703 22.2656 210.578 23.0469C212.469 23.8281 213.922 24.9844 214.938 26.5156C215.953 28.0469 216.461 29.9297 216.461 32.1641C216.461 33.9922 216.148 35.5625 215.523 36.875C214.914 38.1719 214.047 39.2578 212.922 40.1328C211.812 40.9922 210.508 41.6797 209.008 42.1953L206.781 43.3672H195.719L195.672 37.8828H203.898C205.133 37.8828 206.156 37.6641 206.969 37.2266C207.781 36.7891 208.391 36.1797 208.797 35.3984C209.219 34.6172 209.43 33.7109 209.43 32.6797C209.43 31.5859 209.227 30.6406 208.82 29.8438C208.414 29.0469 207.797 28.4375 206.969 28.0156C206.141 27.5938 205.102 27.3828 203.852 27.3828H198.156V56H191.125V21.875ZM210.203 56L202.422 40.7891L209.852 40.7422L217.727 55.6719V56H210.203ZM249.906 38.1406V39.7578C249.906 42.3516 249.555 44.6797 248.852 46.7422C248.148 48.8047 247.156 50.5625 245.875 52.0156C244.594 53.4531 243.062 54.5547 241.281 55.3203C239.516 56.0859 237.555 56.4688 235.398 56.4688C233.258 56.4688 231.297 56.0859 229.516 55.3203C227.75 54.5547 226.219 53.4531 224.922 52.0156C223.625 50.5625 222.617 48.8047 221.898 46.7422C221.195 44.6797 220.844 42.3516 220.844 39.7578V38.1406C220.844 35.5312 221.195 33.2031 221.898 31.1562C222.602 29.0938 223.594 27.3359 224.875 25.8828C226.172 24.4297 227.703 23.3203 229.469 22.5547C231.25 21.7891 233.211 21.4062 235.352 21.4062C237.508 21.4062 239.469 21.7891 241.234 22.5547C243.016 23.3203 244.547 24.4297 245.828 25.8828C247.125 27.3359 248.125 29.0938 248.828 31.1562C249.547 33.2031 249.906 35.5312 249.906 38.1406ZM242.805 39.7578V38.0938C242.805 36.2812 242.641 34.6875 242.312 33.3125C241.984 31.9375 241.5 30.7812 240.859 29.8438C240.219 28.9062 239.438 28.2031 238.516 27.7344C237.594 27.25 236.539 27.0078 235.352 27.0078C234.164 27.0078 233.109 27.25 232.188 27.7344C231.281 28.2031 230.508 28.9062 229.867 29.8438C229.242 30.7812 228.766 31.9375 228.438 33.3125C228.109 34.6875 227.945 36.2812 227.945 38.0938V39.7578C227.945 41.5547 228.109 43.1484 228.438 44.5391C228.766 45.9141 229.25 47.0781 229.891 48.0312C230.531 48.9688 231.312 49.6797 232.234 50.1641C233.156 50.6484 234.211 50.8906 235.398 50.8906C236.586 50.8906 237.641 50.6484 238.562 50.1641C239.484 49.6797 240.258 48.9688 240.883 48.0312C241.508 47.0781 241.984 45.9141 242.312 44.5391C242.641 43.1484 242.805 41.5547 242.805 39.7578ZM272.734 47.0703C272.734 46.4609 272.641 45.9141 272.453 45.4297C272.281 44.9297 271.953 44.4766 271.469 44.0703C270.984 43.6484 270.305 43.2344 269.43 42.8281C268.555 42.4219 267.422 42 266.031 41.5625C264.484 41.0625 263.016 40.5 261.625 39.875C260.25 39.25 259.031 38.5234 257.969 37.6953C256.922 36.8516 256.094 35.875 255.484 34.7656C254.891 33.6562 254.594 32.3672 254.594 30.8984C254.594 29.4766 254.906 28.1875 255.531 27.0312C256.156 25.8594 257.031 24.8594 258.156 24.0312C259.281 23.1875 260.609 22.5391 262.141 22.0859C263.688 21.6328 265.383 21.4062 267.227 21.4062C269.742 21.4062 271.938 21.8594 273.812 22.7656C275.688 23.6719 277.141 24.9141 278.172 26.4922C279.219 28.0703 279.742 29.875 279.742 31.9062H272.758C272.758 30.9062 272.547 30.0312 272.125 29.2812C271.719 28.5156 271.094 27.9141 270.25 27.4766C269.422 27.0391 268.375 26.8203 267.109 26.8203C265.891 26.8203 264.875 27.0078 264.062 27.3828C263.25 27.7422 262.641 28.2344 262.234 28.8594C261.828 29.4688 261.625 30.1562 261.625 30.9219C261.625 31.5 261.766 32.0234 262.047 32.4922C262.344 32.9609 262.781 33.3984 263.359 33.8047C263.938 34.2109 264.648 34.5938 265.492 34.9531C266.336 35.3125 267.312 35.6641 268.422 36.0078C270.281 36.5703 271.914 37.2031 273.32 37.9062C274.742 38.6094 275.93 39.3984 276.883 40.2734C277.836 41.1484 278.555 42.1406 279.039 43.25C279.523 44.3594 279.766 45.6172 279.766 47.0234C279.766 48.5078 279.477 49.8359 278.898 51.0078C278.32 52.1797 277.484 53.1719 276.391 53.9844C275.297 54.7969 273.992 55.4141 272.477 55.8359C270.961 56.2578 269.266 56.4688 267.391 56.4688C265.703 56.4688 264.039 56.25 262.398 55.8125C260.758 55.3594 259.266 54.6797 257.922 53.7734C256.594 52.8672 255.531 51.7109 254.734 50.3047C253.938 48.8984 253.539 47.2344 253.539 45.3125H260.594C260.594 46.375 260.758 47.2734 261.086 48.0078C261.414 48.7422 261.875 49.3359 262.469 49.7891C263.078 50.2422 263.797 50.5703 264.625 50.7734C265.469 50.9766 266.391 51.0781 267.391 51.0781C268.609 51.0781 269.609 50.9062 270.391 50.5625C271.188 50.2188 271.773 49.7422 272.148 49.1328C272.539 48.5234 272.734 47.8359 272.734 47.0703Z" fill="#0061AE"/>
</svg>
