<svg width="336" height="78" viewBox="0 0 336 78" fill="none" xmlns="http://www.w3.org/2000/svg">
<rect width="336" height="78" rx="15" fill="#C3C3C3" fill-opacity="0.29"/>
<path d="M89.1406 46.0703C89.1406 45.4609 89.0469 44.9141 88.8594 44.4297C88.6875 43.9297 88.3594 43.4766 87.875 43.0703C87.3906 42.6484 86.7109 42.2344 85.8359 41.8281C84.9609 41.4219 83.8281 41 82.4375 40.5625C80.8906 40.0625 79.4219 39.5 78.0312 38.875C76.6562 38.25 75.4375 37.5234 74.375 36.6953C73.3281 35.8516 72.5 34.875 71.8906 33.7656C71.2969 32.6562 71 31.3672 71 29.8984C71 28.4766 71.3125 27.1875 71.9375 26.0312C72.5625 24.8594 73.4375 23.8594 74.5625 23.0312C75.6875 22.1875 77.0156 21.5391 78.5469 21.0859C80.0938 20.6328 81.7891 20.4062 83.6328 20.4062C86.1484 20.4062 88.3438 20.8594 90.2188 21.7656C92.0938 22.6719 93.5469 23.9141 94.5781 25.4922C95.625 27.0703 96.1484 28.875 96.1484 30.9062H89.1641C89.1641 29.9062 88.9531 29.0312 88.5312 28.2812C88.125 27.5156 87.5 26.9141 86.6562 26.4766C85.8281 26.0391 84.7812 25.8203 83.5156 25.8203C82.2969 25.8203 81.2812 26.0078 80.4688 26.3828C79.6562 26.7422 79.0469 27.2344 78.6406 27.8594C78.2344 28.4688 78.0312 29.1562 78.0312 29.9219C78.0312 30.5 78.1719 31.0234 78.4531 31.4922C78.75 31.9609 79.1875 32.3984 79.7656 32.8047C80.3438 33.2109 81.0547 33.5938 81.8984 33.9531C82.7422 34.3125 83.7188 34.6641 84.8281 35.0078C86.6875 35.5703 88.3203 36.2031 89.7266 36.9062C91.1484 37.6094 92.3359 38.3984 93.2891 39.2734C94.2422 40.1484 94.9609 41.1406 95.4453 42.25C95.9297 43.3594 96.1719 44.6172 96.1719 46.0234C96.1719 47.5078 95.8828 48.8359 95.3047 50.0078C94.7266 51.1797 93.8906 52.1719 92.7969 52.9844C91.7031 53.7969 90.3984 54.4141 88.8828 54.8359C87.3672 55.2578 85.6719 55.4688 83.7969 55.4688C82.1094 55.4688 80.4453 55.25 78.8047 54.8125C77.1641 54.3594 75.6719 53.6797 74.3281 52.7734C73 51.8672 71.9375 50.7109 71.1406 49.3047C70.3438 47.8984 69.9453 46.2344 69.9453 44.3125H77C77 45.375 77.1641 46.2734 77.4922 47.0078C77.8203 47.7422 78.2812 48.3359 78.875 48.7891C79.4844 49.2422 80.2031 49.5703 81.0312 49.7734C81.875 49.9766 82.7969 50.0781 83.7969 50.0781C85.0156 50.0781 86.0156 49.9062 86.7969 49.5625C87.5938 49.2188 88.1797 48.7422 88.5547 48.1328C88.9453 47.5234 89.1406 46.8359 89.1406 46.0703ZM116.211 20.875V55H109.203V20.875H116.211ZM126.711 20.875V26.3828H98.8672V20.875H126.711ZM130.719 20.875H143.445C146.055 20.875 148.297 21.2656 150.172 22.0469C152.062 22.8281 153.516 23.9844 154.531 25.5156C155.547 27.0469 156.055 28.9297 156.055 31.1641C156.055 32.9922 155.742 34.5625 155.117 35.875C154.508 37.1719 153.641 38.2578 152.516 39.1328C151.406 39.9922 150.102 40.6797 148.602 41.1953L146.375 42.3672H135.312L135.266 36.8828H143.492C144.727 36.8828 145.75 36.6641 146.562 36.2266C147.375 35.7891 147.984 35.1797 148.391 34.3984C148.812 33.6172 149.023 32.7109 149.023 31.6797C149.023 30.5859 148.82 29.6406 148.414 28.8438C148.008 28.0469 147.391 27.4375 146.562 27.0156C145.734 26.5938 144.695 26.3828 143.445 26.3828H137.75V55H130.719V20.875ZM149.797 55L142.016 39.7891L149.445 39.7422L157.32 54.6719V55H149.797ZM168.945 20.875V55H161.938V20.875H168.945ZM203.305 20.875V55H196.273L182.562 32.125V55H175.531V20.875H182.562L196.297 43.7734V20.875H203.305ZM236.469 37.1641V50.6875C235.938 51.3281 235.117 52.0234 234.008 52.7734C232.898 53.5078 231.469 54.1406 229.719 54.6719C227.969 55.2031 225.852 55.4688 223.367 55.4688C221.164 55.4688 219.156 55.1094 217.344 54.3906C215.531 53.6562 213.969 52.5859 212.656 51.1797C211.359 49.7734 210.359 48.0547 209.656 46.0234C208.953 43.9766 208.602 41.6406 208.602 39.0156V36.8828C208.602 34.2578 208.938 31.9219 209.609 29.875C210.297 27.8281 211.273 26.1016 212.539 24.6953C213.805 23.2891 215.312 22.2188 217.062 21.4844C218.812 20.75 220.758 20.3828 222.898 20.3828C225.867 20.3828 228.305 20.8672 230.211 21.8359C232.117 22.7891 233.57 24.1172 234.57 25.8203C235.586 27.5078 236.211 29.4453 236.445 31.6328H229.625C229.453 30.4766 229.125 29.4688 228.641 28.6094C228.156 27.75 227.461 27.0781 226.555 26.5938C225.664 26.1094 224.508 25.8672 223.086 25.8672C221.914 25.8672 220.867 26.1094 219.945 26.5938C219.039 27.0625 218.273 27.7578 217.648 28.6797C217.023 29.6016 216.547 30.7422 216.219 32.1016C215.891 33.4609 215.727 35.0391 215.727 36.8359V39.0156C215.727 40.7969 215.898 42.375 216.242 43.75C216.586 45.1094 217.094 46.2578 217.766 47.1953C218.453 48.1172 219.297 48.8125 220.297 49.2812C221.297 49.75 222.461 49.9844 223.789 49.9844C224.898 49.9844 225.82 49.8906 226.555 49.7031C227.305 49.5156 227.906 49.2891 228.359 49.0234C228.828 48.7422 229.188 48.4766 229.438 48.2266V42.1797H223.016V37.1641H236.469ZM259.906 46.0703C259.906 45.4609 259.812 44.9141 259.625 44.4297C259.453 43.9297 259.125 43.4766 258.641 43.0703C258.156 42.6484 257.477 42.2344 256.602 41.8281C255.727 41.4219 254.594 41 253.203 40.5625C251.656 40.0625 250.188 39.5 248.797 38.875C247.422 38.25 246.203 37.5234 245.141 36.6953C244.094 35.8516 243.266 34.875 242.656 33.7656C242.062 32.6562 241.766 31.3672 241.766 29.8984C241.766 28.4766 242.078 27.1875 242.703 26.0312C243.328 24.8594 244.203 23.8594 245.328 23.0312C246.453 22.1875 247.781 21.5391 249.312 21.0859C250.859 20.6328 252.555 20.4062 254.398 20.4062C256.914 20.4062 259.109 20.8594 260.984 21.7656C262.859 22.6719 264.312 23.9141 265.344 25.4922C266.391 27.0703 266.914 28.875 266.914 30.9062H259.93C259.93 29.9062 259.719 29.0312 259.297 28.2812C258.891 27.5156 258.266 26.9141 257.422 26.4766C256.594 26.0391 255.547 25.8203 254.281 25.8203C253.062 25.8203 252.047 26.0078 251.234 26.3828C250.422 26.7422 249.812 27.2344 249.406 27.8594C249 28.4688 248.797 29.1562 248.797 29.9219C248.797 30.5 248.938 31.0234 249.219 31.4922C249.516 31.9609 249.953 32.3984 250.531 32.8047C251.109 33.2109 251.82 33.5938 252.664 33.9531C253.508 34.3125 254.484 34.6641 255.594 35.0078C257.453 35.5703 259.086 36.2031 260.492 36.9062C261.914 37.6094 263.102 38.3984 264.055 39.2734C265.008 40.1484 265.727 41.1406 266.211 42.25C266.695 43.3594 266.938 44.6172 266.938 46.0234C266.938 47.5078 266.648 48.8359 266.07 50.0078C265.492 51.1797 264.656 52.1719 263.562 52.9844C262.469 53.7969 261.164 54.4141 259.648 54.8359C258.133 55.2578 256.438 55.4688 254.562 55.4688C252.875 55.4688 251.211 55.25 249.57 54.8125C247.93 54.3594 246.438 53.6797 245.094 52.7734C243.766 51.8672 242.703 50.7109 241.906 49.3047C241.109 47.8984 240.711 46.2344 240.711 44.3125H247.766C247.766 45.375 247.93 46.2734 248.258 47.0078C248.586 47.7422 249.047 48.3359 249.641 48.7891C250.25 49.2422 250.969 49.5703 251.797 49.7734C252.641 49.9766 253.562 50.0781 254.562 50.0781C255.781 50.0781 256.781 49.9062 257.562 49.5625C258.359 49.2188 258.945 48.7422 259.32 48.1328C259.711 47.5234 259.906 46.8359 259.906 46.0703Z" fill="#9BFF38"/>
</svg>
