<svg width="336" height="78" viewBox="0 0 336 78" fill="none" xmlns="http://www.w3.org/2000/svg">
<rect width="336" height="78" rx="15" fill="#C3C3C3" fill-opacity="0.29"/>
<path d="M96.5 20.875V55H89.4922V20.875H96.5ZM107 20.875V26.3828H79.1562V20.875H107ZM129.852 20.875H136.859V43.4219C136.859 46.0469 136.297 48.2578 135.172 50.0547C134.062 51.8516 132.523 53.2031 130.555 54.1094C128.602 55.0156 126.352 55.4688 123.805 55.4688C121.258 55.4688 118.992 55.0156 117.008 54.1094C115.039 53.2031 113.492 51.8516 112.367 50.0547C111.258 48.2578 110.703 46.0469 110.703 43.4219V20.875H117.734V43.4219C117.734 44.9531 117.977 46.2031 118.461 47.1719C118.945 48.1406 119.641 48.8516 120.547 49.3047C121.469 49.7578 122.555 49.9844 123.805 49.9844C125.086 49.9844 126.172 49.7578 127.062 49.3047C127.969 48.8516 128.656 48.1406 129.125 47.1719C129.609 46.2031 129.852 44.9531 129.852 43.4219V20.875ZM120.5 18.9531L125.094 11.7344H132.43L125.984 18.9531H120.5ZM155.938 42.8359H147.242V37.3516H155.938C157.281 37.3516 158.375 37.1328 159.219 36.6953C160.062 36.2422 160.68 35.6172 161.07 34.8203C161.461 34.0234 161.656 33.125 161.656 32.125C161.656 31.1094 161.461 30.1641 161.07 29.2891C160.68 28.4141 160.062 27.7109 159.219 27.1797C158.375 26.6484 157.281 26.3828 155.938 26.3828H149.68V55H142.648V20.875H155.938C158.609 20.875 160.898 21.3594 162.805 22.3281C164.727 23.2812 166.195 24.6016 167.211 26.2891C168.227 27.9766 168.734 29.9062 168.734 32.0781C168.734 34.2812 168.227 36.1875 167.211 37.7969C166.195 39.4062 164.727 40.6484 162.805 41.5234C160.898 42.3984 158.609 42.8359 155.938 42.8359ZM195.523 49.5156V55H178.344V49.5156H195.523ZM180.617 20.875V55H173.586V20.875H180.617ZM213.898 26.7109L204.617 55H197.141L209.82 20.875H214.578L213.898 26.7109ZM221.609 55L212.305 26.7109L211.555 20.875H216.359L229.109 55H221.609ZM221.188 42.2969V47.8047H203.164V42.2969H221.188ZM250.039 46.0703C250.039 45.4609 249.945 44.9141 249.758 44.4297C249.586 43.9297 249.258 43.4766 248.773 43.0703C248.289 42.6484 247.609 42.2344 246.734 41.8281C245.859 41.4219 244.727 41 243.336 40.5625C241.789 40.0625 240.32 39.5 238.93 38.875C237.555 38.25 236.336 37.5234 235.273 36.6953C234.227 35.8516 233.398 34.875 232.789 33.7656C232.195 32.6562 231.898 31.3672 231.898 29.8984C231.898 28.4766 232.211 27.1875 232.836 26.0312C233.461 24.8594 234.336 23.8594 235.461 23.0312C236.586 22.1875 237.914 21.5391 239.445 21.0859C240.992 20.6328 242.688 20.4062 244.531 20.4062C247.047 20.4062 249.242 20.8594 251.117 21.7656C252.992 22.6719 254.445 23.9141 255.477 25.4922C256.523 27.0703 257.047 28.875 257.047 30.9062H250.062C250.062 29.9062 249.852 29.0312 249.43 28.2812C249.023 27.5156 248.398 26.9141 247.555 26.4766C246.727 26.0391 245.68 25.8203 244.414 25.8203C243.195 25.8203 242.18 26.0078 241.367 26.3828C240.555 26.7422 239.945 27.2344 239.539 27.8594C239.133 28.4688 238.93 29.1562 238.93 29.9219C238.93 30.5 239.07 31.0234 239.352 31.4922C239.648 31.9609 240.086 32.3984 240.664 32.8047C241.242 33.2109 241.953 33.5938 242.797 33.9531C243.641 34.3125 244.617 34.6641 245.727 35.0078C247.586 35.5703 249.219 36.2031 250.625 36.9062C252.047 37.6094 253.234 38.3984 254.188 39.2734C255.141 40.1484 255.859 41.1406 256.344 42.25C256.828 43.3594 257.07 44.6172 257.07 46.0234C257.07 47.5078 256.781 48.8359 256.203 50.0078C255.625 51.1797 254.789 52.1719 253.695 52.9844C252.602 53.7969 251.297 54.4141 249.781 54.8359C248.266 55.2578 246.57 55.4688 244.695 55.4688C243.008 55.4688 241.344 55.25 239.703 54.8125C238.062 54.3594 236.57 53.6797 235.227 52.7734C233.898 51.8672 232.836 50.7109 232.039 49.3047C231.242 47.8984 230.844 46.2344 230.844 44.3125H237.898C237.898 45.375 238.062 46.2734 238.391 47.0078C238.719 47.7422 239.18 48.3359 239.773 48.7891C240.383 49.2422 241.102 49.5703 241.93 49.7734C242.773 49.9766 243.695 50.0781 244.695 50.0781C245.914 50.0781 246.914 49.9062 247.695 49.5625C248.492 49.2188 249.078 48.7422 249.453 48.1328C249.844 47.5234 250.039 46.8359 250.039 46.0703Z" fill="#EBF23A"/>
</svg>
