<svg width="336" height="78" viewBox="0 0 336 78" fill="none" xmlns="http://www.w3.org/2000/svg">
<rect width="336" height="78" rx="15" fill="#C3C3C3" fill-opacity="0.29"/>
<path d="M63.6562 47.875L71.6953 20.875H79.5234L67.6406 55H62.4844L63.6562 47.875ZM56.25 20.875L64.2656 47.875L65.4844 55H60.2812L48.4688 20.875H56.25ZM94.8047 26.7109L85.5234 55H78.0469L90.7266 20.875H95.4844L94.8047 26.7109ZM102.516 55L93.2109 26.7109L92.4609 20.875H97.2656L110.016 55H102.516ZM102.094 42.2969V47.8047H84.0703V42.2969H102.094ZM113.18 20.875H125.906C128.516 20.875 130.758 21.2656 132.633 22.0469C134.523 22.8281 135.977 23.9844 136.992 25.5156C138.008 27.0469 138.516 28.9297 138.516 31.1641C138.516 32.9922 138.203 34.5625 137.578 35.875C136.969 37.1719 136.102 38.2578 134.977 39.1328C133.867 39.9922 132.562 40.6797 131.062 41.1953L128.836 42.3672H117.773L117.727 36.8828H125.953C127.188 36.8828 128.211 36.6641 129.023 36.2266C129.836 35.7891 130.445 35.1797 130.852 34.3984C131.273 33.6172 131.484 32.7109 131.484 31.6797C131.484 30.5859 131.281 29.6406 130.875 28.8438C130.469 28.0469 129.852 27.4375 129.023 27.0156C128.195 26.5938 127.156 26.3828 125.906 26.3828H120.211V55H113.18V20.875ZM132.258 55L124.477 39.7891L131.906 39.7422L139.781 54.6719V55H132.258ZM151.406 20.875V55H144.398V20.875H151.406ZM172.289 26.7109L163.008 55H155.531L168.211 20.875H172.969L172.289 26.7109ZM180 55L170.695 26.7109L169.945 20.875H174.75L187.5 55H180ZM179.578 42.2969V47.8047H161.555V42.2969H179.578ZM168.328 18.9531L172.922 11.7344H180.258L173.812 18.9531H168.328ZM201.047 47.875L209.086 20.875H216.914L205.031 55H199.875L201.047 47.875ZM193.641 20.875L201.656 47.875L202.875 55H197.672L185.859 20.875H193.641ZM243 49.5156V55H224.836V49.5156H243ZM227.133 20.875V55H220.102V20.875H227.133ZM240.633 34.7734V40.1172H224.836V34.7734H240.633ZM242.977 20.875V26.3828H224.836V20.875H242.977ZM254.578 20.875V55H247.57V20.875H254.578ZM278.93 46.0703C278.93 45.4609 278.836 44.9141 278.648 44.4297C278.477 43.9297 278.148 43.4766 277.664 43.0703C277.18 42.6484 276.5 42.2344 275.625 41.8281C274.75 41.4219 273.617 41 272.227 40.5625C270.68 40.0625 269.211 39.5 267.82 38.875C266.445 38.25 265.227 37.5234 264.164 36.6953C263.117 35.8516 262.289 34.875 261.68 33.7656C261.086 32.6562 260.789 31.3672 260.789 29.8984C260.789 28.4766 261.102 27.1875 261.727 26.0312C262.352 24.8594 263.227 23.8594 264.352 23.0312C265.477 22.1875 266.805 21.5391 268.336 21.0859C269.883 20.6328 271.578 20.4062 273.422 20.4062C275.938 20.4062 278.133 20.8594 280.008 21.7656C281.883 22.6719 283.336 23.9141 284.367 25.4922C285.414 27.0703 285.938 28.875 285.938 30.9062H278.953C278.953 29.9062 278.742 29.0312 278.32 28.2812C277.914 27.5156 277.289 26.9141 276.445 26.4766C275.617 26.0391 274.57 25.8203 273.305 25.8203C272.086 25.8203 271.07 26.0078 270.258 26.3828C269.445 26.7422 268.836 27.2344 268.43 27.8594C268.023 28.4688 267.82 29.1562 267.82 29.9219C267.82 30.5 267.961 31.0234 268.242 31.4922C268.539 31.9609 268.977 32.3984 269.555 32.8047C270.133 33.2109 270.844 33.5938 271.688 33.9531C272.531 34.3125 273.508 34.6641 274.617 35.0078C276.477 35.5703 278.109 36.2031 279.516 36.9062C280.938 37.6094 282.125 38.3984 283.078 39.2734C284.031 40.1484 284.75 41.1406 285.234 42.25C285.719 43.3594 285.961 44.6172 285.961 46.0234C285.961 47.5078 285.672 48.8359 285.094 50.0078C284.516 51.1797 283.68 52.1719 282.586 52.9844C281.492 53.7969 280.188 54.4141 278.672 54.8359C277.156 55.2578 275.461 55.4688 273.586 55.4688C271.898 55.4688 270.234 55.25 268.594 54.8125C266.953 54.3594 265.461 53.6797 264.117 52.7734C262.789 51.8672 261.727 50.7109 260.93 49.3047C260.133 47.8984 259.734 46.2344 259.734 44.3125H266.789C266.789 45.375 266.953 46.2734 267.281 47.0078C267.609 47.7422 268.07 48.3359 268.664 48.7891C269.273 49.2422 269.992 49.5703 270.82 49.7734C271.664 49.9766 272.586 50.0781 273.586 50.0781C274.805 50.0781 275.805 49.9062 276.586 49.5625C277.383 49.2188 277.969 48.7422 278.344 48.1328C278.734 47.5234 278.93 46.8359 278.93 46.0703Z" fill="#EBF23A"/>
</svg>
